<svg xmlns="http://www.w3.org/2000/svg" class="railroad-diagram" width="406" height="820" viewBox="0 0 406 820">
<style>
/* <![CDATA[ */
svg.railroad-diagram {
    background-color: hsl(30,20%,95%);
}
svg.railroad-diagram path {
    stroke-width: 3;
    stroke: black;
    fill: rgba(0,0,0,0);
}
svg.railroad-diagram text {
    font: bold 14px monospace;
    text-anchor: middle;
}
svg.railroad-diagram text.diagram-text {
    font-size: 12px;
}
svg.railroad-diagram text.diagram-arrow {
    font-size: 16px;
}
svg.railroad-diagram text.label {
    text-anchor: start;
}
svg.railroad-diagram text.comment {
    font: italic 12px monospace;
}
svg.railroad-diagram g.non-terminal text {
    /*font-style: italic;*/
}
svg.railroad-diagram rect {
    stroke-width: 3;
    stroke: black;
    fill: hsl(120,100%,90%);
}
svg.railroad-diagram path.diagram-text {
    stroke-width: 3;
    stroke: black;
    fill: white;
    cursor: help;
}
svg.railroad-diagram g.diagram-text:hover path.diagram-text {
    fill: #eee;
}
/* ]]> */
</style>
<g transform="translate(.5 .5)">
<g>
<path d="M20 381v20m10 -20v20m-10 -10h20"></path>
</g>
<path d="M40 391h10"></path>
<g>
<path d="M50 391h0"></path>
<path d="M356 391h0"></path>
<path d="M50 391h10"></path>
<g>
<path d="M60 391h0"></path>
<path d="M346 391h0"></path>
<g>
<path d="M60 391h0"></path>
<path d="M154 391h0"></path>
<path d="M60 391a10 10 0 0 0 10 -10v-10a10 10 0 0 1 10 -10"></path>
<g class="terminal">
<path d="M80 361h8.5"></path>
<path d="M125.5 361h8.5"></path>
<rect x="88.5" y="350" width="37" height="22" rx="10" ry="10"></rect>
<text x="107" y="365">CC</text>
</g>
<path d="M134 361a10 10 0 0 1 10 10v10a10 10 0 0 0 10 10"></path>
<path d="M60 391a10 10 0 0 0 10 -10v-40a10 10 0 0 1 10 -10"></path>
<g class="terminal">
<path d="M80 331h8.5"></path>
<path d="M125.5 331h8.5"></path>
<rect x="88.5" y="320" width="37" height="22" rx="10" ry="10"></rect>
<text x="107" y="335">CS</text>
</g>
<path d="M134 331a10 10 0 0 1 10 10v40a10 10 0 0 0 10 10"></path>
<path d="M60 391a10 10 0 0 0 10 -10v-70a10 10 0 0 1 10 -10"></path>
<g class="terminal">
<path d="M80 301h8.5"></path>
<path d="M125.5 301h8.5"></path>
<rect x="88.5" y="290" width="37" height="22" rx="10" ry="10"></rect>
<text x="107" y="305">CI</text>
</g>
<path d="M134 301a10 10 0 0 1 10 10v70a10 10 0 0 0 10 10"></path>
<path d="M60 391a10 10 0 0 0 10 -10v-100a10 10 0 0 1 10 -10"></path>
<g class="terminal">
<path d="M80 271h4.25"></path>
<path d="M129.75 271h4.25"></path>
<rect x="84.25" y="260" width="45.5" height="22" rx="10" ry="10"></rect>
<text x="107" y="275">ACC</text>
</g>
<path d="M134 271a10 10 0 0 1 10 10v100a10 10 0 0 0 10 10"></path>
<path d="M60 391a10 10 0 0 0 10 -10v-130a10 10 0 0 1 10 -10"></path>
<g class="terminal">
<path d="M80 241h8.5"></path>
<path d="M125.5 241h8.5"></path>
<rect x="88.5" y="230" width="37" height="22" rx="10" ry="10"></rect>
<text x="107" y="245">AC</text>
</g>
<path d="M134 241a10 10 0 0 1 10 10v130a10 10 0 0 0 10 10"></path>
<path d="M60 391a10 10 0 0 0 10 -10v-160a10 10 0 0 1 10 -10"></path>
<g class="terminal">
<path d="M80 211h8.5"></path>
<path d="M125.5 211h8.5"></path>
<rect x="88.5" y="200" width="37" height="22" rx="10" ry="10"></rect>
<text x="107" y="215">AS</text>
</g>
<path d="M134 211a10 10 0 0 1 10 10v160a10 10 0 0 0 10 10"></path>
<path d="M60 391a10 10 0 0 0 10 -10v-190a10 10 0 0 1 10 -10"></path>
<g class="terminal">
<path d="M80 181h8.5"></path>
<path d="M125.5 181h8.5"></path>
<rect x="88.5" y="170" width="37" height="22" rx="10" ry="10"></rect>
<text x="107" y="185">CF</text>
</g>
<path d="M134 181a10 10 0 0 1 10 10v190a10 10 0 0 0 10 10"></path>
<path d="M60 391a10 10 0 0 0 10 -10v-220a10 10 0 0 1 10 -10"></path>
<g class="terminal">
<path d="M80 151h4.25"></path>
<path d="M129.75 151h4.25"></path>
<rect x="84.25" y="140" width="45.5" height="22" rx="10" ry="10"></rect>
<text x="107" y="155">TCU</text>
</g>
<path d="M134 151a10 10 0 0 1 10 10v220a10 10 0 0 0 10 10"></path>
<path d="M60 391a10 10 0 0 0 10 -10v-250a10 10 0 0 1 10 -10"></path>
<g class="terminal">
<path d="M80 121h8.5"></path>
<path d="M125.5 121h8.5"></path>
<rect x="88.5" y="110" width="37" height="22" rx="10" ry="10"></rect>
<text x="107" y="125">CU</text>
</g>
<path d="M134 121a10 10 0 0 1 10 10v250a10 10 0 0 0 10 10"></path>
<path d="M60 391a10 10 0 0 0 10 -10v-280a10 10 0 0 1 10 -10"></path>
<g class="terminal">
<path d="M80 91h8.5"></path>
<path d="M125.5 91h8.5"></path>
<rect x="88.5" y="80" width="37" height="22" rx="10" ry="10"></rect>
<text x="107" y="95">SF</text>
</g>
<path d="M134 91a10 10 0 0 1 10 10v280a10 10 0 0 0 10 10"></path>
<path d="M60 391a10 10 0 0 0 10 -10v-310a10 10 0 0 1 10 -10"></path>
<g class="terminal">
<path d="M80 61h8.5"></path>
<path d="M125.5 61h8.5"></path>
<rect x="88.5" y="50" width="37" height="22" rx="10" ry="10"></rect>
<text x="107" y="65">ST</text>
</g>
<path d="M134 61a10 10 0 0 1 10 10v310a10 10 0 0 0 10 10"></path>
<path d="M60 391a10 10 0 0 0 10 -10v-340a10 10 0 0 1 10 -10"></path>
<g class="terminal">
<path d="M80 31h8.5"></path>
<path d="M125.5 31h8.5"></path>
<rect x="88.5" y="20" width="37" height="22" rx="10" ry="10"></rect>
<text x="107" y="35">SC</text>
</g>
<path d="M134 31a10 10 0 0 1 10 10v340a10 10 0 0 0 10 10"></path>
<path d="M60 391h20"></path>
<g class="terminal">
<path d="M80 391h8.5"></path>
<path d="M125.5 391h8.5"></path>
<rect x="88.5" y="380" width="37" height="22" rx="10" ry="10"></rect>
<text x="107" y="395">NS</text>
</g>
<path d="M134 391h20"></path>
<path d="M60 391a10 10 0 0 1 10 10v10a10 10 0 0 0 10 10"></path>
<g class="terminal">
<path d="M80 421h8.5"></path>
<path d="M125.5 421h8.5"></path>
<rect x="88.5" y="410" width="37" height="22" rx="10" ry="10"></rect>
<text x="107" y="425">CB</text>
</g>
<path d="M134 421a10 10 0 0 0 10 -10v-10a10 10 0 0 1 10 -10"></path>
<path d="M60 391a10 10 0 0 1 10 10v40a10 10 0 0 0 10 10"></path>
<g class="terminal">
<path d="M80 451h0"></path>
<path d="M134 451h0"></path>
<rect x="80" y="440" width="54" height="22" rx="10" ry="10"></rect>
<text x="107" y="455">BLSN</text>
</g>
<path d="M134 451a10 10 0 0 0 10 -10v-40a10 10 0 0 1 10 -10"></path>
<path d="M60 391a10 10 0 0 1 10 10v70a10 10 0 0 0 10 10"></path>
<g class="terminal">
<path d="M80 481h0"></path>
<path d="M134 481h0"></path>
<rect x="80" y="470" width="54" height="22" rx="10" ry="10"></rect>
<text x="107" y="485">BLDU</text>
</g>
<path d="M134 481a10 10 0 0 0 10 -10v-70a10 10 0 0 1 10 -10"></path>
<path d="M60 391a10 10 0 0 1 10 10v100a10 10 0 0 0 10 10"></path>
<g class="terminal">
<path d="M80 511h0"></path>
<path d="M134 511h0"></path>
<rect x="80" y="500" width="54" height="22" rx="10" ry="10"></rect>
<text x="107" y="515">BLSA</text>
</g>
<path d="M134 511a10 10 0 0 0 10 -10v-100a10 10 0 0 1 10 -10"></path>
<path d="M60 391a10 10 0 0 1 10 10v130a10 10 0 0 0 10 10"></path>
<g class="terminal">
<path d="M80 541h8.5"></path>
<path d="M125.5 541h8.5"></path>
<rect x="88.5" y="530" width="37" height="22" rx="10" ry="10"></rect>
<text x="107" y="545">IC</text>
</g>
<path d="M134 541a10 10 0 0 0 10 -10v-130a10 10 0 0 1 10 -10"></path>
<path d="M60 391a10 10 0 0 1 10 10v160a10 10 0 0 0 10 10"></path>
<g class="terminal">
<path d="M80 571h8.5"></path>
<path d="M125.5 571h8.5"></path>
<rect x="88.5" y="560" width="37" height="22" rx="10" ry="10"></rect>
<text x="107" y="575">RA</text>
</g>
<path d="M134 571a10 10 0 0 0 10 -10v-160a10 10 0 0 1 10 -10"></path>
<path d="M60 391a10 10 0 0 1 10 10v190a10 10 0 0 0 10 10"></path>
<g class="terminal">
<path d="M80 601h8.5"></path>
<path d="M125.5 601h8.5"></path>
<rect x="88.5" y="590" width="37" height="22" rx="10" ry="10"></rect>
<text x="107" y="605">DZ</text>
</g>
<path d="M134 601a10 10 0 0 0 10 -10v-190a10 10 0 0 1 10 -10"></path>
<path d="M60 391a10 10 0 0 1 10 10v220a10 10 0 0 0 10 10"></path>
<g class="terminal">
<path d="M80 631h8.5"></path>
<path d="M125.5 631h8.5"></path>
<rect x="88.5" y="620" width="37" height="22" rx="10" ry="10"></rect>
<text x="107" y="635">SN</text>
</g>
<path d="M134 631a10 10 0 0 0 10 -10v-220a10 10 0 0 1 10 -10"></path>
<path d="M60 391a10 10 0 0 1 10 10v250a10 10 0 0 0 10 10"></path>
<g class="terminal">
<path d="M80 661h8.5"></path>
<path d="M125.5 661h8.5"></path>
<rect x="88.5" y="650" width="37" height="22" rx="10" ry="10"></rect>
<text x="107" y="665">PL</text>
</g>
<path d="M134 661a10 10 0 0 0 10 -10v-250a10 10 0 0 1 10 -10"></path>
<path d="M60 391a10 10 0 0 1 10 10v280a10 10 0 0 0 10 10"></path>
<g class="terminal">
<path d="M80 691h8.5"></path>
<path d="M125.5 691h8.5"></path>
<rect x="88.5" y="680" width="37" height="22" rx="10" ry="10"></rect>
<text x="107" y="695">FU</text>
</g>
<path d="M134 691a10 10 0 0 0 10 -10v-280a10 10 0 0 1 10 -10"></path>
<path d="M60 391a10 10 0 0 1 10 10v310a10 10 0 0 0 10 10"></path>
<g class="terminal">
<path d="M80 721h8.5"></path>
<path d="M125.5 721h8.5"></path>
<rect x="88.5" y="710" width="37" height="22" rx="10" ry="10"></rect>
<text x="107" y="725">FG</text>
</g>
<path d="M134 721a10 10 0 0 0 10 -10v-310a10 10 0 0 1 10 -10"></path>
<path d="M60 391a10 10 0 0 1 10 10v340a10 10 0 0 0 10 10"></path>
<g class="terminal">
<path d="M80 751h8.5"></path>
<path d="M125.5 751h8.5"></path>
<rect x="88.5" y="740" width="37" height="22" rx="10" ry="10"></rect>
<text x="107" y="755">BR</text>
</g>
<path d="M134 751a10 10 0 0 0 10 -10v-340a10 10 0 0 1 10 -10"></path>
<path d="M60 391a10 10 0 0 1 10 10v370a10 10 0 0 0 10 10"></path>
<g class="terminal">
<path d="M80 781h8.5"></path>
<path d="M125.5 781h8.5"></path>
<rect x="88.5" y="770" width="37" height="22" rx="10" ry="10"></rect>
<text x="107" y="785">HZ</text>
</g>
<path d="M134 781a10 10 0 0 0 10 -10v-370a10 10 0 0 1 10 -10"></path>
</g>
<path d="M154 391h10"></path>
<g>
<path d="M164 391h0"></path>
<path d="M272 391h0"></path>
<text x="218" y="396" class="comment">coverage, octa</text>
</g>
<path d="M272 391h10"></path>
<path d="M282 391h10"></path>
<g class="non-terminal">
<path d="M292 391h0"></path>
<path d="M346 391h0"></path>
<rect x="292" y="380" width="54" height="22"></rect>
<text x="319" y="395">1..8</text>
</g>
</g>
<path d="M346 391h10"></path>
<path d="M60 391a10 10 0 0 0 -10 10v389a10 10 0 0 0 10 10"></path>
<g>
<path d="M60 800h286"></path>
</g>
<path d="M346 800a10 10 0 0 0 10 -10v-389a10 10 0 0 0 -10 -10"></path>
</g>
<path d="M356 391h10"></path>
<path d="M 366 391 h 20 m -10 -10 v 20 m 10 -20 v 20"></path>
</g>
</svg>
