<svg xmlns="http://www.w3.org/2000/svg" class="railroad-diagram" width="470" height="92" viewBox="0 0 470 92">
<style>
/* <![CDATA[ */
svg.railroad-diagram {
    background-color: hsl(30,20%,95%);
}
svg.railroad-diagram path {
    stroke-width: 3;
    stroke: black;
    fill: rgba(0,0,0,0);
}
svg.railroad-diagram text {
    font: bold 14px monospace;
    text-anchor: middle;
}
svg.railroad-diagram text.diagram-text {
    font-size: 12px;
}
svg.railroad-diagram text.diagram-arrow {
    font-size: 16px;
}
svg.railroad-diagram text.label {
    text-anchor: start;
}
svg.railroad-diagram text.comment {
    font: italic 12px monospace;
}
svg.railroad-diagram g.non-terminal text {
    /*font-style: italic;*/
}
svg.railroad-diagram rect {
    stroke-width: 3;
    stroke: black;
    fill: hsl(120,100%,90%);
}
svg.railroad-diagram path.diagram-text {
    stroke-width: 3;
    stroke: black;
    fill: white;
    cursor: help;
}
svg.railroad-diagram g.diagram-text:hover path.diagram-text {
    fill: #eee;
}
/* ]]> */
</style>
<g transform="translate(.5 .5)">
<g>
<path d="M20 21v20m10 -20v20m-10 -10h20"></path>
</g>
<path d="M40 31h10"></path>
<g class="terminal">
<path d="M50 31h0"></path>
<path d="M87 31h0"></path>
<rect x="50" y="20" width="37" height="22" rx="10" ry="10"></rect>
<text x="68.5" y="35">8/</text>
</g>
<path d="M87 31h10"></path>
<g>
<path d="M97 31h0"></path>
<path d="M208 31h0"></path>
<path d="M97 31h20"></path>
<g class="non-terminal">
<path d="M117 31h0"></path>
<path d="M188 31h0"></path>
<rect x="117" y="20" width="71" height="22"></rect>
<text x="152.5" y="35">0 to 9</text>
</g>
<path d="M188 31h20"></path>
<path d="M97 31a10 10 0 0 1 10 10v10a10 10 0 0 0 10 10"></path>
<g class="terminal">
<path d="M117 61h21.25"></path>
<path d="M166.75 61h21.25"></path>
<rect x="138.25" y="50" width="28.5" height="22" rx="10" ry="10"></rect>
<text x="152.5" y="65">/</text>
</g>
<path d="M188 61a10 10 0 0 0 10 -10v-10a10 10 0 0 1 10 -10"></path>
</g>
<g>
<path d="M208 31h0"></path>
<path d="M319 31h0"></path>
<path d="M208 31h20"></path>
<g class="non-terminal">
<path d="M228 31h0"></path>
<path d="M299 31h0"></path>
<rect x="228" y="20" width="71" height="22"></rect>
<text x="263.5" y="35">0 to 9</text>
</g>
<path d="M299 31h20"></path>
<path d="M208 31a10 10 0 0 1 10 10v10a10 10 0 0 0 10 10"></path>
<g class="terminal">
<path d="M228 61h21.25"></path>
<path d="M277.75 61h21.25"></path>
<rect x="249.25" y="50" width="28.5" height="22" rx="10" ry="10"></rect>
<text x="263.5" y="65">/</text>
</g>
<path d="M299 61a10 10 0 0 0 10 -10v-10a10 10 0 0 1 10 -10"></path>
</g>
<g>
<path d="M319 31h0"></path>
<path d="M430 31h0"></path>
<path d="M319 31h20"></path>
<g class="non-terminal">
<path d="M339 31h0"></path>
<path d="M410 31h0"></path>
<rect x="339" y="20" width="71" height="22"></rect>
<text x="374.5" y="35">0 to 9</text>
</g>
<path d="M410 31h20"></path>
<path d="M319 31a10 10 0 0 1 10 10v10a10 10 0 0 0 10 10"></path>
<g class="terminal">
<path d="M339 61h21.25"></path>
<path d="M388.75 61h21.25"></path>
<rect x="360.25" y="50" width="28.5" height="22" rx="10" ry="10"></rect>
<text x="374.5" y="65">/</text>
</g>
<path d="M410 61a10 10 0 0 0 10 -10v-10a10 10 0 0 1 10 -10"></path>
</g>
<path d="M 430 31 h 20 m -10 -10 v 20 m 10 -20 v 20"></path>
</g>
</svg>