<svg xmlns="http://www.w3.org/2000/svg" class="railroad-diagram" width="269.5" height="460" viewBox="0 0 269.5 460">
<style>
/* <![CDATA[ */
svg.railroad-diagram {
    background-color: hsl(30,20%,95%);
}
svg.railroad-diagram path {
    stroke-width: 3;
    stroke: black;
    fill: rgba(0,0,0,0);
}
svg.railroad-diagram text {
    font: bold 14px monospace;
    text-anchor: middle;
}
svg.railroad-diagram text.diagram-text {
    font-size: 12px;
}
svg.railroad-diagram text.diagram-arrow {
    font-size: 16px;
}
svg.railroad-diagram text.label {
    text-anchor: start;
}
svg.railroad-diagram text.comment {
    font: italic 12px monospace;
}
svg.railroad-diagram g.non-terminal text {
    /*font-style: italic;*/
}
svg.railroad-diagram rect {
    stroke-width: 3;
    stroke: black;
    fill: hsl(120,100%,90%);
}
svg.railroad-diagram path.diagram-text {
    stroke-width: 3;
    stroke: black;
    fill: white;
    cursor: help;
}
svg.railroad-diagram g.diagram-text:hover path.diagram-text {
    fill: #eee;
}
/* ]]> */
</style>
<g transform="translate(.5 .5)">
<g>
<path d="M20 231v20m10 -20v20m-10 -10h20"></path>
</g>
<path d="M40 241h10"></path>
<g>
<path d="M50 241h0"></path>
<path d="M219.5 241h0"></path>
<path d="M50 241h10"></path>
<g>
<path d="M60 241h0"></path>
<path d="M209.5 241h0"></path>
<g>
<path d="M60 241h0"></path>
<path d="M145.5 241h0"></path>
<path d="M60 241a10 10 0 0 0 10 -10v-10a10 10 0 0 1 10 -10"></path>
<g class="terminal">
<path d="M80 211h4.25"></path>
<path d="M121.25 211h4.25"></path>
<rect x="84.25" y="200" width="37" height="22" rx="10" ry="10"></rect>
<text x="102.75" y="215">AS</text>
</g>
<path d="M125.5 211a10 10 0 0 1 10 10v10a10 10 0 0 0 10 10"></path>
<path d="M60 241a10 10 0 0 0 10 -10v-40a10 10 0 0 1 10 -10"></path>
<g class="terminal">
<path d="M80 181h4.25"></path>
<path d="M121.25 181h4.25"></path>
<rect x="84.25" y="170" width="37" height="22" rx="10" ry="10"></rect>
<text x="102.75" y="185">CF</text>
</g>
<path d="M125.5 181a10 10 0 0 1 10 10v40a10 10 0 0 0 10 10"></path>
<path d="M60 241a10 10 0 0 0 10 -10v-70a10 10 0 0 1 10 -10"></path>
<g class="terminal">
<path d="M80 151h0"></path>
<path d="M125.5 151h0"></path>
<rect x="80" y="140" width="45.5" height="22" rx="10" ry="10"></rect>
<text x="102.75" y="155">TCU</text>
</g>
<path d="M125.5 151a10 10 0 0 1 10 10v70a10 10 0 0 0 10 10"></path>
<path d="M60 241a10 10 0 0 0 10 -10v-100a10 10 0 0 1 10 -10"></path>
<g class="terminal">
<path d="M80 121h4.25"></path>
<path d="M121.25 121h4.25"></path>
<rect x="84.25" y="110" width="37" height="22" rx="10" ry="10"></rect>
<text x="102.75" y="125">CU</text>
</g>
<path d="M125.5 121a10 10 0 0 1 10 10v100a10 10 0 0 0 10 10"></path>
<path d="M60 241a10 10 0 0 0 10 -10v-130a10 10 0 0 1 10 -10"></path>
<g class="terminal">
<path d="M80 91h4.25"></path>
<path d="M121.25 91h4.25"></path>
<rect x="84.25" y="80" width="37" height="22" rx="10" ry="10"></rect>
<text x="102.75" y="95">SF</text>
</g>
<path d="M125.5 91a10 10 0 0 1 10 10v130a10 10 0 0 0 10 10"></path>
<path d="M60 241a10 10 0 0 0 10 -10v-160a10 10 0 0 1 10 -10"></path>
<g class="terminal">
<path d="M80 61h4.25"></path>
<path d="M121.25 61h4.25"></path>
<rect x="84.25" y="50" width="37" height="22" rx="10" ry="10"></rect>
<text x="102.75" y="65">ST</text>
</g>
<path d="M125.5 61a10 10 0 0 1 10 10v160a10 10 0 0 0 10 10"></path>
<path d="M60 241a10 10 0 0 0 10 -10v-190a10 10 0 0 1 10 -10"></path>
<g class="terminal">
<path d="M80 31h4.25"></path>
<path d="M121.25 31h4.25"></path>
<rect x="84.25" y="20" width="37" height="22" rx="10" ry="10"></rect>
<text x="102.75" y="35">SC</text>
</g>
<path d="M125.5 31a10 10 0 0 1 10 10v190a10 10 0 0 0 10 10"></path>
<path d="M60 241h20"></path>
<g class="terminal">
<path d="M80 241h4.25"></path>
<path d="M121.25 241h4.25"></path>
<rect x="84.25" y="230" width="37" height="22" rx="10" ry="10"></rect>
<text x="102.75" y="245">AC</text>
</g>
<path d="M125.5 241h20"></path>
<path d="M60 241a10 10 0 0 1 10 10v10a10 10 0 0 0 10 10"></path>
<g class="terminal">
<path d="M80 271h0"></path>
<path d="M125.5 271h0"></path>
<rect x="80" y="260" width="45.5" height="22" rx="10" ry="10"></rect>
<text x="102.75" y="275">ACC</text>
</g>
<path d="M125.5 271a10 10 0 0 0 10 -10v-10a10 10 0 0 1 10 -10"></path>
<path d="M60 241a10 10 0 0 1 10 10v40a10 10 0 0 0 10 10"></path>
<g class="terminal">
<path d="M80 301h4.25"></path>
<path d="M121.25 301h4.25"></path>
<rect x="84.25" y="290" width="37" height="22" rx="10" ry="10"></rect>
<text x="102.75" y="305">CI</text>
</g>
<path d="M125.5 301a10 10 0 0 0 10 -10v-40a10 10 0 0 1 10 -10"></path>
<path d="M60 241a10 10 0 0 1 10 10v70a10 10 0 0 0 10 10"></path>
<g class="terminal">
<path d="M80 331h4.25"></path>
<path d="M121.25 331h4.25"></path>
<rect x="84.25" y="320" width="37" height="22" rx="10" ry="10"></rect>
<text x="102.75" y="335">CS</text>
</g>
<path d="M125.5 331a10 10 0 0 0 10 -10v-70a10 10 0 0 1 10 -10"></path>
<path d="M60 241a10 10 0 0 1 10 10v100a10 10 0 0 0 10 10"></path>
<g class="terminal">
<path d="M80 361h4.25"></path>
<path d="M121.25 361h4.25"></path>
<rect x="84.25" y="350" width="37" height="22" rx="10" ry="10"></rect>
<text x="102.75" y="365">CC</text>
</g>
<path d="M125.5 361a10 10 0 0 0 10 -10v-100a10 10 0 0 1 10 -10"></path>
<path d="M60 241a10 10 0 0 1 10 10v130a10 10 0 0 0 10 10"></path>
<g class="terminal">
<path d="M80 391h4.25"></path>
<path d="M121.25 391h4.25"></path>
<rect x="84.25" y="380" width="37" height="22" rx="10" ry="10"></rect>
<text x="102.75" y="395">NS</text>
</g>
<path d="M125.5 391a10 10 0 0 0 10 -10v-130a10 10 0 0 1 10 -10"></path>
<path d="M60 241a10 10 0 0 1 10 10v160a10 10 0 0 0 10 10"></path>
<g class="terminal">
<path d="M80 421h4.25"></path>
<path d="M121.25 421h4.25"></path>
<rect x="84.25" y="410" width="37" height="22" rx="10" ry="10"></rect>
<text x="102.75" y="425">CB</text>
</g>
<path d="M125.5 421a10 10 0 0 0 10 -10v-160a10 10 0 0 1 10 -10"></path>
</g>
<path d="M145.5 241h10"></path>
<g class="non-terminal">
<path d="M155.5 241h0"></path>
<path d="M209.5 241h0"></path>
<rect x="155.5" y="230" width="54" height="22"></rect>
<text x="182.5" y="245">1..8</text>
</g>
</g>
<path d="M209.5 241h10"></path>
<path d="M60 241a10 10 0 0 0 -10 10v179a10 10 0 0 0 10 10"></path>
<g>
<path d="M60 440h149.5"></path>
</g>
<path d="M209.5 440a10 10 0 0 0 10 -10v-179a10 10 0 0 0 -10 -10"></path>
</g>
<path d="M219.5 241h10"></path>
<path d="M 229.5 241 h 20 m -10 -10 v 20 m 10 -20 v 20"></path>
</g>
</svg>