<svg xmlns="http://www.w3.org/2000/svg" class="railroad-diagram" width="577" height="722" viewBox="0 0 577 722">
<style>
/* <![CDATA[ */
svg.railroad-diagram {
    background-color: hsl(30,20%,95%);
}
svg.railroad-diagram path {
    stroke-width: 3;
    stroke: black;
    fill: rgba(0,0,0,0);
}
svg.railroad-diagram text {
    font: bold 14px monospace;
    text-anchor: middle;
}
svg.railroad-diagram text.diagram-text {
    font-size: 12px;
}
svg.railroad-diagram text.diagram-arrow {
    font-size: 16px;
}
svg.railroad-diagram text.label {
    text-anchor: start;
}
svg.railroad-diagram text.comment {
    font: italic 12px monospace;
}
svg.railroad-diagram g.non-terminal text {
    /*font-style: italic;*/
}
svg.railroad-diagram rect {
    stroke-width: 3;
    stroke: black;
    fill: hsl(120,100%,90%);
}
svg.railroad-diagram path.diagram-text {
    stroke-width: 3;
    stroke: black;
    fill: white;
    cursor: help;
}
svg.railroad-diagram g.diagram-text:hover path.diagram-text {
    fill: #eee;
}
/* ]]> */
</style>
<g transform="translate(.5 .5)">
<g>
<path d="M20 171v20m10 -20v20m-10 -10h20"></path>
</g>
<path d="M40 181h10"></path>
<g>
<path d="M50 181h0"></path>
<path d="M137 181h0"></path>
<text x="93.5" y="186" class="comment">RMK section</text>
</g>
<path d="M137 181h10"></path>
<g>
<path d="M147 181h0"></path>
<path d="M537 181h0"></path>
<path d="M147 181a10 10 0 0 0 10 -10v-10a10 10 0 0 1 10 -10"></path>
<g class="terminal">
<path d="M167 151h135.25"></path>
<path d="M381.75 151h135.25"></path>
<rect x="302.25" y="140" width="79.5" height="22" rx="10" ry="10"></rect>
<text x="342" y="155">NOSPECI</text>
</g>
<path d="M517 151a10 10 0 0 1 10 10v10a10 10 0 0 0 10 10"></path>
<path d="M147 181a10 10 0 0 0 10 -10v-40a10 10 0 0 1 10 -10"></path>
<g class="terminal">
<path d="M167 121h148"></path>
<path d="M369 121h148"></path>
<rect x="315" y="110" width="54" height="22" rx="10" ry="10"></rect>
<text x="342" y="125">AO2A</text>
</g>
<path d="M517 121a10 10 0 0 1 10 10v40a10 10 0 0 0 10 10"></path>
<path d="M147 181a10 10 0 0 0 10 -10v-70a10 10 0 0 1 10 -10"></path>
<g class="terminal">
<path d="M167 91h148"></path>
<path d="M369 91h148"></path>
<rect x="315" y="80" width="54" height="22" rx="10" ry="10"></rect>
<text x="342" y="95">AO1A</text>
</g>
<path d="M517 91a10 10 0 0 1 10 10v70a10 10 0 0 0 10 10"></path>
<path d="M147 181a10 10 0 0 0 10 -10v-100a10 10 0 0 1 10 -10"></path>
<g class="terminal">
<path d="M167 61h152.25"></path>
<path d="M364.75 61h152.25"></path>
<rect x="319.25" y="50" width="45.5" height="22" rx="10" ry="10"></rect>
<text x="342" y="65">AO2</text>
</g>
<path d="M517 61a10 10 0 0 1 10 10v100a10 10 0 0 0 10 10"></path>
<path d="M147 181a10 10 0 0 0 10 -10v-130a10 10 0 0 1 10 -10"></path>
<g class="terminal">
<path d="M167 31h152.25"></path>
<path d="M364.75 31h152.25"></path>
<rect x="319.25" y="20" width="45.5" height="22" rx="10" ry="10"></rect>
<text x="342" y="35">AO1</text>
</g>
<path d="M517 31a10 10 0 0 1 10 10v130a10 10 0 0 0 10 10"></path>
<path d="M147 181h20"></path>
<g class="terminal">
<path d="M167 181h143.75"></path>
<path d="M373.25 181h143.75"></path>
<rect x="310.75" y="170" width="62.5" height="22" rx="10" ry="10"></rect>
<text x="342" y="185">RVRNO</text>
</g>
<path d="M517 181h20"></path>
<path d="M147 181a10 10 0 0 1 10 10v10a10 10 0 0 0 10 10"></path>
<g class="terminal">
<path d="M167 211h143.75"></path>
<path d="M373.25 211h143.75"></path>
<rect x="310.75" y="200" width="62.5" height="22" rx="10" ry="10"></rect>
<text x="342" y="215">PWINO</text>
</g>
<path d="M517 211a10 10 0 0 0 10 -10v-10a10 10 0 0 1 10 -10"></path>
<path d="M147 181a10 10 0 0 1 10 10v40a10 10 0 0 0 10 10"></path>
<g class="terminal">
<path d="M167 241h152.25"></path>
<path d="M364.75 241h152.25"></path>
<rect x="319.25" y="230" width="45.5" height="22" rx="10" ry="10"></rect>
<text x="342" y="245">PNO</text>
</g>
<path d="M517 241a10 10 0 0 0 10 -10v-40a10 10 0 0 1 10 -10"></path>
<path d="M147 181a10 10 0 0 1 10 10v70a10 10 0 0 0 10 10"></path>
<g class="terminal">
<path d="M167 271h139.5"></path>
<path d="M377.5 271h139.5"></path>
<rect x="306.5" y="260" width="71" height="22" rx="10" ry="10"></rect>
<text x="342" y="275">FZRANO</text>
</g>
<path d="M517 271a10 10 0 0 0 10 -10v-70a10 10 0 0 1 10 -10"></path>
<path d="M147 181a10 10 0 0 1 10 10v100a10 10 0 0 0 10 10"></path>
<g class="terminal">
<path d="M167 301h148"></path>
<path d="M369 301h148"></path>
<rect x="315" y="290" width="54" height="22" rx="10" ry="10"></rect>
<text x="342" y="305">TSNO</text>
</g>
<path d="M517 301a10 10 0 0 0 10 -10v-100a10 10 0 0 1 10 -10"></path>
<path d="M147 181a10 10 0 0 1 10 10v130a10 10 0 0 0 10 10"></path>
<g class="terminal">
<path d="M167 331h143.75"></path>
<path d="M373.25 331h143.75"></path>
<rect x="310.75" y="320" width="62.5" height="22" rx="10" ry="10"></rect>
<text x="342" y="335">SLPNO</text>
</g>
<path d="M517 331a10 10 0 0 0 10 -10v-130a10 10 0 0 1 10 -10"></path>
<path d="M147 181a10 10 0 0 1 10 10v160a10 10 0 0 0 10 10"></path>
<g class="terminal">
<path d="M167 361h143.75"></path>
<path d="M373.25 361h143.75"></path>
<rect x="310.75" y="350" width="62.5" height="22" rx="10" ry="10"></rect>
<text x="342" y="365">FROIN</text>
</g>
<path d="M517 361a10 10 0 0 0 10 -10v-160a10 10 0 0 1 10 -10"></path>
<path d="M147 181a10 10 0 0 1 10 10v310a10 10 0 0 0 10 10"></path>
<g>
<path d="M167 511h71.75"></path>
<path d="M445.25 511h71.75"></path>
<g>
<path d="M238.75 511h0"></path>
<path d="M332.75 511h0"></path>
<path d="M238.75 511a10 10 0 0 0 10 -10v-10a10 10 0 0 1 10 -10"></path>
<g class="terminal">
<path d="M258.75 481h0"></path>
<path d="M312.75 481h0"></path>
<rect x="258.75" y="470" width="54" height="22" rx="10" ry="10"></rect>
<text x="285.75" y="485">PRES</text>
</g>
<path d="M312.75 481a10 10 0 0 1 10 10v10a10 10 0 0 0 10 10"></path>
<path d="M238.75 511a10 10 0 0 0 10 -10v-40a10 10 0 0 1 10 -10"></path>
<g class="terminal">
<path d="M258.75 451h0"></path>
<path d="M312.75 451h0"></path>
<rect x="258.75" y="440" width="54" height="22" rx="10" ry="10"></rect>
<text x="285.75" y="455">PCPN</text>
</g>
<path d="M312.75 451a10 10 0 0 1 10 10v40a10 10 0 0 0 10 10"></path>
<path d="M238.75 511a10 10 0 0 0 10 -10v-70a10 10 0 0 1 10 -10"></path>
<g class="terminal">
<path d="M258.75 421h4.25"></path>
<path d="M308.5 421h4.25"></path>
<rect x="263" y="410" width="45.5" height="22" rx="10" ry="10"></rect>
<text x="285.75" y="425">ICG</text>
</g>
<path d="M312.75 421a10 10 0 0 1 10 10v70a10 10 0 0 0 10 10"></path>
<path d="M238.75 511a10 10 0 0 0 10 -10v-100a10 10 0 0 1 10 -10"></path>
<g class="terminal">
<path d="M258.75 391h4.25"></path>
<path d="M308.5 391h4.25"></path>
<rect x="263" y="380" width="45.5" height="22" rx="10" ry="10"></rect>
<text x="285.75" y="395">CLD</text>
</g>
<path d="M312.75 391a10 10 0 0 1 10 10v100a10 10 0 0 0 10 10"></path>
<path d="M238.75 511h20"></path>
<g class="terminal">
<path d="M258.75 511h4.25"></path>
<path d="M308.5 511h4.25"></path>
<rect x="263" y="500" width="45.5" height="22" rx="10" ry="10"></rect>
<text x="285.75" y="515">RVR</text>
</g>
<path d="M312.75 511h20"></path>
<path d="M238.75 511a10 10 0 0 1 10 10v10a10 10 0 0 0 10 10"></path>
<g class="terminal">
<path d="M258.75 541h12.75"></path>
<path d="M300 541h12.75"></path>
<rect x="271.5" y="530" width="28.5" height="22" rx="10" ry="10"></rect>
<text x="285.75" y="545">T</text>
</g>
<path d="M312.75 541a10 10 0 0 0 10 -10v-10a10 10 0 0 1 10 -10"></path>
<path d="M238.75 511a10 10 0 0 1 10 10v40a10 10 0 0 0 10 10"></path>
<g class="terminal">
<path d="M258.75 571h8.5"></path>
<path d="M304.25 571h8.5"></path>
<rect x="267.25" y="560" width="37" height="22" rx="10" ry="10"></rect>
<text x="285.75" y="575">TD</text>
</g>
<path d="M312.75 571a10 10 0 0 0 10 -10v-40a10 10 0 0 1 10 -10"></path>
<path d="M238.75 511a10 10 0 0 1 10 10v70a10 10 0 0 0 10 10"></path>
<g class="terminal">
<path d="M258.75 601h4.25"></path>
<path d="M308.5 601h4.25"></path>
<rect x="263" y="590" width="45.5" height="22" rx="10" ry="10"></rect>
<text x="285.75" y="605">VIS</text>
</g>
<path d="M312.75 601a10 10 0 0 0 10 -10v-70a10 10 0 0 1 10 -10"></path>
<path d="M238.75 511a10 10 0 0 1 10 10v100a10 10 0 0 0 10 10"></path>
<g class="terminal">
<path d="M258.75 631h4.25"></path>
<path d="M308.5 631h4.25"></path>
<rect x="263" y="620" width="45.5" height="22" rx="10" ry="10"></rect>
<text x="285.75" y="635">WND</text>
</g>
<path d="M312.75 631a10 10 0 0 0 10 -10v-100a10 10 0 0 1 10 -10"></path>
<path d="M238.75 511a10 10 0 0 1 10 10v130a10 10 0 0 0 10 10"></path>
<g class="terminal">
<path d="M258.75 661h8.5"></path>
<path d="M304.25 661h8.5"></path>
<rect x="267.25" y="650" width="37" height="22" rx="10" ry="10"></rect>
<text x="285.75" y="665">WX</text>
</g>
<path d="M312.75 661a10 10 0 0 0 10 -10v-130a10 10 0 0 1 10 -10"></path>
</g>
<path d="M332.75 511h10"></path>
<g class="terminal">
<path d="M342.75 511h0"></path>
<path d="M371.25 511h0"></path>
<rect x="342.75" y="500" width="28.5" height="22" rx="10" ry="10"></rect>
<text x="357" y="515"> </text>
</g>
<path d="M371.25 511h10"></path>
<path d="M381.25 511h10"></path>
<g class="terminal">
<path d="M391.25 511h0"></path>
<path d="M445.25 511h0"></path>
<rect x="391.25" y="500" width="54" height="22" rx="10" ry="10"></rect>
<text x="418.25" y="515">MISG</text>
</g>
</g>
<path d="M517 511a10 10 0 0 0 10 -10v-310a10 10 0 0 1 10 -10"></path>
<path d="M147 181a10 10 0 0 1 10 10v490a10 10 0 0 0 10 10"></path>
<g>
<path d="M167 691h0"></path>
<path d="M517 691h0"></path>
<g class="terminal">
<path d="M167 691h0"></path>
<path d="M246.5 691h0"></path>
<rect x="167" y="680" width="79.5" height="22" rx="10" ry="10"></rect>
<text x="206.75" y="695">TS/LTNG</text>
</g>
<path d="M246.5 691h10"></path>
<path d="M256.5 691h10"></path>
<g class="terminal">
<path d="M266.5 691h0"></path>
<path d="M295 691h0"></path>
<rect x="266.5" y="680" width="28.5" height="22" rx="10" ry="10"></rect>
<text x="280.75" y="695"> </text>
</g>
<path d="M295 691h10"></path>
<path d="M305 691h10"></path>
<g class="terminal">
<path d="M315 691h0"></path>
<path d="M377.5 691h0"></path>
<rect x="315" y="680" width="62.5" height="22" rx="10" ry="10"></rect>
<text x="346.25" y="695">TEMPO</text>
</g>
<path d="M377.5 691h10"></path>
<path d="M387.5 691h10"></path>
<g class="terminal">
<path d="M397.5 691h0"></path>
<path d="M426 691h0"></path>
<rect x="397.5" y="680" width="28.5" height="22" rx="10" ry="10"></rect>
<text x="411.75" y="695"> </text>
</g>
<path d="M426 691h10"></path>
<path d="M436 691h10"></path>
<g class="terminal">
<path d="M446 691h0"></path>
<path d="M517 691h0"></path>
<rect x="446" y="680" width="71" height="22" rx="10" ry="10"></rect>
<text x="481.5" y="695">UNAVBL</text>
</g>
</g>
<path d="M517 691a10 10 0 0 0 10 -10v-490a10 10 0 0 1 10 -10"></path>
</g>
<path d="M 537 181 h 20 m -10 -10 v 20 m 10 -20 v 20"></path>
</g>
</svg>