<svg xmlns="http://www.w3.org/2000/svg" class="railroad-diagram" width="248" height="432" viewBox="0 0 248 432">
<style>
/* <![CDATA[ */
svg.railroad-diagram {
    background-color: hsl(30,20%,95%);
}
svg.railroad-diagram path {
    stroke-width: 3;
    stroke: black;
    fill: rgba(0,0,0,0);
}
svg.railroad-diagram text {
    font: bold 14px monospace;
    text-anchor: middle;
}
svg.railroad-diagram text.diagram-text {
    font-size: 12px;
}
svg.railroad-diagram text.diagram-arrow {
    font-size: 16px;
}
svg.railroad-diagram text.label {
    text-anchor: start;
}
svg.railroad-diagram text.comment {
    font: italic 12px monospace;
}
svg.railroad-diagram g.non-terminal text {
    /*font-style: italic;*/
}
svg.railroad-diagram rect {
    stroke-width: 3;
    stroke: black;
    fill: hsl(120,100%,90%);
}
svg.railroad-diagram path.diagram-text {
    stroke-width: 3;
    stroke: black;
    fill: white;
    cursor: help;
}
svg.railroad-diagram g.diagram-text:hover path.diagram-text {
    fill: #eee;
}
/* ]]> */
</style>
<g transform="translate(.5 .5)">
<g>
<path d="M20 191v20m10 -20v20m-10 -10h20"></path>
</g>
<g>
<path d="M40 201h0"></path>
<path d="M208 201h0"></path>
<path d="M40 201a10 10 0 0 0 10 -10v0a10 10 0 0 1 10 -10"></path>
<g class="terminal">
<path d="M60 181h41.25"></path>
<path d="M146.75 181h41.25"></path>
<rect x="101.25" y="170" width="45.5" height="22" rx="10" ry="10"></rect>
<text x="124" y="185">CNL</text>
</g>
<path d="M188 181a10 10 0 0 1 10 10v0a10 10 0 0 0 10 10"></path>
<path d="M40 201a10 10 0 0 0 10 -10v-30a10 10 0 0 1 10 -10"></path>
<g class="terminal">
<path d="M60 151h41.25"></path>
<path d="M146.75 151h41.25"></path>
<rect x="101.25" y="140" width="45.5" height="22" rx="10" ry="10"></rect>
<text x="124" y="155">NIL</text>
</g>
<path d="M188 151a10 10 0 0 1 10 10v30a10 10 0 0 0 10 10"></path>
<path d="M40 201a10 10 0 0 0 10 -10v-60a10 10 0 0 1 10 -10"></path>
<g class="terminal">
<path d="M60 121h41.25"></path>
<path d="M146.75 121h41.25"></path>
<rect x="101.25" y="110" width="45.5" height="22" rx="10" ry="10"></rect>
<text x="124" y="125">AMD</text>
</g>
<path d="M188 121a10 10 0 0 1 10 10v60a10 10 0 0 0 10 10"></path>
<path d="M40 201a10 10 0 0 0 10 -10v-90a10 10 0 0 1 10 -10"></path>
<g class="terminal">
<path d="M60 91h41.25"></path>
<path d="M146.75 91h41.25"></path>
<rect x="101.25" y="80" width="45.5" height="22" rx="10" ry="10"></rect>
<text x="124" y="95">TAF</text>
</g>
<path d="M188 91a10 10 0 0 1 10 10v90a10 10 0 0 0 10 10"></path>
<path d="M40 201a10 10 0 0 0 10 -10v-120a10 10 0 0 1 10 -10"></path>
<g class="terminal">
<path d="M60 61h32.75"></path>
<path d="M155.25 61h32.75"></path>
<rect x="92.75" y="50" width="62.5" height="22" rx="10" ry="10"></rect>
<text x="124" y="65">SPECI</text>
</g>
<path d="M188 61a10 10 0 0 1 10 10v120a10 10 0 0 0 10 10"></path>
<path d="M40 201a10 10 0 0 0 10 -10v-150a10 10 0 0 1 10 -10"></path>
<g class="terminal">
<path d="M60 31h32.75"></path>
<path d="M155.25 31h32.75"></path>
<rect x="92.75" y="20" width="62.5" height="22" rx="10" ry="10"></rect>
<text x="124" y="35">METAR</text>
</g>
<path d="M188 31a10 10 0 0 1 10 10v150a10 10 0 0 0 10 10"></path>
<path d="M40 201h20"></path>
<g>
<path d="M60 201h128"></path>
</g>
<path d="M188 201h20"></path>
<path d="M40 201a10 10 0 0 1 10 10v0a10 10 0 0 0 10 10"></path>
<g class="terminal">
<path d="M60 221h41.25"></path>
<path d="M146.75 221h41.25"></path>
<rect x="101.25" y="210" width="45.5" height="22" rx="10" ry="10"></rect>
<text x="124" y="225">COR</text>
</g>
<path d="M188 221a10 10 0 0 0 10 -10v0a10 10 0 0 1 10 -10"></path>
<path d="M40 201a10 10 0 0 1 10 10v30a10 10 0 0 0 10 10"></path>
<g class="terminal">
<path d="M60 251h37"></path>
<path d="M151 251h37"></path>
<rect x="97" y="240" width="54" height="22" rx="10" ry="10"></rect>
<text x="124" y="255">AUTO</text>
</g>
<path d="M188 251a10 10 0 0 0 10 -10v-30a10 10 0 0 1 10 -10"></path>
<path d="M40 201a10 10 0 0 1 10 10v60a10 10 0 0 0 10 10"></path>
<g>
<path d="M60 281h0"></path>
<path d="M188 281h0"></path>
<g>
<path d="M60 281h0"></path>
<path d="M188 281h0"></path>
<path d="M60 281h20"></path>
<g class="terminal">
<path d="M80 281h0"></path>
<path d="M168 281h0"></path>
<rect x="80" y="270" width="88" height="22" rx="10" ry="10"></rect>
<text x="124" y="285">R/SNOCLO</text>
</g>
<path d="M168 281h20"></path>
<path d="M60 281a10 10 0 0 1 10 10v10a10 10 0 0 0 10 10"></path>
<g class="terminal">
<path d="M80 311h8.5"></path>
<path d="M159.5 311h8.5"></path>
<rect x="88.5" y="300" width="71" height="22" rx="10" ry="10"></rect>
<text x="124" y="315">SNOCLO</text>
</g>
<path d="M168 311a10 10 0 0 0 10 -10v-10a10 10 0 0 1 10 -10"></path>
</g>
</g>
<path d="M188 281a10 10 0 0 0 10 -10v-60a10 10 0 0 1 10 -10"></path>
<path d="M40 201a10 10 0 0 1 10 10v120a10 10 0 0 0 10 10"></path>
<g class="terminal">
<path d="M60 341h32.75"></path>
<path d="M155.25 341h32.75"></path>
<rect x="92.75" y="330" width="62.5" height="22" rx="10" ry="10"></rect>
<text x="124" y="345">CAVOK</text>
</g>
<path d="M188 341a10 10 0 0 0 10 -10v-120a10 10 0 0 1 10 -10"></path>
<path d="M40 201a10 10 0 0 1 10 10v150a10 10 0 0 0 10 10"></path>
<g class="terminal">
<path d="M60 371h41.25"></path>
<path d="M146.75 371h41.25"></path>
<rect x="101.25" y="360" width="45.5" height="22" rx="10" ry="10"></rect>
<text x="124" y="375">NSW</text>
</g>
<path d="M188 371a10 10 0 0 0 10 -10v-150a10 10 0 0 1 10 -10"></path>
<path d="M40 201a10 10 0 0 1 10 10v180a10 10 0 0 0 10 10"></path>
<g class="terminal">
<path d="M60 401h41.25"></path>
<path d="M146.75 401h41.25"></path>
<rect x="101.25" y="390" width="45.5" height="22" rx="10" ry="10"></rect>
<text x="124" y="405">RMK</text>
</g>
<path d="M188 401a10 10 0 0 0 10 -10v-180a10 10 0 0 1 10 -10"></path>
</g>
<path d="M 208 201 h 20 m -10 -10 v 20 m 10 -20 v 20"></path>
</g>
</svg>
