<svg xmlns="http://www.w3.org/2000/svg" class="railroad-diagram" width="433.5" height="632" viewBox="0 0 433.5 632">
<style>
/* <![CDATA[ */
svg.railroad-diagram {
    background-color: hsl(30,20%,95%);
}
svg.railroad-diagram path {
    stroke-width: 3;
    stroke: black;
    fill: rgba(0,0,0,0);
}
svg.railroad-diagram text {
    font: bold 14px monospace;
    text-anchor: middle;
}
svg.railroad-diagram text.diagram-text {
    font-size: 12px;
}
svg.railroad-diagram text.diagram-arrow {
    font-size: 16px;
}
svg.railroad-diagram text.label {
    text-anchor: start;
}
svg.railroad-diagram text.comment {
    font: italic 12px monospace;
}
svg.railroad-diagram g.non-terminal text {
    /*font-style: italic;*/
}
svg.railroad-diagram rect {
    stroke-width: 3;
    stroke: black;
    fill: hsl(120,100%,90%);
}
svg.railroad-diagram path.diagram-text {
    stroke-width: 3;
    stroke: black;
    fill: white;
    cursor: help;
}
svg.railroad-diagram g.diagram-text:hover path.diagram-text {
    fill: #eee;
}
/* ]]> */
</style>
<g transform="translate(.5 .5)">
<g>
<path d="M20 171v20m10 -20v20m-10 -10h20"></path>
</g>
<path d="M40 181h10"></path>
<g>
<path d="M50 181h0"></path>
<path d="M137 181h0"></path>
<text x="93.5" y="186" class="comment">RMK section</text>
</g>
<path d="M137 181h10"></path>
<g>
<path d="M147 181h0"></path>
<path d="M393.5 181h0"></path>
<path d="M147 181a10 10 0 0 0 10 -10v-10a10 10 0 0 1 10 -10"></path>
<g class="terminal">
<path d="M167 151h72"></path>
<path d="M301.5 151h72"></path>
<rect x="239" y="140" width="62.5" height="22" rx="10" ry="10"></rect>
<text x="270.25" y="155">PWINO</text>
</g>
<path d="M373.5 151a10 10 0 0 1 10 10v10a10 10 0 0 0 10 10"></path>
<path d="M147 181a10 10 0 0 0 10 -10v-40a10 10 0 0 1 10 -10"></path>
<g class="terminal">
<path d="M167 121h72"></path>
<path d="M301.5 121h72"></path>
<rect x="239" y="110" width="62.5" height="22" rx="10" ry="10"></rect>
<text x="270.25" y="125">RVRNO</text>
</g>
<path d="M373.5 121a10 10 0 0 1 10 10v40a10 10 0 0 0 10 10"></path>
<path d="M147 181a10 10 0 0 0 10 -10v-70a10 10 0 0 1 10 -10"></path>
<g class="terminal">
<path d="M167 91h63.5"></path>
<path d="M310 91h63.5"></path>
<rect x="230.5" y="80" width="79.5" height="22" rx="10" ry="10"></rect>
<text x="270.25" y="95">NOSPECI</text>
</g>
<path d="M373.5 91a10 10 0 0 1 10 10v70a10 10 0 0 0 10 10"></path>
<path d="M147 181a10 10 0 0 0 10 -10v-100a10 10 0 0 1 10 -10"></path>
<g class="terminal">
<path d="M167 61h80.5"></path>
<path d="M293 61h80.5"></path>
<rect x="247.5" y="50" width="45.5" height="22" rx="10" ry="10"></rect>
<text x="270.25" y="65">AO2</text>
</g>
<path d="M373.5 61a10 10 0 0 1 10 10v100a10 10 0 0 0 10 10"></path>
<path d="M147 181a10 10 0 0 0 10 -10v-130a10 10 0 0 1 10 -10"></path>
<g class="terminal">
<path d="M167 31h80.5"></path>
<path d="M293 31h80.5"></path>
<rect x="247.5" y="20" width="45.5" height="22" rx="10" ry="10"></rect>
<text x="270.25" y="35">AO1</text>
</g>
<path d="M373.5 31a10 10 0 0 1 10 10v130a10 10 0 0 0 10 10"></path>
<path d="M147 181h20"></path>
<g class="terminal">
<path d="M167 181h80.5"></path>
<path d="M293 181h80.5"></path>
<rect x="247.5" y="170" width="45.5" height="22" rx="10" ry="10"></rect>
<text x="270.25" y="185">PNO</text>
</g>
<path d="M373.5 181h20"></path>
<path d="M147 181a10 10 0 0 1 10 10v10a10 10 0 0 0 10 10"></path>
<g class="terminal">
<path d="M167 211h67.75"></path>
<path d="M305.75 211h67.75"></path>
<rect x="234.75" y="200" width="71" height="22" rx="10" ry="10"></rect>
<text x="270.25" y="215">FZRANO</text>
</g>
<path d="M373.5 211a10 10 0 0 0 10 -10v-10a10 10 0 0 1 10 -10"></path>
<path d="M147 181a10 10 0 0 1 10 10v40a10 10 0 0 0 10 10"></path>
<g class="terminal">
<path d="M167 241h76.25"></path>
<path d="M297.25 241h76.25"></path>
<rect x="243.25" y="230" width="54" height="22" rx="10" ry="10"></rect>
<text x="270.25" y="245">TSNO</text>
</g>
<path d="M373.5 241a10 10 0 0 0 10 -10v-40a10 10 0 0 1 10 -10"></path>
<path d="M147 181a10 10 0 0 1 10 10v70a10 10 0 0 0 10 10"></path>
<g class="terminal">
<path d="M167 271h72"></path>
<path d="M301.5 271h72"></path>
<rect x="239" y="260" width="62.5" height="22" rx="10" ry="10"></rect>
<text x="270.25" y="275">SLPNO</text>
</g>
<path d="M373.5 271a10 10 0 0 0 10 -10v-70a10 10 0 0 1 10 -10"></path>
<path d="M147 181a10 10 0 0 1 10 10v100a10 10 0 0 0 10 10"></path>
<g class="terminal">
<path d="M167 301h72"></path>
<path d="M301.5 301h72"></path>
<rect x="239" y="290" width="62.5" height="22" rx="10" ry="10"></rect>
<text x="270.25" y="305">FROIN</text>
</g>
<path d="M373.5 301a10 10 0 0 0 10 -10v-100a10 10 0 0 1 10 -10"></path>
<path d="M147 181a10 10 0 0 1 10 10v250a10 10 0 0 0 10 10"></path>
<g>
<path d="M167 451h0"></path>
<path d="M373.5 451h0"></path>
<g>
<path d="M167 451h0"></path>
<path d="M261 451h0"></path>
<path d="M167 451a10 10 0 0 0 10 -10v-10a10 10 0 0 1 10 -10"></path>
<g class="terminal">
<path d="M187 421h0"></path>
<path d="M241 421h0"></path>
<rect x="187" y="410" width="54" height="22" rx="10" ry="10"></rect>
<text x="214" y="425">PRES</text>
</g>
<path d="M241 421a10 10 0 0 1 10 10v10a10 10 0 0 0 10 10"></path>
<path d="M167 451a10 10 0 0 0 10 -10v-40a10 10 0 0 1 10 -10"></path>
<g class="terminal">
<path d="M187 391h0"></path>
<path d="M241 391h0"></path>
<rect x="187" y="380" width="54" height="22" rx="10" ry="10"></rect>
<text x="214" y="395">PCPN</text>
</g>
<path d="M241 391a10 10 0 0 1 10 10v40a10 10 0 0 0 10 10"></path>
<path d="M167 451a10 10 0 0 0 10 -10v-70a10 10 0 0 1 10 -10"></path>
<g class="terminal">
<path d="M187 361h4.25"></path>
<path d="M236.75 361h4.25"></path>
<rect x="191.25" y="350" width="45.5" height="22" rx="10" ry="10"></rect>
<text x="214" y="365">ICG</text>
</g>
<path d="M241 361a10 10 0 0 1 10 10v70a10 10 0 0 0 10 10"></path>
<path d="M167 451a10 10 0 0 0 10 -10v-100a10 10 0 0 1 10 -10"></path>
<g class="terminal">
<path d="M187 331h4.25"></path>
<path d="M236.75 331h4.25"></path>
<rect x="191.25" y="320" width="45.5" height="22" rx="10" ry="10"></rect>
<text x="214" y="335">CLD</text>
</g>
<path d="M241 331a10 10 0 0 1 10 10v100a10 10 0 0 0 10 10"></path>
<path d="M167 451h20"></path>
<g class="terminal">
<path d="M187 451h4.25"></path>
<path d="M236.75 451h4.25"></path>
<rect x="191.25" y="440" width="45.5" height="22" rx="10" ry="10"></rect>
<text x="214" y="455">RVR</text>
</g>
<path d="M241 451h20"></path>
<path d="M167 451a10 10 0 0 1 10 10v10a10 10 0 0 0 10 10"></path>
<g class="terminal">
<path d="M187 481h12.75"></path>
<path d="M228.25 481h12.75"></path>
<rect x="199.75" y="470" width="28.5" height="22" rx="10" ry="10"></rect>
<text x="214" y="485">T</text>
</g>
<path d="M241 481a10 10 0 0 0 10 -10v-10a10 10 0 0 1 10 -10"></path>
<path d="M167 451a10 10 0 0 1 10 10v40a10 10 0 0 0 10 10"></path>
<g class="terminal">
<path d="M187 511h8.5"></path>
<path d="M232.5 511h8.5"></path>
<rect x="195.5" y="500" width="37" height="22" rx="10" ry="10"></rect>
<text x="214" y="515">TD</text>
</g>
<path d="M241 511a10 10 0 0 0 10 -10v-40a10 10 0 0 1 10 -10"></path>
<path d="M167 451a10 10 0 0 1 10 10v70a10 10 0 0 0 10 10"></path>
<g class="terminal">
<path d="M187 541h4.25"></path>
<path d="M236.75 541h4.25"></path>
<rect x="191.25" y="530" width="45.5" height="22" rx="10" ry="10"></rect>
<text x="214" y="545">VIS</text>
</g>
<path d="M241 541a10 10 0 0 0 10 -10v-70a10 10 0 0 1 10 -10"></path>
<path d="M167 451a10 10 0 0 1 10 10v100a10 10 0 0 0 10 10"></path>
<g class="terminal">
<path d="M187 571h4.25"></path>
<path d="M236.75 571h4.25"></path>
<rect x="191.25" y="560" width="45.5" height="22" rx="10" ry="10"></rect>
<text x="214" y="575">WND</text>
</g>
<path d="M241 571a10 10 0 0 0 10 -10v-100a10 10 0 0 1 10 -10"></path>
<path d="M167 451a10 10 0 0 1 10 10v130a10 10 0 0 0 10 10"></path>
<g class="terminal">
<path d="M187 601h8.5"></path>
<path d="M232.5 601h8.5"></path>
<rect x="195.5" y="590" width="37" height="22" rx="10" ry="10"></rect>
<text x="214" y="605">WX</text>
</g>
<path d="M241 601a10 10 0 0 0 10 -10v-130a10 10 0 0 1 10 -10"></path>
</g>
<path d="M261 451h10"></path>
<g class="terminal">
<path d="M271 451h0"></path>
<path d="M299.5 451h0"></path>
<rect x="271" y="440" width="28.5" height="22" rx="10" ry="10"></rect>
<text x="285.25" y="455"> </text>
</g>
<path d="M299.5 451h10"></path>
<path d="M309.5 451h10"></path>
<g class="terminal">
<path d="M319.5 451h0"></path>
<path d="M373.5 451h0"></path>
<rect x="319.5" y="440" width="54" height="22" rx="10" ry="10"></rect>
<text x="346.5" y="455">MISG</text>
</g>
</g>
<path d="M373.5 451a10 10 0 0 0 10 -10v-250a10 10 0 0 1 10 -10"></path>
</g>
<path d="M 393.5 181 h 20 m -10 -10 v 20 m 10 -20 v 20"></path>
</g>
</svg>
