<svg xmlns="http://www.w3.org/2000/svg" class="railroad-diagram" width="306.5" height="362" viewBox="0 0 306.5 362">
<style>
/* <![CDATA[ */
svg.railroad-diagram {
    background-color: hsl(30,20%,95%);
}
svg.railroad-diagram path {
    stroke-width: 3;
    stroke: black;
    fill: rgba(0,0,0,0);
}
svg.railroad-diagram text {
    font: bold 14px monospace;
    text-anchor: middle;
}
svg.railroad-diagram text.diagram-text {
    font-size: 12px;
}
svg.railroad-diagram text.diagram-arrow {
    font-size: 16px;
}
svg.railroad-diagram text.label {
    text-anchor: start;
}
svg.railroad-diagram text.comment {
    font: italic 12px monospace;
}
svg.railroad-diagram g.non-terminal text {
    /*font-style: italic;*/
}
svg.railroad-diagram rect {
    stroke-width: 3;
    stroke: black;
    fill: hsl(120,100%,90%);
}
svg.railroad-diagram path.diagram-text {
    stroke-width: 3;
    stroke: black;
    fill: white;
    cursor: help;
}
svg.railroad-diagram g.diagram-text:hover path.diagram-text {
    fill: #eee;
}
/* ]]> */
</style>
<g transform="translate(.5 .5)">
<g>
<path d="M20 201v20m10 -20v20m-10 -10h20"></path>
</g>
<path d="M40 211h10"></path>
<g>
<path d="M50 211h0"></path>
<path d="M137 211h0"></path>
<text x="93.5" y="216" class="comment">RMK section</text>
</g>
<path d="M137 211h10"></path>
<g>
<path d="M147 211h0"></path>
<path d="M266.5 211h0"></path>
<path d="M147 211a10 10 0 0 0 10 -10v-10a10 10 0 0 1 10 -10"></path>
<g class="terminal">
<path d="M167 181h8.5"></path>
<path d="M238 181h8.5"></path>
<rect x="175.5" y="170" width="62.5" height="22" rx="10" ry="10"></rect>
<text x="206.75" y="185">RVRNO</text>
</g>
<path d="M246.5 181a10 10 0 0 1 10 10v10a10 10 0 0 0 10 10"></path>
<path d="M147 211a10 10 0 0 0 10 -10v-40a10 10 0 0 1 10 -10"></path>
<g class="terminal">
<path d="M167 151h4.25"></path>
<path d="M242.25 151h4.25"></path>
<rect x="171.25" y="140" width="71" height="22" rx="10" ry="10"></rect>
<text x="206.75" y="155">PRESRR</text>
</g>
<path d="M246.5 151a10 10 0 0 1 10 10v40a10 10 0 0 0 10 10"></path>
<path d="M147 211a10 10 0 0 0 10 -10v-70a10 10 0 0 1 10 -10"></path>
<g class="terminal">
<path d="M167 121h4.25"></path>
<path d="M242.25 121h4.25"></path>
<rect x="171.25" y="110" width="71" height="22" rx="10" ry="10"></rect>
<text x="206.75" y="125">PRESFR</text>
</g>
<path d="M246.5 121a10 10 0 0 1 10 10v70a10 10 0 0 0 10 10"></path>
<path d="M147 211a10 10 0 0 0 10 -10v-100a10 10 0 0 1 10 -10"></path>
<g class="terminal">
<path d="M167 91h0"></path>
<path d="M246.5 91h0"></path>
<rect x="167" y="80" width="79.5" height="22" rx="10" ry="10"></rect>
<text x="206.75" y="95">NOSPECI</text>
</g>
<path d="M246.5 91a10 10 0 0 1 10 10v100a10 10 0 0 0 10 10"></path>
<path d="M147 211a10 10 0 0 0 10 -10v-130a10 10 0 0 1 10 -10"></path>
<g class="terminal">
<path d="M167 61h17"></path>
<path d="M229.5 61h17"></path>
<rect x="184" y="50" width="45.5" height="22" rx="10" ry="10"></rect>
<text x="206.75" y="65">AO2</text>
</g>
<path d="M246.5 61a10 10 0 0 1 10 10v130a10 10 0 0 0 10 10"></path>
<path d="M147 211a10 10 0 0 0 10 -10v-160a10 10 0 0 1 10 -10"></path>
<g class="terminal">
<path d="M167 31h17"></path>
<path d="M229.5 31h17"></path>
<rect x="184" y="20" width="45.5" height="22" rx="10" ry="10"></rect>
<text x="206.75" y="35">AO1</text>
</g>
<path d="M246.5 31a10 10 0 0 1 10 10v160a10 10 0 0 0 10 10"></path>
<path d="M147 211h20"></path>
<g class="terminal">
<path d="M167 211h8.5"></path>
<path d="M238 211h8.5"></path>
<rect x="175.5" y="200" width="62.5" height="22" rx="10" ry="10"></rect>
<text x="206.75" y="215">PWINO</text>
</g>
<path d="M246.5 211h20"></path>
<path d="M147 211a10 10 0 0 1 10 10v10a10 10 0 0 0 10 10"></path>
<g class="terminal">
<path d="M167 241h17"></path>
<path d="M229.5 241h17"></path>
<rect x="184" y="230" width="45.5" height="22" rx="10" ry="10"></rect>
<text x="206.75" y="245">PNO</text>
</g>
<path d="M246.5 241a10 10 0 0 0 10 -10v-10a10 10 0 0 1 10 -10"></path>
<path d="M147 211a10 10 0 0 1 10 10v40a10 10 0 0 0 10 10"></path>
<g class="terminal">
<path d="M167 271h4.25"></path>
<path d="M242.25 271h4.25"></path>
<rect x="171.25" y="260" width="71" height="22" rx="10" ry="10"></rect>
<text x="206.75" y="275">FZRANO</text>
</g>
<path d="M246.5 271a10 10 0 0 0 10 -10v-40a10 10 0 0 1 10 -10"></path>
<path d="M147 211a10 10 0 0 1 10 10v70a10 10 0 0 0 10 10"></path>
<g class="terminal">
<path d="M167 301h12.75"></path>
<path d="M233.75 301h12.75"></path>
<rect x="179.75" y="290" width="54" height="22" rx="10" ry="10"></rect>
<text x="206.75" y="305">TSNO</text>
</g>
<path d="M246.5 301a10 10 0 0 0 10 -10v-70a10 10 0 0 1 10 -10"></path>
<path d="M147 211a10 10 0 0 1 10 10v100a10 10 0 0 0 10 10"></path>
<g class="terminal">
<path d="M167 331h8.5"></path>
<path d="M238 331h8.5"></path>
<rect x="175.5" y="320" width="62.5" height="22" rx="10" ry="10"></rect>
<text x="206.75" y="335">SLPNO</text>
</g>
<path d="M246.5 331a10 10 0 0 0 10 -10v-100a10 10 0 0 1 10 -10"></path>
</g>
<path d="M 266.5 211 h 20 m -10 -10 v 20 m 10 -20 v 20"></path>
</g>
</svg>
