<svg xmlns="http://www.w3.org/2000/svg" class="railroad-diagram" width="1107.5" height="172" viewBox="0 0 1107.5 172">
<style>
/* <![CDATA[ */
svg.railroad-diagram {
    background-color: hsl(30,20%,95%);
}
svg.railroad-diagram path {
    stroke-width: 3;
    stroke: black;
    fill: rgba(0,0,0,0);
}
svg.railroad-diagram text {
    font: bold 14px monospace;
    text-anchor: middle;
}
svg.railroad-diagram text.diagram-text {
    font-size: 12px;
}
svg.railroad-diagram text.diagram-arrow {
    font-size: 16px;
}
svg.railroad-diagram text.label {
    text-anchor: start;
}
svg.railroad-diagram text.comment {
    font: italic 12px monospace;
}
svg.railroad-diagram g.non-terminal text {
    /*font-style: italic;*/
}
svg.railroad-diagram rect {
    stroke-width: 3;
    stroke: black;
    fill: hsl(120,100%,90%);
}
svg.railroad-diagram path.diagram-text {
    stroke-width: 3;
    stroke: black;
    fill: white;
    cursor: help;
}
svg.railroad-diagram g.diagram-text:hover path.diagram-text {
    fill: #eee;
}
/* ]]> */
</style>
<g transform="translate(.5 .5)">
<g>
<path d="M20 101v20m10 -20v20m-10 -10h20"></path>
</g>
<g>
<path d="M40 111h0"></path>
<path d="M1067.5 111h0"></path>
<path d="M40 111a10 10 0 0 0 10 -10v-60a10 10 0 0 1 10 -10"></path>
<g class="terminal">
<path d="M60 31h462.5"></path>
<path d="M585 31h462.5"></path>
<rect x="522.5" y="20" width="62.5" height="22" rx="10" ry="10"></rect>
<text x="553.75" y="35">NOSIG</text>
</g>
<path d="M1047.5 31a10 10 0 0 1 10 10v60a10 10 0 0 0 10 10"></path>
<path d="M40 111h20"></path>
<g>
<path d="M60 111h0"></path>
<g>
<path d="M60 111h10"></path>
<path d="M1037.5 111h10"></path>
<g>
<path d="M70 111h0"></path>
<path d="M172.5 111h0"></path>
<path d="M70 111a10 10 0 0 0 10 -10v-10a10 10 0 0 1 10 -10"></path>
<g class="terminal">
<path d="M90 81h0"></path>
<path d="M152.5 81h0"></path>
<rect x="90" y="70" width="62.5" height="22" rx="10" ry="10"></rect>
<text x="121.25" y="85">BECMG</text>
</g>
<path d="M152.5 81a10 10 0 0 1 10 10v10a10 10 0 0 0 10 10"></path>
<path d="M70 111h20"></path>
<g class="terminal">
<path d="M90 111h0"></path>
<path d="M152.5 111h0"></path>
<rect x="90" y="100" width="62.5" height="22" rx="10" ry="10"></rect>
<text x="121.25" y="115">TEMPO</text>
</g>
<path d="M152.5 111h20"></path>
<path d="M70 111a10 10 0 0 1 10 10v10a10 10 0 0 0 10 10"></path>
<g class="terminal">
<path d="M90 141h0"></path>
<path d="M152.5 141h0"></path>
<rect x="90" y="130" width="62.5" height="22" rx="10" ry="10"></rect>
<text x="121.25" y="145">INTER</text>
</g>
<path d="M152.5 141a10 10 0 0 0 10 -10v-10a10 10 0 0 1 10 -10"></path>
</g>
<g>
<path d="M172.5 111h0"></path>
<path d="M434.5 111h0"></path>
<path d="M172.5 111a10 10 0 0 0 10 -10v0a10 10 0 0 1 10 -10"></path>
<g class="non-terminal">
<path d="M192.5 91h75.5"></path>
<path d="M339 91h75.5"></path>
<rect x="268" y="80" width="71" height="22"></rect>
<text x="303.5" y="95">ATxxxx</text>
</g>
<path d="M414.5 91a10 10 0 0 1 10 10v0a10 10 0 0 0 10 10"></path>
<path d="M172.5 111h20"></path>
<g>
<path d="M192.5 111h0"></path>
<path d="M414.5 111h0"></path>
<g>
<path d="M192.5 111h0"></path>
<path d="M303.5 111h0"></path>
<path d="M192.5 111h20"></path>
<g>
<path d="M212.5 111h71"></path>
</g>
<path d="M283.5 111h20"></path>
<path d="M192.5 111a10 10 0 0 1 10 10v0a10 10 0 0 0 10 10"></path>
<g class="non-terminal">
<path d="M212.5 131h0"></path>
<path d="M283.5 131h0"></path>
<rect x="212.5" y="120" width="71" height="22"></rect>
<text x="248" y="135">FMxxxx</text>
</g>
<path d="M283.5 131a10 10 0 0 0 10 -10v0a10 10 0 0 1 10 -10"></path>
</g>
<g>
<path d="M303.5 111h0"></path>
<path d="M414.5 111h0"></path>
<path d="M303.5 111h20"></path>
<g>
<path d="M323.5 111h71"></path>
</g>
<path d="M394.5 111h20"></path>
<path d="M303.5 111a10 10 0 0 1 10 10v0a10 10 0 0 0 10 10"></path>
<g class="non-terminal">
<path d="M323.5 131h0"></path>
<path d="M394.5 131h0"></path>
<rect x="323.5" y="120" width="71" height="22"></rect>
<text x="359" y="135">TLxxxx</text>
</g>
<path d="M394.5 131a10 10 0 0 0 10 -10v0a10 10 0 0 1 10 -10"></path>
</g>
</g>
<path d="M414.5 111h20"></path>
</g>
<g>
<path d="M434.5 111h0"></path>
<path d="M528.5 111h0"></path>
<path d="M434.5 111a10 10 0 0 0 10 -10v0a10 10 0 0 1 10 -10"></path>
<g>
<path d="M454.5 91h54"></path>
</g>
<path d="M508.5 91a10 10 0 0 1 10 10v0a10 10 0 0 0 10 10"></path>
<path d="M434.5 111h20"></path>
<g class="non-terminal">
<path d="M454.5 111h0"></path>
<path d="M508.5 111h0"></path>
<rect x="454.5" y="100" width="54" height="22"></rect>
<text x="481.5" y="115">Wind</text>
</g>
<path d="M508.5 111h20"></path>
</g>
<g>
<path d="M528.5 111h0"></path>
<path d="M764.5 111h0"></path>
<path d="M528.5 111a10 10 0 0 0 10 -10v0a10 10 0 0 1 10 -10"></path>
<g>
<path d="M548.5 91h0"></path>
<path d="M744.5 91h0"></path>
<g class="non-terminal">
<path d="M548.5 91h0"></path>
<path d="M653.5 91h0"></path>
<rect x="548.5" y="80" width="105" height="22"></rect>
<text x="601" y="95">Visibility</text>
</g>
<path d="M653.5 91h10"></path>
<path d="M663.5 91h10"></path>
<g class="non-terminal">
<path d="M673.5 91h0"></path>
<path d="M744.5 91h0"></path>
<rect x="673.5" y="80" width="71" height="22"></rect>
<text x="709" y="95">Clouds</text>
</g>
</g>
<path d="M744.5 91a10 10 0 0 1 10 10v0a10 10 0 0 0 10 10"></path>
<path d="M528.5 111a10 10 0 0 0 10 -10v-30a10 10 0 0 1 10 -10"></path>
<g class="terminal">
<path d="M548.5 61h66.75"></path>
<path d="M677.75 61h66.75"></path>
<rect x="615.25" y="50" width="62.5" height="22" rx="10" ry="10"></rect>
<text x="646.5" y="65">CAVOK</text>
</g>
<path d="M744.5 61a10 10 0 0 1 10 10v30a10 10 0 0 0 10 10"></path>
<path d="M528.5 111h20"></path>
<g>
<path d="M548.5 111h196"></path>
</g>
<path d="M744.5 111h20"></path>
</g>
<g>
<path d="M764.5 111h0"></path>
<path d="M884 111h0"></path>
<path d="M764.5 111a10 10 0 0 0 10 -10v0a10 10 0 0 1 10 -10"></path>
<g class="non-terminal">
<path d="M784.5 91h0"></path>
<path d="M864 91h0"></path>
<rect x="784.5" y="80" width="79.5" height="22"></rect>
<text x="824.25" y="95">Weather</text>
</g>
<path d="M864 91a10 10 0 0 1 10 10v0a10 10 0 0 0 10 10"></path>
<path d="M764.5 111h20"></path>
<g>
<path d="M784.5 111h79.5"></path>
</g>
<path d="M864 111h20"></path>
<path d="M764.5 111a10 10 0 0 1 10 10v0a10 10 0 0 0 10 10"></path>
<g class="terminal">
<path d="M784.5 131h17"></path>
<path d="M847 131h17"></path>
<rect x="801.5" y="120" width="45.5" height="22" rx="10" ry="10"></rect>
<text x="824.25" y="135">NSW</text>
</g>
<path d="M864 131a10 10 0 0 0 10 -10v0a10 10 0 0 1 10 -10"></path>
</g>
<g>
<path d="M884 111h0"></path>
<path d="M1037.5 111h0"></path>
<path d="M884 111a10 10 0 0 0 10 -10v0a10 10 0 0 1 10 -10"></path>
<g class="non-terminal">
<path d="M904 91h0"></path>
<path d="M1017.5 91h0"></path>
<rect x="904" y="80" width="113.5" height="22"></rect>
<text x="960.75" y="95">Colour code</text>
</g>
<path d="M1017.5 91a10 10 0 0 1 10 10v0a10 10 0 0 0 10 10"></path>
<path d="M884 111h20"></path>
<g>
<path d="M904 111h113.5"></path>
</g>
<path d="M1017.5 111h20"></path>
</g>
</g>
<path d="M1047.5 111h0"></path>
</g>
<path d="M1047.5 111h20"></path>
</g>
<path d="M 1067.5 111 h 20 m -10 -10 v 20 m 10 -20 v 20"></path>
</g>
</svg>