<svg xmlns="http://www.w3.org/2000/svg" class="railroad-diagram" width="1359" height="161" viewBox="0 0 1359 161">
<style>
/* <![CDATA[ */
svg.railroad-diagram {
    background-color: hsl(30,20%,95%);
}
svg.railroad-diagram path {
    stroke-width: 3;
    stroke: black;
    fill: rgba(0,0,0,0);
}
svg.railroad-diagram text {
    font: bold 14px monospace;
    text-anchor: middle;
}
svg.railroad-diagram text.diagram-text {
    font-size: 12px;
}
svg.railroad-diagram text.diagram-arrow {
    font-size: 16px;
}
svg.railroad-diagram text.label {
    text-anchor: start;
}
svg.railroad-diagram text.comment {
    font: italic 12px monospace;
}
svg.railroad-diagram g.non-terminal text {
    /*font-style: italic;*/
}
svg.railroad-diagram rect {
    stroke-width: 3;
    stroke: black;
    fill: hsl(120,100%,90%);
}
svg.railroad-diagram path.diagram-text {
    stroke-width: 3;
    stroke: black;
    fill: white;
    cursor: help;
}
svg.railroad-diagram g.diagram-text:hover path.diagram-text {
    fill: #eee;
}
/* ]]> */
</style>
<g transform="translate(.5 .5)">
<g>
<path d="M20 90v20m10 -20v20m-10 -10h20"></path>
</g>
<path d="M40 100h10"></path>
<g>
<path d="M50 100h0"></path>
<path d="M1240.5 100h0"></path>
<g>
<path d="M50 100h0"></path>
<path d="M376 100h0"></path>
<g>
<path d="M50 100h0"></path>
<path d="M278 100h0"></path>
<path d="M50 100a10 10 0 0 0 10 -10v0a10 10 0 0 1 10 -10"></path>
<g>
<path d="M70 80h188"></path>
</g>
<path d="M258 80a10 10 0 0 1 10 10v0a10 10 0 0 0 10 10"></path>
<path d="M50 100h20"></path>
<g>
<path d="M70 100h0"></path>
<path d="M258 100h0"></path>
<g>
<path d="M70 100h0"></path>
<path d="M172.5 100h0"></path>
<path d="M70 100h20"></path>
<g class="terminal">
<path d="M90 100h0"></path>
<path d="M152.5 100h0"></path>
<rect x="90" y="89" width="62.5" height="22" rx="10" ry="10"></rect>
<text x="121.25" y="104">METAR</text>
</g>
<path d="M152.5 100h20"></path>
<path d="M70 100a10 10 0 0 1 10 10v10a10 10 0 0 0 10 10"></path>
<g class="terminal">
<path d="M90 130h0"></path>
<path d="M152.5 130h0"></path>
<rect x="90" y="119" width="62.5" height="22" rx="10" ry="10"></rect>
<text x="121.25" y="134">SPECI</text>
</g>
<path d="M152.5 130a10 10 0 0 0 10 -10v-10a10 10 0 0 1 10 -10"></path>
</g>
<g>
<path d="M172.5 100h0"></path>
<path d="M258 100h0"></path>
<path d="M172.5 100h20"></path>
<g>
<path d="M192.5 100h45.5"></path>
</g>
<path d="M238 100h20"></path>
<path d="M172.5 100a10 10 0 0 1 10 10v0a10 10 0 0 0 10 10"></path>
<g class="terminal">
<path d="M192.5 120h0"></path>
<path d="M238 120h0"></path>
<rect x="192.5" y="109" width="45.5" height="22" rx="10" ry="10"></rect>
<text x="215.25" y="124">COR</text>
</g>
<path d="M238 120a10 10 0 0 0 10 -10v0a10 10 0 0 1 10 -10"></path>
</g>
</g>
<path d="M258 100h20"></path>
</g>
<path d="M278 100h10"></path>
<g class="non-terminal">
<path d="M288 100h0"></path>
<path d="M376 100h0"></path>
<rect x="288" y="89" width="88" height="22"></rect>
<text x="332" y="104">Location</text>
</g>
</g>
<path d="M376 100h10"></path>
<path d="M386 100h10"></path>
<g>
<path d="M396 100h0"></path>
<path d="M1240.5 100h0"></path>
<g>
<path d="M396 100h0"></path>
<path d="M1240.5 100h0"></path>
<path d="M396 100a10 10 0 0 0 10 -10v-49a10 10 0 0 1 10 -10"></path>
<g class="terminal">
<path d="M416 31h379.5"></path>
<path d="M841 31h379.5"></path>
<rect x="795.5" y="20" width="45.5" height="22" rx="10" ry="10"></rect>
<text x="818.25" y="35">NIL</text>
</g>
<path d="M1220.5 31a10 10 0 0 1 10 10v49a10 10 0 0 0 10 10"></path>
<path d="M396 100h20"></path>
<g>
<path d="M416 100h0"></path>
<path d="M1220.5 100h0"></path>
<g class="non-terminal">
<path d="M416 100h0"></path>
<path d="M470 100h0"></path>
<rect x="416" y="89" width="54" height="22"></rect>
<text x="443" y="104">Time</text>
</g>
<path d="M470 100h10"></path>
<g>
<path d="M480 100h0"></path>
<path d="M1220.5 100h0"></path>
<path d="M480 100a10 10 0 0 0 10 -10v-19a10 10 0 0 1 10 -10"></path>
<g class="terminal">
<path d="M500 61h327.5"></path>
<path d="M873 61h327.5"></path>
<rect x="827.5" y="50" width="45.5" height="22" rx="10" ry="10"></rect>
<text x="850.25" y="65">NIL</text>
</g>
<path d="M1200.5 61a10 10 0 0 1 10 10v19a10 10 0 0 0 10 10"></path>
<path d="M480 100h20"></path>
<g>
<path d="M500 100h0"></path>
<path d="M1200.5 100h0"></path>
<g>
<path d="M500 100h0"></path>
<path d="M585.5 100h0"></path>
<path d="M500 100h20"></path>
<g>
<path d="M520 100h45.5"></path>
</g>
<path d="M565.5 100h20"></path>
<path d="M500 100a10 10 0 0 1 10 10v0a10 10 0 0 0 10 10"></path>
<g class="terminal">
<path d="M520 120h0"></path>
<path d="M565.5 120h0"></path>
<rect x="520" y="109" width="45.5" height="22" rx="10" ry="10"></rect>
<text x="542.75" y="124">COR</text>
</g>
<path d="M565.5 120a10 10 0 0 0 10 -10v0a10 10 0 0 1 10 -10"></path>
</g>
<g>
<path d="M585.5 100h0"></path>
<path d="M679.5 100h0"></path>
<path d="M585.5 100h20"></path>
<g>
<path d="M605.5 100h54"></path>
</g>
<path d="M659.5 100h20"></path>
<path d="M585.5 100a10 10 0 0 1 10 10v0a10 10 0 0 0 10 10"></path>
<g class="terminal">
<path d="M605.5 120h0"></path>
<path d="M659.5 120h0"></path>
<rect x="605.5" y="109" width="54" height="22" rx="10" ry="10"></rect>
<text x="632.5" y="124">AUTO</text>
</g>
<path d="M659.5 120a10 10 0 0 0 10 -10v0a10 10 0 0 1 10 -10"></path>
</g>
<path d="M679.5 100h10"></path>
<g class="non-terminal">
<path d="M689.5 100h0"></path>
<path d="M803 100h0"></path>
<rect x="689.5" y="89" width="113.5" height="22"></rect>
<text x="746.25" y="104">Report body</text>
</g>
<path d="M803 100h10"></path>
<g>
<path d="M813 100h0"></path>
<path d="M935.5 100h0"></path>
<path d="M813 100a10 10 0 0 0 10 -10v0a10 10 0 0 1 10 -10"></path>
<g>
<path d="M833 80h82.5"></path>
</g>
<path d="M915.5 80a10 10 0 0 1 10 10v0a10 10 0 0 0 10 10"></path>
<path d="M813 100h20"></path>
<g>
<path d="M833 100h0"></path>
<path d="M915.5 100h0"></path>
<path d="M833 100h10"></path>
<g class="non-terminal">
<path d="M843 100h0"></path>
<path d="M905.5 100h0"></path>
<rect x="843" y="89" width="62.5" height="22"></rect>
<text x="874.25" y="104">Trend</text>
</g>
<path d="M905.5 100h10"></path>
<path d="M843 100a10 10 0 0 0 -10 10v0a10 10 0 0 0 10 10"></path>
<g>
<path d="M843 120h62.5"></path>
</g>
<path d="M905.5 120a10 10 0 0 0 10 -10v0a10 10 0 0 0 -10 -10"></path>
</g>
<path d="M915.5 100h20"></path>
</g>
<g>
<path d="M935.5 100h0"></path>
<path d="M1132 100h0"></path>
<path d="M935.5 100a10 10 0 0 0 10 -10v0a10 10 0 0 1 10 -10"></path>
<g>
<path d="M955.5 80h156.5"></path>
</g>
<path d="M1112 80a10 10 0 0 1 10 10v0a10 10 0 0 0 10 10"></path>
<path d="M935.5 100h20"></path>
<g>
<path d="M955.5 100h0"></path>
<path d="M1112 100h0"></path>
<g class="terminal">
<path d="M955.5 100h0"></path>
<path d="M1001 100h0"></path>
<rect x="955.5" y="89" width="45.5" height="22" rx="10" ry="10"></rect>
<text x="978.25" y="104">RMK</text>
</g>
<path d="M1001 100h10"></path>
<path d="M1011 100h10"></path>
<g>
<path d="M1021 100h0"></path>
<path d="M1112 100h0"></path>
<path d="M1021 100h10"></path>
<g>
<path d="M1031 100h0"></path>
<path d="M1102 100h0"></path>
<g class="non-terminal">
<path d="M1031 100h0"></path>
<path d="M1102 100h0"></path>
<rect x="1031" y="89" width="71" height="22"></rect>
<text x="1066.5" y="104">Remark</text>
</g>
</g>
<path d="M1102 100h10"></path>
<path d="M1031 100a10 10 0 0 0 -10 10v0a10 10 0 0 0 10 10"></path>
<g>
<path d="M1031 120h71"></path>
</g>
<path d="M1102 120a10 10 0 0 0 10 -10v0a10 10 0 0 0 -10 -10"></path>
</g>
</g>
<path d="M1112 100h20"></path>
</g>
<g>
<path d="M1132 100h0"></path>
<path d="M1200.5 100h0"></path>
<path d="M1132 100h20"></path>
<g>
<path d="M1152 100h28.5"></path>
</g>
<path d="M1180.5 100h20"></path>
<path d="M1132 100a10 10 0 0 1 10 10v0a10 10 0 0 0 10 10"></path>
<g class="terminal">
<path d="M1152 120h0"></path>
<path d="M1180.5 120h0"></path>
<rect x="1152" y="109" width="28.5" height="22" rx="10" ry="10"></rect>
<text x="1166.25" y="124">$</text>
</g>
<path d="M1180.5 120a10 10 0 0 0 10 -10v0a10 10 0 0 1 10 -10"></path>
</g>
</g>
<path d="M1200.5 100h20"></path>
</g>
</g>
<path d="M1220.5 100h20"></path>
</g>
</g>
</g>
<path d="M1240.5 100h10"></path>
<g>
<path d="M1250.5 100h0"></path>
<path d="M1319 100h0"></path>
<path d="M1250.5 100a10 10 0 0 0 10 -10v0a10 10 0 0 1 10 -10"></path>
<g>
<path d="M1270.5 80h28.5"></path>
</g>
<path d="M1299 80a10 10 0 0 1 10 10v0a10 10 0 0 0 10 10"></path>
<path d="M1250.5 100h20"></path>
<g class="terminal">
<path d="M1270.5 100h0"></path>
<path d="M1299 100h0"></path>
<rect x="1270.5" y="89" width="28.5" height="22" rx="10" ry="10"></rect>
<text x="1284.75" y="104">=</text>
</g>
<path d="M1299 100h20"></path>
</g>
<path d="M 1319 100 h 20 m -10 -10 v 20 m 10 -20 v 20"></path>
</g>
</svg>
