<svg xmlns="http://www.w3.org/2000/svg" class="railroad-diagram" width="1252" height="209" viewBox="0 0 1252 209">
<style>
/* <![CDATA[ */
svg.railroad-diagram {
    background-color: hsl(30,20%,95%);
}
svg.railroad-diagram path {
    stroke-width: 3;
    stroke: black;
    fill: rgba(0,0,0,0);
}
svg.railroad-diagram text {
    font: bold 14px monospace;
    text-anchor: middle;
}
svg.railroad-diagram text.diagram-text {
    font-size: 12px;
}
svg.railroad-diagram text.diagram-arrow {
    font-size: 16px;
}
svg.railroad-diagram text.label {
    text-anchor: start;
}
svg.railroad-diagram text.comment {
    font: italic 12px monospace;
}
svg.railroad-diagram g.non-terminal text {
    /*font-style: italic;*/
}
svg.railroad-diagram rect {
    stroke-width: 3;
    stroke: black;
    fill: hsl(120,100%,90%);
}
svg.railroad-diagram path.diagram-text {
    stroke-width: 3;
    stroke: black;
    fill: white;
    cursor: help;
}
svg.railroad-diagram g.diagram-text:hover path.diagram-text {
    fill: #eee;
}
/* ]]> */
</style>
<g transform="translate(.5 .5)">
<g>
<path d="M20 21v20m10 -20v20m-10 -10h20"></path>
</g>
<path d="M40 31h10"></path>
<g>
<path d="M50 31h0"></path>
<path d="M50 31h10"></path>
<g>
<path d="M60 31h10"></path>
<path d="M1182 31h10"></path>
<g class="non-terminal">
<path d="M70 31h0"></path>
<path d="M124 31h0"></path>
<rect x="70" y="20" width="54" height="22"></rect>
<text x="97" y="35">Wind</text>
</g>
<path d="M124 31h10"></path>
<g>
<path d="M134 31h0"></path>
<path d="M370 31h0"></path>
<path d="M134 31h20"></path>
<g>
<path d="M154 31h0"></path>
<path d="M350 31h0"></path>
<g class="non-terminal">
<path d="M154 31h0"></path>
<path d="M259 31h0"></path>
<rect x="154" y="20" width="105" height="22"></rect>
<text x="206.5" y="35">Visibility</text>
</g>
<path d="M259 31h10"></path>
<path d="M269 31h10"></path>
<g class="non-terminal">
<path d="M279 31h0"></path>
<path d="M350 31h0"></path>
<rect x="279" y="20" width="71" height="22"></rect>
<text x="314.5" y="35">Clouds</text>
</g>
</g>
<path d="M350 31h20"></path>
<path d="M134 31a10 10 0 0 1 10 10v10a10 10 0 0 0 10 10"></path>
<g class="terminal">
<path d="M154 61h66.75"></path>
<path d="M283.25 61h66.75"></path>
<rect x="220.75" y="50" width="62.5" height="22" rx="10" ry="10"></rect>
<text x="252" y="65">CAVOK</text>
</g>
<path d="M350 61a10 10 0 0 0 10 -10v-10a10 10 0 0 1 10 -10"></path>
</g>
<g>
<path d="M370 31h0"></path>
<path d="M557.5 31h0"></path>
<path d="M370 31h20"></path>
<g>
<path d="M390 31h147.5"></path>
</g>
<path d="M537.5 31h20"></path>
<path d="M370 31a10 10 0 0 1 10 10v0a10 10 0 0 0 10 10"></path>
<g>
<path d="M390 51h0"></path>
<path d="M537.5 51h0"></path>
<g class="non-terminal">
<path d="M390 51h0"></path>
<path d="M537.5 51h0"></path>
<rect x="390" y="40" width="147.5" height="22"></rect>
<text x="463.75" y="55">Current Weather</text>
</g>
</g>
<path d="M537.5 51a10 10 0 0 0 10 -10v0a10 10 0 0 1 10 -10"></path>
</g>
<path d="M557.5 31h10"></path>
<g class="non-terminal">
<path d="M567.5 31h0"></path>
<path d="M783 31h0"></path>
<rect x="567.5" y="20" width="215.5" height="22"></rect>
<text x="675.25" y="35">Temperature &#38; Dew Point</text>
</g>
<path d="M783 31h10"></path>
<path d="M793 31h10"></path>
<g class="non-terminal">
<path d="M803 31h0"></path>
<path d="M993 31h0"></path>
<rect x="803" y="20" width="190" height="22"></rect>
<text x="898" y="35">Atmospheric Pressure</text>
</g>
<path d="M993 31h10"></path>
<g>
<path d="M1003 31h0"></path>
<path d="M1182 31h0"></path>
<path d="M1003 31h20"></path>
<g>
<path d="M1023 31h139"></path>
</g>
<path d="M1162 31h20"></path>
<path d="M1003 31a10 10 0 0 1 10 10v0a10 10 0 0 0 10 10"></path>
<g class="non-terminal">
<path d="M1023 51h0"></path>
<path d="M1162 51h0"></path>
<rect x="1023" y="40" width="139" height="22"></rect>
<text x="1092.5" y="55">Recent Weather</text>
</g>
<path d="M1162 51a10 10 0 0 0 10 -10v0a10 10 0 0 1 10 -10"></path>
</g>
</g>
<path d="M1192 31a10 10 0 0 1 10 10v29a10 10 0 0 1 -10 10h-1132a10 10 0 0 0 -10 10v49a10 10 0 0 0 10 10"></path>
<g>
<path d="M60 149h26"></path>
<path d="M1166 149h26"></path>
<g>
<path d="M86 149h0"></path>
<path d="M327.5 149h0"></path>
<path d="M86 149a10 10 0 0 0 10 -10v0a10 10 0 0 1 10 -10"></path>
<g>
<path d="M106 129h201.5"></path>
</g>
<path d="M307.5 129a10 10 0 0 1 10 10v0a10 10 0 0 0 10 10"></path>
<path d="M86 149h20"></path>
<g>
<path d="M106 149h0"></path>
<path d="M307.5 149h0"></path>
<path d="M106 149h10"></path>
<g class="non-terminal">
<path d="M116 149h0"></path>
<path d="M297.5 149h0"></path>
<rect x="116" y="138" width="181.5" height="22"></rect>
<text x="206.75" y="153">Runway Visual Range</text>
</g>
<path d="M297.5 149h10"></path>
<path d="M116 149a10 10 0 0 0 -10 10v0a10 10 0 0 0 10 10"></path>
<g>
<path d="M116 169h181.5"></path>
</g>
<path d="M297.5 169a10 10 0 0 0 10 -10v0a10 10 0 0 0 -10 -10"></path>
</g>
<path d="M307.5 149h20"></path>
</g>
<g>
<path d="M327.5 149h0"></path>
<path d="M509.5 149h0"></path>
<path d="M327.5 149a10 10 0 0 0 10 -10v0a10 10 0 0 1 10 -10"></path>
<g class="terminal">
<path d="M347.5 129h35.5"></path>
<path d="M454 129h35.5"></path>
<rect x="383" y="118" width="71" height="22" rx="10" ry="10"></rect>
<text x="418.5" y="133">SNOCLO</text>
</g>
<path d="M489.5 129a10 10 0 0 1 10 10v0a10 10 0 0 0 10 10"></path>
<path d="M327.5 149a10 10 0 0 0 10 -10v-30a10 10 0 0 1 10 -10"></path>
<g class="terminal">
<path d="M347.5 99h27"></path>
<path d="M462.5 99h27"></path>
<rect x="374.5" y="88" width="88" height="22" rx="10" ry="10"></rect>
<text x="418.5" y="103">R/SNOCLO</text>
</g>
<path d="M489.5 99a10 10 0 0 1 10 10v30a10 10 0 0 0 10 10"></path>
<path d="M327.5 149h20"></path>
<g>
<path d="M347.5 149h142"></path>
</g>
<path d="M489.5 149h20"></path>
<path d="M327.5 149a10 10 0 0 1 10 10v0a10 10 0 0 0 10 10"></path>
<g>
<path d="M347.5 169h0"></path>
<path d="M489.5 169h0"></path>
<path d="M347.5 169h10"></path>
<g class="non-terminal">
<path d="M357.5 169h0"></path>
<path d="M479.5 169h0"></path>
<rect x="357.5" y="158" width="122" height="22"></rect>
<text x="418.5" y="173">Runway State</text>
</g>
<path d="M479.5 169h10"></path>
<path d="M357.5 169a10 10 0 0 0 -10 10v0a10 10 0 0 0 10 10"></path>
<g>
<path d="M357.5 189h122"></path>
</g>
<path d="M479.5 189a10 10 0 0 0 10 -10v0a10 10 0 0 0 -10 -10"></path>
</g>
<path d="M489.5 169a10 10 0 0 0 10 -10v0a10 10 0 0 1 10 -10"></path>
</g>
<g>
<path d="M509.5 149h0"></path>
<path d="M654.5 149h0"></path>
<path d="M509.5 149h20"></path>
<g>
<path d="M529.5 149h105"></path>
</g>
<path d="M634.5 149h20"></path>
<path d="M509.5 149a10 10 0 0 1 10 10v0a10 10 0 0 0 10 10"></path>
<g class="non-terminal">
<path d="M529.5 169h0"></path>
<path d="M634.5 169h0"></path>
<rect x="529.5" y="158" width="105" height="22"></rect>
<text x="582" y="173">Wind shear</text>
</g>
<path d="M634.5 169a10 10 0 0 0 10 -10v0a10 10 0 0 1 10 -10"></path>
</g>
<g>
<path d="M654.5 149h0"></path>
<path d="M782.5 149h0"></path>
<path d="M654.5 149h20"></path>
<g>
<path d="M674.5 149h88"></path>
</g>
<path d="M762.5 149h20"></path>
<path d="M654.5 149a10 10 0 0 1 10 10v0a10 10 0 0 0 10 10"></path>
<g class="non-terminal">
<path d="M674.5 169h0"></path>
<path d="M762.5 169h0"></path>
<rect x="674.5" y="158" width="88" height="22"></rect>
<text x="718.5" y="173">Rainfall</text>
</g>
<path d="M762.5 169a10 10 0 0 0 10 -10v0a10 10 0 0 1 10 -10"></path>
</g>
<g>
<path d="M782.5 149h0"></path>
<path d="M1012.5 149h0"></path>
<path d="M782.5 149h20"></path>
<g>
<path d="M802.5 149h190"></path>
</g>
<path d="M992.5 149h20"></path>
<path d="M782.5 149a10 10 0 0 1 10 10v0a10 10 0 0 0 10 10"></path>
<g class="non-terminal">
<path d="M802.5 169h0"></path>
<path d="M992.5 169h0"></path>
<rect x="802.5" y="158" width="190" height="22"></rect>
<text x="897.5" y="173">State of Sea Surface</text>
</g>
<path d="M992.5 169a10 10 0 0 0 10 -10v0a10 10 0 0 1 10 -10"></path>
</g>
<g>
<path d="M1012.5 149h0"></path>
<path d="M1166 149h0"></path>
<path d="M1012.5 149h20"></path>
<g>
<path d="M1032.5 149h113.5"></path>
</g>
<path d="M1146 149h20"></path>
<path d="M1012.5 149a10 10 0 0 1 10 10v0a10 10 0 0 0 10 10"></path>
<g class="non-terminal">
<path d="M1032.5 169h0"></path>
<path d="M1146 169h0"></path>
<rect x="1032.5" y="158" width="113.5" height="22"></rect>
<text x="1089.25" y="173">Colour Code</text>
</g>
<path d="M1146 169a10 10 0 0 0 10 -10v0a10 10 0 0 1 10 -10"></path>
</g>
</g>
<path d="M1192 149h10"></path>
<path d="M1202 149h0"></path>
</g>
<path d="M1202 149h10"></path>
<path d="M 1212 149 h 20 m -10 -10 v 20 m 10 -20 v 20"></path>
</g>
</svg>