<svg xmlns="http://www.w3.org/2000/svg" class="railroad-diagram" width="831.5" height="182" viewBox="0 0 831.5 182">
<style>
/* <![CDATA[ */
svg.railroad-diagram {
    background-color: hsl(30,20%,95%);
}
svg.railroad-diagram path {
    stroke-width: 3;
    stroke: black;
    fill: rgba(0,0,0,0);
}
svg.railroad-diagram text {
    font: bold 14px monospace;
    text-anchor: middle;
}
svg.railroad-diagram text.diagram-text {
    font-size: 12px;
}
svg.railroad-diagram text.diagram-arrow {
    font-size: 16px;
}
svg.railroad-diagram text.label {
    text-anchor: start;
}
svg.railroad-diagram text.comment {
    font: italic 12px monospace;
}
svg.railroad-diagram g.non-terminal text {
    /*font-style: italic;*/
}
svg.railroad-diagram rect {
    stroke-width: 3;
    stroke: black;
    fill: hsl(120,100%,90%);
}
svg.railroad-diagram path.diagram-text {
    stroke-width: 3;
    stroke: black;
    fill: white;
    cursor: help;
}
svg.railroad-diagram g.diagram-text:hover path.diagram-text {
    fill: #eee;
}
/* ]]> */
</style>
<g transform="translate(.5 .5)">
<g>
<path d="M20 81v20m10 -20v20m-10 -10h20"></path>
</g>
<g>
<path d="M40 91h0"></path>
<path d="M791.5 91h0"></path>
<path d="M40 91a10 10 0 0 0 10 -10v-40a10 10 0 0 1 10 -10"></path>
<g>
<path d="M60 31h0"></path>
<path d="M771.5 31h0"></path>
<g class="terminal">
<path d="M60 31h0"></path>
<path d="M88.5 31h0"></path>
<rect x="60" y="20" width="28.5" height="22" rx="10" ry="10"></rect>
<text x="74.25" y="35">4</text>
</g>
<path d="M88.5 31h10"></path>
<g>
<path d="M98.5 31h0"></path>
<path d="M167 31h0"></path>
<path d="M98.5 31h20"></path>
<g class="terminal">
<path d="M118.5 31h0"></path>
<path d="M147 31h0"></path>
<rect x="118.5" y="20" width="28.5" height="22" rx="10" ry="10"></rect>
<text x="132.75" y="35">0</text>
</g>
<path d="M147 31h20"></path>
<path d="M98.5 31a10 10 0 0 1 10 10v10a10 10 0 0 0 10 10"></path>
<g class="terminal">
<path d="M118.5 61h0"></path>
<path d="M147 61h0"></path>
<rect x="118.5" y="50" width="28.5" height="22" rx="10" ry="10"></rect>
<text x="132.75" y="65">1</text>
</g>
<path d="M147 61a10 10 0 0 0 10 -10v-10a10 10 0 0 1 10 -10"></path>
</g>
<path d="M167 31h10"></path>
<g class="non-terminal">
<path d="M177 31h0"></path>
<path d="M248 31h0"></path>
<rect x="177" y="20" width="71" height="22"></rect>
<text x="212.5" y="35">0 to 9</text>
</g>
<path d="M248 31h10"></path>
<path d="M258 31h10"></path>
<g class="non-terminal">
<path d="M268 31h0"></path>
<path d="M339 31h0"></path>
<rect x="268" y="20" width="71" height="22"></rect>
<text x="303.5" y="35">0 to 9</text>
</g>
<path d="M339 31h10"></path>
<path d="M349 31h10"></path>
<g class="non-terminal">
<path d="M359 31h0"></path>
<path d="M430 31h0"></path>
<rect x="359" y="20" width="71" height="22"></rect>
<text x="394.5" y="35">0 to 9</text>
</g>
<path d="M430 31h10"></path>
<g>
<path d="M440 31h0"></path>
<path d="M508.5 31h0"></path>
<path d="M440 31h20"></path>
<g class="terminal">
<path d="M460 31h0"></path>
<path d="M488.5 31h0"></path>
<rect x="460" y="20" width="28.5" height="22" rx="10" ry="10"></rect>
<text x="474.25" y="35">0</text>
</g>
<path d="M488.5 31h20"></path>
<path d="M440 31a10 10 0 0 1 10 10v10a10 10 0 0 0 10 10"></path>
<g class="terminal">
<path d="M460 61h0"></path>
<path d="M488.5 61h0"></path>
<rect x="460" y="50" width="28.5" height="22" rx="10" ry="10"></rect>
<text x="474.25" y="65">1</text>
</g>
<path d="M488.5 61a10 10 0 0 0 10 -10v-10a10 10 0 0 1 10 -10"></path>
</g>
<path d="M508.5 31h10"></path>
<g class="non-terminal">
<path d="M518.5 31h0"></path>
<path d="M589.5 31h0"></path>
<rect x="518.5" y="20" width="71" height="22"></rect>
<text x="554" y="35">0 to 9</text>
</g>
<path d="M589.5 31h10"></path>
<path d="M599.5 31h10"></path>
<g class="non-terminal">
<path d="M609.5 31h0"></path>
<path d="M680.5 31h0"></path>
<rect x="609.5" y="20" width="71" height="22"></rect>
<text x="645" y="35">0 to 9</text>
</g>
<path d="M680.5 31h10"></path>
<path d="M690.5 31h10"></path>
<g class="non-terminal">
<path d="M700.5 31h0"></path>
<path d="M771.5 31h0"></path>
<rect x="700.5" y="20" width="71" height="22"></rect>
<text x="736" y="35">0 to 9</text>
</g>
</g>
<path d="M771.5 31a10 10 0 0 1 10 10v40a10 10 0 0 0 10 10"></path>
<path d="M40 91h20"></path>
<g>
<path d="M60 91h135.75"></path>
<path d="M635.75 91h135.75"></path>
<g>
<path d="M195.75 91h0"></path>
<path d="M264.25 91h0"></path>
<path d="M195.75 91h20"></path>
<g class="terminal">
<path d="M215.75 91h0"></path>
<path d="M244.25 91h0"></path>
<rect x="215.75" y="80" width="28.5" height="22" rx="10" ry="10"></rect>
<text x="230" y="95">1</text>
</g>
<path d="M244.25 91h20"></path>
<path d="M195.75 91a10 10 0 0 1 10 10v10a10 10 0 0 0 10 10"></path>
<g class="terminal">
<path d="M215.75 121h0"></path>
<path d="M244.25 121h0"></path>
<rect x="215.75" y="110" width="28.5" height="22" rx="10" ry="10"></rect>
<text x="230" y="125">2</text>
</g>
<path d="M244.25 121a10 10 0 0 0 10 -10v-10a10 10 0 0 1 10 -10"></path>
</g>
<g>
<path d="M264.25 91h0"></path>
<path d="M635.75 91h0"></path>
<path d="M264.25 91h20"></path>
<g>
<path d="M284.25 91h0"></path>
<path d="M615.75 91h0"></path>
<g>
<path d="M284.25 91h0"></path>
<path d="M352.75 91h0"></path>
<path d="M284.25 91h20"></path>
<g class="terminal">
<path d="M304.25 91h0"></path>
<path d="M332.75 91h0"></path>
<rect x="304.25" y="80" width="28.5" height="22" rx="10" ry="10"></rect>
<text x="318.5" y="95">0</text>
</g>
<path d="M332.75 91h20"></path>
<path d="M284.25 91a10 10 0 0 1 10 10v10a10 10 0 0 0 10 10"></path>
<g class="terminal">
<path d="M304.25 121h0"></path>
<path d="M332.75 121h0"></path>
<rect x="304.25" y="110" width="28.5" height="22" rx="10" ry="10"></rect>
<text x="318.5" y="125">1</text>
</g>
<path d="M332.75 121a10 10 0 0 0 10 -10v-10a10 10 0 0 1 10 -10"></path>
</g>
<path d="M352.75 91h10"></path>
<g class="non-terminal">
<path d="M362.75 91h0"></path>
<path d="M433.75 91h0"></path>
<rect x="362.75" y="80" width="71" height="22"></rect>
<text x="398.25" y="95">0 to 9</text>
</g>
<path d="M433.75 91h10"></path>
<path d="M443.75 91h10"></path>
<g class="non-terminal">
<path d="M453.75 91h0"></path>
<path d="M524.75 91h0"></path>
<rect x="453.75" y="80" width="71" height="22"></rect>
<text x="489.25" y="95">0 to 9</text>
</g>
<path d="M524.75 91h10"></path>
<path d="M534.75 91h10"></path>
<g class="non-terminal">
<path d="M544.75 91h0"></path>
<path d="M615.75 91h0"></path>
<rect x="544.75" y="80" width="71" height="22"></rect>
<text x="580.25" y="95">0 to 9</text>
</g>
</g>
<path d="M615.75 91h20"></path>
<path d="M264.25 91a10 10 0 0 1 10 10v40a10 10 0 0 0 10 10"></path>
<g class="terminal">
<path d="M284.25 151h138.75"></path>
<path d="M477 151h138.75"></path>
<rect x="423" y="140" width="54" height="22" rx="10" ry="10"></rect>
<text x="450" y="155">////</text>
</g>
<path d="M615.75 151a10 10 0 0 0 10 -10v-40a10 10 0 0 1 10 -10"></path>
</g>
</g>
<path d="M771.5 91h20"></path>
</g>
<path d="M 791.5 91 h 20 m -10 -10 v 20 m 10 -20 v 20"></path>
</g>
</svg>
