<svg xmlns="http://www.w3.org/2000/svg" class="railroad-diagram" width="876.5" height="122" viewBox="0 0 876.5 122">
<style>
/* <![CDATA[ */
svg.railroad-diagram {
    background-color: hsl(30,20%,95%);
}
svg.railroad-diagram path {
    stroke-width: 3;
    stroke: black;
    fill: rgba(0,0,0,0);
}
svg.railroad-diagram text {
    font: bold 14px monospace;
    text-anchor: middle;
}
svg.railroad-diagram text.diagram-text {
    font-size: 12px;
}
svg.railroad-diagram text.diagram-arrow {
    font-size: 16px;
}
svg.railroad-diagram text.label {
    text-anchor: start;
}
svg.railroad-diagram text.comment {
    font: italic 12px monospace;
}
svg.railroad-diagram g.non-terminal text {
    /*font-style: italic;*/
}
svg.railroad-diagram rect {
    stroke-width: 3;
    stroke: black;
    fill: hsl(120,100%,90%);
}
svg.railroad-diagram path.diagram-text {
    stroke-width: 3;
    stroke: black;
    fill: white;
    cursor: help;
}
svg.railroad-diagram g.diagram-text:hover path.diagram-text {
    fill: #eee;
}
/* ]]> */
</style>
<g transform="translate(.5 .5)">
<g>
<path d="M20 51v20m10 -20v20m-10 -10h20"></path>
</g>
<g>
<path d="M40 61h0"></path>
<path d="M836.5 61h0"></path>
<path d="M40 61a10 10 0 0 0 10 -10v-10a10 10 0 0 1 10 -10"></path>
<g>
<path d="M60 31h0"></path>
<path d="M816.5 31h0"></path>
<g class="terminal">
<path d="M60 31h0"></path>
<path d="M88.5 31h0"></path>
<rect x="60" y="20" width="28.5" height="22" rx="10" ry="10"></rect>
<text x="74.25" y="35">4</text>
</g>
<path d="M88.5 31h10"></path>
<path d="M98.5 31h10"></path>
<g class="non-terminal">
<path d="M108.5 31h0"></path>
<path d="M179.5 31h0"></path>
<rect x="108.5" y="20" width="71" height="22"></rect>
<text x="144" y="35">0 or 1</text>
</g>
<path d="M179.5 31h10"></path>
<path d="M189.5 31h10"></path>
<g class="non-terminal">
<path d="M199.5 31h0"></path>
<path d="M270.5 31h0"></path>
<rect x="199.5" y="20" width="71" height="22"></rect>
<text x="235" y="35">0 to 9</text>
</g>
<path d="M270.5 31h10"></path>
<path d="M280.5 31h10"></path>
<g class="non-terminal">
<path d="M290.5 31h0"></path>
<path d="M361.5 31h0"></path>
<rect x="290.5" y="20" width="71" height="22"></rect>
<text x="326" y="35">0 to 9</text>
</g>
<path d="M361.5 31h10"></path>
<path d="M371.5 31h10"></path>
<g class="non-terminal">
<path d="M381.5 31h0"></path>
<path d="M452.5 31h0"></path>
<rect x="381.5" y="20" width="71" height="22"></rect>
<text x="417" y="35">0 to 9</text>
</g>
<path d="M452.5 31h10"></path>
<path d="M462.5 31h10"></path>
<g class="non-terminal">
<path d="M472.5 31h0"></path>
<path d="M543.5 31h0"></path>
<rect x="472.5" y="20" width="71" height="22"></rect>
<text x="508" y="35">0 or 1</text>
</g>
<path d="M543.5 31h10"></path>
<path d="M553.5 31h10"></path>
<g class="non-terminal">
<path d="M563.5 31h0"></path>
<path d="M634.5 31h0"></path>
<rect x="563.5" y="20" width="71" height="22"></rect>
<text x="599" y="35">0 to 9</text>
</g>
<path d="M634.5 31h10"></path>
<path d="M644.5 31h10"></path>
<g class="non-terminal">
<path d="M654.5 31h0"></path>
<path d="M725.5 31h0"></path>
<rect x="654.5" y="20" width="71" height="22"></rect>
<text x="690" y="35">0 to 9</text>
</g>
<path d="M725.5 31h10"></path>
<path d="M735.5 31h10"></path>
<g class="non-terminal">
<path d="M745.5 31h0"></path>
<path d="M816.5 31h0"></path>
<rect x="745.5" y="20" width="71" height="22"></rect>
<text x="781" y="35">0 to 9</text>
</g>
</g>
<path d="M816.5 31a10 10 0 0 1 10 10v10a10 10 0 0 0 10 10"></path>
<path d="M40 61h20"></path>
<g>
<path d="M60 61h167"></path>
<path d="M649.5 61h167"></path>
<g>
<path d="M227 61h0"></path>
<path d="M295.5 61h0"></path>
<path d="M227 61h20"></path>
<g class="terminal">
<path d="M247 61h0"></path>
<path d="M275.5 61h0"></path>
<rect x="247" y="50" width="28.5" height="22" rx="10" ry="10"></rect>
<text x="261.25" y="65">1</text>
</g>
<path d="M275.5 61h20"></path>
<path d="M227 61a10 10 0 0 1 10 10v10a10 10 0 0 0 10 10"></path>
<g class="terminal">
<path d="M247 91h0"></path>
<path d="M275.5 91h0"></path>
<rect x="247" y="80" width="28.5" height="22" rx="10" ry="10"></rect>
<text x="261.25" y="95">2</text>
</g>
<path d="M275.5 91a10 10 0 0 0 10 -10v-10a10 10 0 0 1 10 -10"></path>
</g>
<path d="M295.5 61h10"></path>
<g class="non-terminal">
<path d="M305.5 61h0"></path>
<path d="M376.5 61h0"></path>
<rect x="305.5" y="50" width="71" height="22"></rect>
<text x="341" y="65">0 or 1</text>
</g>
<path d="M376.5 61h10"></path>
<path d="M386.5 61h10"></path>
<g class="non-terminal">
<path d="M396.5 61h0"></path>
<path d="M467.5 61h0"></path>
<rect x="396.5" y="50" width="71" height="22"></rect>
<text x="432" y="65">0 to 9</text>
</g>
<path d="M467.5 61h10"></path>
<path d="M477.5 61h10"></path>
<g class="non-terminal">
<path d="M487.5 61h0"></path>
<path d="M558.5 61h0"></path>
<rect x="487.5" y="50" width="71" height="22"></rect>
<text x="523" y="65">0 to 9</text>
</g>
<path d="M558.5 61h10"></path>
<path d="M568.5 61h10"></path>
<g class="non-terminal">
<path d="M578.5 61h0"></path>
<path d="M649.5 61h0"></path>
<rect x="578.5" y="50" width="71" height="22"></rect>
<text x="614" y="65">0 to 9</text>
</g>
</g>
<path d="M816.5 61h20"></path>
</g>
<path d="M 836.5 61 h 20 m -10 -10 v 20 m 10 -20 v 20"></path>
</g>
</svg>
