<svg xmlns="http://www.w3.org/2000/svg" class="railroad-diagram" width="544" height="250" viewBox="0 0 544 250">
<style>
/* <![CDATA[ */
svg.railroad-diagram {
    background-color: hsl(30,20%,95%);
}
svg.railroad-diagram path {
    stroke-width: 3;
    stroke: black;
    fill: rgba(0,0,0,0);
}
svg.railroad-diagram text {
    font: bold 14px monospace;
    text-anchor: middle;
}
svg.railroad-diagram text.diagram-text {
    font-size: 12px;
}
svg.railroad-diagram text.diagram-arrow {
    font-size: 16px;
}
svg.railroad-diagram text.label {
    text-anchor: start;
}
svg.railroad-diagram text.comment {
    font: italic 12px monospace;
}
svg.railroad-diagram g.non-terminal text {
    /*font-style: italic;*/
}
svg.railroad-diagram rect {
    stroke-width: 3;
    stroke: black;
    fill: hsl(120,100%,90%);
}
svg.railroad-diagram path.diagram-text {
    stroke-width: 3;
    stroke: black;
    fill: white;
    cursor: help;
}
svg.railroad-diagram g.diagram-text:hover path.diagram-text {
    fill: #eee;
}
/* ]]> */
</style>
<g transform="translate(.5 .5)">
<g>
<path d="M20 51v20m10 -20v20m-10 -10h20"></path>
</g>
<g>
<path d="M40 61h0"></path>
<path d="M504 61h0"></path>
<path d="M40 61a10 10 0 0 0 10 -10v-10a10 10 0 0 1 10 -10"></path>
<g>
<path d="M60 31h37"></path>
<path d="M447 31h37"></path>
<g class="terminal">
<path d="M97 31h0"></path>
<path d="M125.5 31h0"></path>
<rect x="97" y="20" width="28.5" height="22" rx="10" ry="10"></rect>
<text x="111.25" y="35">9</text>
</g>
<path d="M125.5 31h10"></path>
<path d="M135.5 31h10"></path>
<g class="terminal">
<path d="M145.5 31h0"></path>
<path d="M174 31h0"></path>
<rect x="145.5" y="20" width="28.5" height="22" rx="10" ry="10"></rect>
<text x="159.75" y="35">8</text>
</g>
<path d="M174 31h10"></path>
<path d="M184 31h10"></path>
<g class="non-terminal">
<path d="M194 31h0"></path>
<path d="M265 31h0"></path>
<rect x="194" y="20" width="71" height="22"></rect>
<text x="229.5" y="35">0 to 9</text>
</g>
<path d="M265 31h10"></path>
<path d="M275 31h10"></path>
<g class="non-terminal">
<path d="M285 31h0"></path>
<path d="M356 31h0"></path>
<rect x="285" y="20" width="71" height="22"></rect>
<text x="320.5" y="35">0 to 9</text>
</g>
<path d="M356 31h10"></path>
<path d="M366 31h10"></path>
<g class="non-terminal">
<path d="M376 31h0"></path>
<path d="M447 31h0"></path>
<rect x="376" y="20" width="71" height="22"></rect>
<text x="411.5" y="35">0 to 9</text>
</g>
</g>
<path d="M484 31a10 10 0 0 1 10 10v10a10 10 0 0 0 10 10"></path>
<path d="M40 61h20"></path>
<g>
<path d="M60 61h148"></path>
<path d="M336 61h148"></path>
<g class="terminal">
<path d="M208 61h0"></path>
<path d="M245 61h0"></path>
<rect x="208" y="50" width="37" height="22" rx="10" ry="10"></rect>
<text x="226.5" y="65">CC</text>
</g>
<path d="M245 61h10"></path>
<path d="M255 61h10"></path>
<g class="non-terminal">
<path d="M265 61h0"></path>
<path d="M336 61h0"></path>
<rect x="265" y="50" width="71" height="22"></rect>
<text x="300.5" y="65">A to Z</text>
</g>
</g>
<path d="M484 61h20"></path>
<path d="M40 61a10 10 0 0 1 10 10v10a10 10 0 0 0 10 10"></path>
<g>
<path d="M60 91h0"></path>
<path d="M484 91h0"></path>
<g class="terminal">
<path d="M60 91h0"></path>
<path d="M139.5 91h0"></path>
<rect x="60" y="80" width="79.5" height="22" rx="10" ry="10"></rect>
<text x="99.75" y="95">DENSITY</text>
</g>
<path d="M139.5 91h10"></path>
<path d="M149.5 91h10"></path>
<g class="terminal">
<path d="M159.5 91h0"></path>
<path d="M188 91h0"></path>
<rect x="159.5" y="80" width="28.5" height="22" rx="10" ry="10"></rect>
<text x="173.75" y="95"> </text>
</g>
<path d="M188 91h10"></path>
<path d="M198 91h10"></path>
<g class="terminal">
<path d="M208 91h0"></path>
<path d="M253.5 91h0"></path>
<rect x="208" y="80" width="45.5" height="22" rx="10" ry="10"></rect>
<text x="230.75" y="95">ALT</text>
</g>
<path d="M253.5 91h10"></path>
<path d="M263.5 91h10"></path>
<g class="terminal">
<path d="M273.5 91h0"></path>
<path d="M302 91h0"></path>
<rect x="273.5" y="80" width="28.5" height="22" rx="10" ry="10"></rect>
<text x="287.75" y="95"> </text>
</g>
<path d="M302 91h10"></path>
<path d="M312 91h10"></path>
<g class="non-terminal">
<path d="M322 91h0"></path>
<path d="M427 91h0"></path>
<rect x="322" y="80" width="105" height="22"></rect>
<text x="374.5" y="95">0 to 99999</text>
</g>
<path d="M427 91h10"></path>
<path d="M437 91h10"></path>
<g class="terminal">
<path d="M447 91h0"></path>
<path d="M484 91h0"></path>
<rect x="447" y="80" width="37" height="22" rx="10" ry="10"></rect>
<text x="465.5" y="95">FT</text>
</g>
</g>
<path d="M484 91a10 10 0 0 0 10 -10v-10a10 10 0 0 1 10 -10"></path>
<path d="M40 61a10 10 0 0 1 10 10v78a10 10 0 0 0 10 10"></path>
<g>
<path d="M60 159h26.75"></path>
<path d="M457.25 159h26.75"></path>
<g class="terminal">
<path d="M86.75 159h0"></path>
<path d="M123.75 159h0"></path>
<rect x="86.75" y="148" width="37" height="22" rx="10" ry="10"></rect>
<text x="105.25" y="163">GR</text>
</g>
<path d="M123.75 159h10"></path>
<g>
<path d="M133.75 159h0"></path>
<path d="M293.25 159h0"></path>
<path d="M133.75 159a10 10 0 0 0 10 -10v0a10 10 0 0 1 10 -10"></path>
<g>
<path d="M153.75 139h119.5"></path>
</g>
<path d="M273.25 139a10 10 0 0 1 10 10v0a10 10 0 0 0 10 10"></path>
<path d="M133.75 159h20"></path>
<g>
<path d="M153.75 159h0"></path>
<path d="M273.25 159h0"></path>
<g class="terminal">
<path d="M153.75 159h0"></path>
<path d="M182.25 159h0"></path>
<rect x="153.75" y="148" width="28.5" height="22" rx="10" ry="10"></rect>
<text x="168" y="163"> </text>
</g>
<path d="M182.25 159h10"></path>
<path d="M192.25 159h10"></path>
<g class="non-terminal">
<path d="M202.25 159h0"></path>
<path d="M273.25 159h0"></path>
<rect x="202.25" y="148" width="71" height="22"></rect>
<text x="237.75" y="163">1 to 9</text>
</g>
</g>
<path d="M273.25 159h20"></path>
</g>
<g>
<path d="M293.25 159h0"></path>
<path d="M457.25 159h0"></path>
<path d="M293.25 159a10 10 0 0 0 10 -10v-29a10 10 0 0 1 10 -10"></path>
<g>
<path d="M313.25 110h124"></path>
</g>
<path d="M437.25 110a10 10 0 0 1 10 10v29a10 10 0 0 0 10 10"></path>
<path d="M293.25 159h20"></path>
<g>
<path d="M313.25 159h0"></path>
<path d="M437.25 159h0"></path>
<g class="terminal">
<path d="M313.25 159h0"></path>
<path d="M341.75 159h0"></path>
<rect x="313.25" y="148" width="28.5" height="22" rx="10" ry="10"></rect>
<text x="327.5" y="163"> </text>
</g>
<path d="M341.75 159h10"></path>
<g>
<path d="M351.75 159h0"></path>
<path d="M437.25 159h0"></path>
<path d="M351.75 159a10 10 0 0 0 10 -10v-10a10 10 0 0 1 10 -10"></path>
<g class="terminal">
<path d="M371.75 129h0"></path>
<path d="M417.25 129h0"></path>
<rect x="371.75" y="118" width="45.5" height="22" rx="10" ry="10"></rect>
<text x="394.5" y="133">1/4</text>
</g>
<path d="M417.25 129a10 10 0 0 1 10 10v10a10 10 0 0 0 10 10"></path>
<path d="M351.75 159h20"></path>
<g class="terminal">
<path d="M371.75 159h0"></path>
<path d="M417.25 159h0"></path>
<rect x="371.75" y="148" width="45.5" height="22" rx="10" ry="10"></rect>
<text x="394.5" y="163">2/4</text>
</g>
<path d="M417.25 159h20"></path>
<path d="M351.75 159a10 10 0 0 1 10 10v10a10 10 0 0 0 10 10"></path>
<g class="terminal">
<path d="M371.75 189h0"></path>
<path d="M417.25 189h0"></path>
<rect x="371.75" y="178" width="45.5" height="22" rx="10" ry="10"></rect>
<text x="394.5" y="193">1/2</text>
</g>
<path d="M417.25 189a10 10 0 0 0 10 -10v-10a10 10 0 0 1 10 -10"></path>
<path d="M351.75 159a10 10 0 0 1 10 10v40a10 10 0 0 0 10 10"></path>
<g class="terminal">
<path d="M371.75 219h0"></path>
<path d="M417.25 219h0"></path>
<rect x="371.75" y="208" width="45.5" height="22" rx="10" ry="10"></rect>
<text x="394.5" y="223">3/4</text>
</g>
<path d="M417.25 219a10 10 0 0 0 10 -10v-40a10 10 0 0 1 10 -10"></path>
</g>
</g>
<path d="M437.25 159h20"></path>
</g>
</g>
<path d="M484 159a10 10 0 0 0 10 -10v-78a10 10 0 0 1 10 -10"></path>
</g>
<path d="M 504 61 h 20 m -10 -10 v 20 m 10 -20 v 20"></path>
</g>
</svg>
