<svg xmlns="http://www.w3.org/2000/svg" class="railroad-diagram" width="450" height="62" viewBox="0 0 450 62">
<style>
/* <![CDATA[ */
svg.railroad-diagram {
    background-color: hsl(30,20%,95%);
}
svg.railroad-diagram path {
    stroke-width: 3;
    stroke: black;
    fill: rgba(0,0,0,0);
}
svg.railroad-diagram text {
    font: bold 14px monospace;
    text-anchor: middle;
}
svg.railroad-diagram text.diagram-text {
    font-size: 12px;
}
svg.railroad-diagram text.diagram-arrow {
    font-size: 16px;
}
svg.railroad-diagram text.label {
    text-anchor: start;
}
svg.railroad-diagram text.comment {
    font: italic 12px monospace;
}
svg.railroad-diagram g.non-terminal text {
    /*font-style: italic;*/
}
svg.railroad-diagram rect {
    stroke-width: 3;
    stroke: black;
    fill: hsl(120,100%,90%);
}
svg.railroad-diagram path.diagram-text {
    stroke-width: 3;
    stroke: black;
    fill: white;
    cursor: help;
}
svg.railroad-diagram g.diagram-text:hover path.diagram-text {
    fill: #eee;
}
/* ]]> */
</style>
<g transform="translate(.5 .5)">
<g>
<path d="M20 21v20m10 -20v20m-10 -10h20"></path>
</g>
<path d="M40 31h10"></path>
<g class="terminal">
<path d="M50 31h0"></path>
<path d="M78.5 31h0"></path>
<rect x="50" y="20" width="28.5" height="22" rx="10" ry="10"></rect>
<text x="64.25" y="35">9</text>
</g>
<path d="M78.5 31h10"></path>
<path d="M88.5 31h10"></path>
<g class="terminal">
<path d="M98.5 31h0"></path>
<path d="M127 31h0"></path>
<rect x="98.5" y="20" width="28.5" height="22" rx="10" ry="10"></rect>
<text x="112.75" y="35">8</text>
</g>
<path d="M127 31h10"></path>
<path d="M137 31h10"></path>
<g class="non-terminal">
<path d="M147 31h0"></path>
<path d="M218 31h0"></path>
<rect x="147" y="20" width="71" height="22"></rect>
<text x="182.5" y="35">0 to 9</text>
</g>
<path d="M218 31h10"></path>
<path d="M228 31h10"></path>
<g class="non-terminal">
<path d="M238 31h0"></path>
<path d="M309 31h0"></path>
<rect x="238" y="20" width="71" height="22"></rect>
<text x="273.5" y="35">0 to 9</text>
</g>
<path d="M309 31h10"></path>
<path d="M319 31h10"></path>
<g class="non-terminal">
<path d="M329 31h0"></path>
<path d="M400 31h0"></path>
<rect x="329" y="20" width="71" height="22"></rect>
<text x="364.5" y="35">0 to 9</text>
</g>
<path d="M400 31h10"></path>
<path d="M 410 31 h 20 m -10 -10 v 20 m 10 -20 v 20"></path>
</g>
</svg>
