<svg xmlns="http://www.w3.org/2000/svg" class="railroad-diagram" width="692" height="341" viewBox="0 0 692 341">
<style>
/* <![CDATA[ */
svg.railroad-diagram {
    background-color: hsl(30,20%,95%);
}
svg.railroad-diagram path {
    stroke-width: 3;
    stroke: black;
    fill: rgba(0,0,0,0);
}
svg.railroad-diagram text {
    font: bold 14px monospace;
    text-anchor: middle;
}
svg.railroad-diagram text.diagram-text {
    font-size: 12px;
}
svg.railroad-diagram text.diagram-arrow {
    font-size: 16px;
}
svg.railroad-diagram text.label {
    text-anchor: start;
}
svg.railroad-diagram text.comment {
    font: italic 12px monospace;
}
svg.railroad-diagram g.non-terminal text {
    /*font-style: italic;*/
}
svg.railroad-diagram rect {
    stroke-width: 3;
    stroke: black;
    fill: hsl(120,100%,90%);
}
svg.railroad-diagram path.diagram-text {
    stroke-width: 3;
    stroke: black;
    fill: white;
    cursor: help;
}
svg.railroad-diagram g.diagram-text:hover path.diagram-text {
    fill: #eee;
}
/* ]]> */
</style>
<g transform="translate(.5 .5)">
<g>
<path d="M20 171v20m10 -20v20m-10 -10h20"></path>
</g>
<g>
<path d="M40 181h0"></path>
<path d="M652 181h0"></path>
<path d="M40 181a10 10 0 0 0 10 -10v-100a10 10 0 0 1 10 -10"></path>
<g>
<path d="M60 61h59.75"></path>
<path d="M572.25 61h59.75"></path>
<g>
<path d="M119.75 61h0"></path>
<path d="M188.25 61h0"></path>
<path d="M119.75 61a10 10 0 0 0 10 -10v-10a10 10 0 0 1 10 -10"></path>
<g class="terminal">
<path d="M139.75 31h0"></path>
<path d="M168.25 31h0"></path>
<rect x="139.75" y="20" width="28.5" height="22" rx="10" ry="10"></rect>
<text x="154" y="35">P</text>
</g>
<path d="M168.25 31a10 10 0 0 1 10 10v10a10 10 0 0 0 10 10"></path>
<path d="M119.75 61h20"></path>
<g class="terminal">
<path d="M139.75 61h0"></path>
<path d="M168.25 61h0"></path>
<rect x="139.75" y="50" width="28.5" height="22" rx="10" ry="10"></rect>
<text x="154" y="65">6</text>
</g>
<path d="M168.25 61h20"></path>
<path d="M119.75 61a10 10 0 0 1 10 10v10a10 10 0 0 0 10 10"></path>
<g class="terminal">
<path d="M139.75 91h0"></path>
<path d="M168.25 91h0"></path>
<rect x="139.75" y="80" width="28.5" height="22" rx="10" ry="10"></rect>
<text x="154" y="95">7</text>
</g>
<path d="M168.25 91a10 10 0 0 0 10 -10v-10a10 10 0 0 1 10 -10"></path>
</g>
<g>
<path d="M188.25 61h0"></path>
<path d="M572.25 61h0"></path>
<path d="M188.25 61h20"></path>
<g>
<path d="M208.25 61h0"></path>
<path d="M552.25 61h0"></path>
<g class="non-terminal">
<path d="M208.25 61h0"></path>
<path d="M279.25 61h0"></path>
<rect x="208.25" y="50" width="71" height="22"></rect>
<text x="243.75" y="65">0 to 9</text>
</g>
<path d="M279.25 61h10"></path>
<path d="M289.25 61h10"></path>
<g class="non-terminal">
<path d="M299.25 61h0"></path>
<path d="M370.25 61h0"></path>
<rect x="299.25" y="50" width="71" height="22"></rect>
<text x="334.75" y="65">0 to 9</text>
</g>
<path d="M370.25 61h10"></path>
<path d="M380.25 61h10"></path>
<g class="non-terminal">
<path d="M390.25 61h0"></path>
<path d="M461.25 61h0"></path>
<rect x="390.25" y="50" width="71" height="22"></rect>
<text x="425.75" y="65">0 to 9</text>
</g>
<path d="M461.25 61h10"></path>
<path d="M471.25 61h10"></path>
<g class="non-terminal">
<path d="M481.25 61h0"></path>
<path d="M552.25 61h0"></path>
<rect x="481.25" y="50" width="71" height="22"></rect>
<text x="516.75" y="65">0 to 9</text>
</g>
</g>
<path d="M552.25 61h20"></path>
<path d="M188.25 61a10 10 0 0 1 10 10v10a10 10 0 0 0 10 10"></path>
<g class="terminal">
<path d="M208.25 91h145"></path>
<path d="M407.25 91h145"></path>
<rect x="353.25" y="80" width="54" height="22" rx="10" ry="10"></rect>
<text x="380.25" y="95">////</text>
</g>
<path d="M552.25 91a10 10 0 0 0 10 -10v-10a10 10 0 0 1 10 -10"></path>
</g>
</g>
<path d="M632 61a10 10 0 0 1 10 10v100a10 10 0 0 0 10 10"></path>
<path d="M40 181h20"></path>
<g>
<path d="M60 181h96.75"></path>
<path d="M535.25 181h96.75"></path>
<g>
<path d="M156.75 181h0"></path>
<path d="M242.25 181h0"></path>
<path d="M156.75 181a10 10 0 0 0 10 -10v-10a10 10 0 0 1 10 -10"></path>
<g class="terminal">
<path d="M176.75 151h0"></path>
<path d="M222.25 151h0"></path>
<rect x="176.75" y="140" width="45.5" height="22" rx="10" ry="10"></rect>
<text x="199.5" y="155">931</text>
</g>
<path d="M222.25 151a10 10 0 0 1 10 10v10a10 10 0 0 0 10 10"></path>
<path d="M156.75 181a10 10 0 0 0 10 -10v-40a10 10 0 0 1 10 -10"></path>
<g class="terminal">
<path d="M176.75 121h4.25"></path>
<path d="M218 121h4.25"></path>
<rect x="181" y="110" width="37" height="22" rx="10" ry="10"></rect>
<text x="199.5" y="125">4/</text>
</g>
<path d="M222.25 121a10 10 0 0 1 10 10v40a10 10 0 0 0 10 10"></path>
<path d="M156.75 181h20"></path>
<g class="terminal">
<path d="M176.75 181h0"></path>
<path d="M222.25 181h0"></path>
<rect x="176.75" y="170" width="45.5" height="22" rx="10" ry="10"></rect>
<text x="199.5" y="185">933</text>
</g>
<path d="M222.25 181h20"></path>
<path d="M156.75 181a10 10 0 0 1 10 10v10a10 10 0 0 0 10 10"></path>
<g class="terminal">
<path d="M176.75 211h4.25"></path>
<path d="M218 211h4.25"></path>
<rect x="181" y="200" width="37" height="22" rx="10" ry="10"></rect>
<text x="199.5" y="215">I1</text>
</g>
<path d="M222.25 211a10 10 0 0 0 10 -10v-10a10 10 0 0 1 10 -10"></path>
<path d="M156.75 181a10 10 0 0 1 10 10v40a10 10 0 0 0 10 10"></path>
<g class="terminal">
<path d="M176.75 241h4.25"></path>
<path d="M218 241h4.25"></path>
<rect x="181" y="230" width="37" height="22" rx="10" ry="10"></rect>
<text x="199.5" y="245">I3</text>
</g>
<path d="M222.25 241a10 10 0 0 0 10 -10v-40a10 10 0 0 1 10 -10"></path>
<path d="M156.75 181a10 10 0 0 1 10 10v70a10 10 0 0 0 10 10"></path>
<g class="terminal">
<path d="M176.75 271h4.25"></path>
<path d="M218 271h4.25"></path>
<rect x="181" y="260" width="37" height="22" rx="10" ry="10"></rect>
<text x="199.5" y="275">I6</text>
</g>
<path d="M222.25 271a10 10 0 0 0 10 -10v-70a10 10 0 0 1 10 -10"></path>
</g>
<g>
<path d="M242.25 181h0"></path>
<path d="M535.25 181h0"></path>
<path d="M242.25 181h20"></path>
<g>
<path d="M262.25 181h0"></path>
<path d="M515.25 181h0"></path>
<g class="non-terminal">
<path d="M262.25 181h0"></path>
<path d="M333.25 181h0"></path>
<rect x="262.25" y="170" width="71" height="22"></rect>
<text x="297.75" y="185">0 to 9</text>
</g>
<path d="M333.25 181h10"></path>
<path d="M343.25 181h10"></path>
<g class="non-terminal">
<path d="M353.25 181h0"></path>
<path d="M424.25 181h0"></path>
<rect x="353.25" y="170" width="71" height="22"></rect>
<text x="388.75" y="185">0 to 9</text>
</g>
<path d="M424.25 181h10"></path>
<path d="M434.25 181h10"></path>
<g class="non-terminal">
<path d="M444.25 181h0"></path>
<path d="M515.25 181h0"></path>
<rect x="444.25" y="170" width="71" height="22"></rect>
<text x="479.75" y="185">0 to 9</text>
</g>
</g>
<path d="M515.25 181h20"></path>
<path d="M242.25 181a10 10 0 0 1 10 10v10a10 10 0 0 0 10 10"></path>
<g class="terminal">
<path d="M262.25 211h103.75"></path>
<path d="M411.5 211h103.75"></path>
<rect x="366" y="200" width="45.5" height="22" rx="10" ry="10"></rect>
<text x="388.75" y="215">///</text>
</g>
<path d="M515.25 211a10 10 0 0 0 10 -10v-10a10 10 0 0 1 10 -10"></path>
</g>
</g>
<path d="M632 181h20"></path>
<path d="M40 181a10 10 0 0 1 10 10v109a10 10 0 0 0 10 10"></path>
<g>
<path d="M60 310h0"></path>
<path d="M632 310h0"></path>
<g class="terminal">
<path d="M60 310h0"></path>
<path d="M131 310h0"></path>
<rect x="60" y="299" width="71" height="22" rx="10" ry="10"></rect>
<text x="95.5" y="314">SNINCR</text>
</g>
<path d="M131 310h10"></path>
<path d="M141 310h10"></path>
<g class="terminal">
<path d="M151 310h0"></path>
<path d="M179.5 310h0"></path>
<rect x="151" y="299" width="28.5" height="22" rx="10" ry="10"></rect>
<text x="165.25" y="314"> </text>
</g>
<path d="M179.5 310h10"></path>
<g>
<path d="M189.5 310h0"></path>
<path d="M300.5 310h0"></path>
<path d="M189.5 310a10 10 0 0 0 10 -10v0a10 10 0 0 1 10 -10"></path>
<g>
<path d="M209.5 290h71"></path>
</g>
<path d="M280.5 290a10 10 0 0 1 10 10v0a10 10 0 0 0 10 10"></path>
<path d="M189.5 310h20"></path>
<g class="non-terminal">
<path d="M209.5 310h0"></path>
<path d="M280.5 310h0"></path>
<rect x="209.5" y="299" width="71" height="22"></rect>
<text x="245" y="314">0 to 9</text>
</g>
<path d="M280.5 310h20"></path>
</g>
<path d="M300.5 310h10"></path>
<g class="non-terminal">
<path d="M310.5 310h0"></path>
<path d="M381.5 310h0"></path>
<rect x="310.5" y="299" width="71" height="22"></rect>
<text x="346" y="314">0 to 9</text>
</g>
<path d="M381.5 310h10"></path>
<path d="M391.5 310h10"></path>
<g class="terminal">
<path d="M401.5 310h0"></path>
<path d="M430 310h0"></path>
<rect x="401.5" y="299" width="28.5" height="22" rx="10" ry="10"></rect>
<text x="415.75" y="314">/</text>
</g>
<path d="M430 310h10"></path>
<g>
<path d="M440 310h0"></path>
<path d="M551 310h0"></path>
<path d="M440 310a10 10 0 0 0 10 -10v0a10 10 0 0 1 10 -10"></path>
<g>
<path d="M460 290h71"></path>
</g>
<path d="M531 290a10 10 0 0 1 10 10v0a10 10 0 0 0 10 10"></path>
<path d="M440 310h20"></path>
<g class="non-terminal">
<path d="M460 310h0"></path>
<path d="M531 310h0"></path>
<rect x="460" y="299" width="71" height="22"></rect>
<text x="495.5" y="314">0 to 9</text>
</g>
<path d="M531 310h20"></path>
</g>
<path d="M551 310h10"></path>
<g class="non-terminal">
<path d="M561 310h0"></path>
<path d="M632 310h0"></path>
<rect x="561" y="299" width="71" height="22"></rect>
<text x="596.5" y="314">0 to 9</text>
</g>
</g>
<path d="M632 310a10 10 0 0 0 10 -10v-109a10 10 0 0 1 10 -10"></path>
</g>
<path d="M 652 181 h 20 m -10 -10 v 20 m 10 -20 v 20"></path>
</g>
</svg>
