<svg xmlns="http://www.w3.org/2000/svg" class="railroad-diagram" width="492.5" height="62" viewBox="0 0 492.5 62">
<style>
/* <![CDATA[ */
svg.railroad-diagram {
    background-color: hsl(30,20%,95%);
}
svg.railroad-diagram path {
    stroke-width: 3;
    stroke: black;
    fill: rgba(0,0,0,0);
}
svg.railroad-diagram text {
    font: bold 14px monospace;
    text-anchor: middle;
}
svg.railroad-diagram text.diagram-text {
    font-size: 12px;
}
svg.railroad-diagram text.diagram-arrow {
    font-size: 16px;
}
svg.railroad-diagram text.label {
    text-anchor: start;
}
svg.railroad-diagram text.comment {
    font: italic 12px monospace;
}
svg.railroad-diagram g.non-terminal text {
    /*font-style: italic;*/
}
svg.railroad-diagram rect {
    stroke-width: 3;
    stroke: black;
    fill: hsl(120,100%,90%);
}
svg.railroad-diagram path.diagram-text {
    stroke-width: 3;
    stroke: black;
    fill: white;
    cursor: help;
}
svg.railroad-diagram g.diagram-text:hover path.diagram-text {
    fill: #eee;
}
/* ]]> */
</style>
<g transform="translate(.5 .5)">
<g>
<path d="M20 21v20m10 -20v20m-10 -10h20"></path>
</g>
<path d="M40 31h10"></path>
<g class="terminal">
<path d="M50 31h0"></path>
<path d="M78.5 31h0"></path>
<rect x="50" y="20" width="28.5" height="22" rx="10" ry="10"></rect>
<text x="64.25" y="35">5</text>
</g>
<path d="M78.5 31h10"></path>
<path d="M88.5 31h10"></path>
<g class="non-terminal">
<path d="M98.5 31h0"></path>
<path d="M169.5 31h0"></path>
<rect x="98.5" y="20" width="71" height="22"></rect>
<text x="134" y="35">0 to 8</text>
</g>
<path d="M169.5 31h10"></path>
<path d="M179.5 31h10"></path>
<g class="non-terminal">
<path d="M189.5 31h0"></path>
<path d="M260.5 31h0"></path>
<rect x="189.5" y="20" width="71" height="22"></rect>
<text x="225" y="35">0 to 9</text>
</g>
<path d="M260.5 31h10"></path>
<path d="M270.5 31h10"></path>
<g class="non-terminal">
<path d="M280.5 31h0"></path>
<path d="M351.5 31h0"></path>
<rect x="280.5" y="20" width="71" height="22"></rect>
<text x="316" y="35">0 to 9</text>
</g>
<path d="M351.5 31h10"></path>
<path d="M361.5 31h10"></path>
<g class="non-terminal">
<path d="M371.5 31h0"></path>
<path d="M442.5 31h0"></path>
<rect x="371.5" y="20" width="71" height="22"></rect>
<text x="407" y="35">0 to 9</text>
</g>
<path d="M442.5 31h10"></path>
<path d="M 452.5 31 h 20 m -10 -10 v 20 m 10 -20 v 20"></path>
</g>
</svg>
