<svg xmlns="http://www.w3.org/2000/svg" class="railroad-diagram" width="562.5" height="152" viewBox="0 0 562.5 152">
<style>
/* <![CDATA[ */
svg.railroad-diagram {
    background-color: hsl(30,20%,95%);
}
svg.railroad-diagram path {
    stroke-width: 3;
    stroke: black;
    fill: rgba(0,0,0,0);
}
svg.railroad-diagram text {
    font: bold 14px monospace;
    text-anchor: middle;
}
svg.railroad-diagram text.diagram-text {
    font-size: 12px;
}
svg.railroad-diagram text.diagram-arrow {
    font-size: 16px;
}
svg.railroad-diagram text.label {
    text-anchor: start;
}
svg.railroad-diagram text.comment {
    font: italic 12px monospace;
}
svg.railroad-diagram g.non-terminal text {
    /*font-style: italic;*/
}
svg.railroad-diagram rect {
    stroke-width: 3;
    stroke: black;
    fill: hsl(120,100%,90%);
}
svg.railroad-diagram path.diagram-text {
    stroke-width: 3;
    stroke: black;
    fill: white;
    cursor: help;
}
svg.railroad-diagram g.diagram-text:hover path.diagram-text {
    fill: #eee;
}
/* ]]> */
</style>
<g transform="translate(.5 .5)">
<g>
<path d="M20 21v20m10 -20v20m-10 -10h20"></path>
</g>
<g>
<path d="M40 31h0"></path>
<path d="M522.5 31h0"></path>
<path d="M40 31h20"></path>
<g>
<path d="M60 31h0"></path>
<path d="M502.5 31h0"></path>
<g class="terminal">
<path d="M60 31h0"></path>
<path d="M88.5 31h0"></path>
<rect x="60" y="20" width="28.5" height="22" rx="10" ry="10"></rect>
<text x="74.25" y="35">5</text>
</g>
<path d="M88.5 31h10"></path>
<g>
<path d="M98.5 31h0"></path>
<path d="M209.5 31h0"></path>
<path d="M98.5 31h20"></path>
<g class="non-terminal">
<path d="M118.5 31h0"></path>
<path d="M189.5 31h0"></path>
<rect x="118.5" y="20" width="71" height="22"></rect>
<text x="154" y="35">0 to 8</text>
</g>
<path d="M189.5 31h20"></path>
<path d="M98.5 31a10 10 0 0 1 10 10v10a10 10 0 0 0 10 10"></path>
<g class="terminal">
<path d="M118.5 61h21.25"></path>
<path d="M168.25 61h21.25"></path>
<rect x="139.75" y="50" width="28.5" height="22" rx="10" ry="10"></rect>
<text x="154" y="65">/</text>
</g>
<path d="M189.5 61a10 10 0 0 0 10 -10v-10a10 10 0 0 1 10 -10"></path>
</g>
<g>
<path d="M209.5 31h0"></path>
<path d="M502.5 31h0"></path>
<path d="M209.5 31h20"></path>
<g>
<path d="M229.5 31h0"></path>
<path d="M482.5 31h0"></path>
<g class="non-terminal">
<path d="M229.5 31h0"></path>
<path d="M300.5 31h0"></path>
<rect x="229.5" y="20" width="71" height="22"></rect>
<text x="265" y="35">0 to 9</text>
</g>
<path d="M300.5 31h10"></path>
<path d="M310.5 31h10"></path>
<g class="non-terminal">
<path d="M320.5 31h0"></path>
<path d="M391.5 31h0"></path>
<rect x="320.5" y="20" width="71" height="22"></rect>
<text x="356" y="35">0 to 9</text>
</g>
<path d="M391.5 31h10"></path>
<path d="M401.5 31h10"></path>
<g class="non-terminal">
<path d="M411.5 31h0"></path>
<path d="M482.5 31h0"></path>
<rect x="411.5" y="20" width="71" height="22"></rect>
<text x="447" y="35">0 to 9</text>
</g>
</g>
<path d="M482.5 31h20"></path>
<path d="M209.5 31a10 10 0 0 1 10 10v10a10 10 0 0 0 10 10"></path>
<g class="terminal">
<path d="M229.5 61h103.75"></path>
<path d="M378.75 61h103.75"></path>
<rect x="333.25" y="50" width="45.5" height="22" rx="10" ry="10"></rect>
<text x="356" y="65">///</text>
</g>
<path d="M482.5 61a10 10 0 0 0 10 -10v-10a10 10 0 0 1 10 -10"></path>
</g>
</g>
<path d="M502.5 31h20"></path>
<path d="M40 31a10 10 0 0 1 10 10v40a10 10 0 0 0 10 10"></path>
<g class="terminal">
<path d="M60 91h185.75"></path>
<path d="M316.75 91h185.75"></path>
<rect x="245.75" y="80" width="71" height="22" rx="10" ry="10"></rect>
<text x="281.25" y="95">PRESRR</text>
</g>
<path d="M502.5 91a10 10 0 0 0 10 -10v-40a10 10 0 0 1 10 -10"></path>
<path d="M40 31a10 10 0 0 1 10 10v70a10 10 0 0 0 10 10"></path>
<g class="terminal">
<path d="M60 121h185.75"></path>
<path d="M316.75 121h185.75"></path>
<rect x="245.75" y="110" width="71" height="22" rx="10" ry="10"></rect>
<text x="281.25" y="125">PRESFR</text>
</g>
<path d="M502.5 121a10 10 0 0 0 10 -10v-70a10 10 0 0 1 10 -10"></path>
</g>
<path d="M 522.5 31 h 20 m -10 -10 v 20 m 10 -20 v 20"></path>
</g>
</svg>
