<svg xmlns="http://www.w3.org/2000/svg" class="railroad-diagram" width="906" height="202" viewBox="0 0 906 202">
<style>
/* <![CDATA[ */
svg.railroad-diagram {
    background-color: hsl(30,20%,95%);
}
svg.railroad-diagram path {
    stroke-width: 3;
    stroke: black;
    fill: rgba(0,0,0,0);
}
svg.railroad-diagram text {
    font: bold 14px monospace;
    text-anchor: middle;
}
svg.railroad-diagram text.diagram-text {
    font-size: 12px;
}
svg.railroad-diagram text.diagram-arrow {
    font-size: 16px;
}
svg.railroad-diagram text.label {
    text-anchor: start;
}
svg.railroad-diagram text.comment {
    font: italic 12px monospace;
}
svg.railroad-diagram g.non-terminal text {
    /*font-style: italic;*/
}
svg.railroad-diagram rect {
    stroke-width: 3;
    stroke: black;
    fill: hsl(120,100%,90%);
}
svg.railroad-diagram path.diagram-text {
    stroke-width: 3;
    stroke: black;
    fill: white;
    cursor: help;
}
svg.railroad-diagram g.diagram-text:hover path.diagram-text {
    fill: #eee;
}
/* ]]> */
</style>
<g transform="translate(.5 .5)">
<g>
<path d="M20 81v20m10 -20v20m-10 -10h20"></path>
</g>
<g>
<path d="M40 91h0"></path>
<path d="M866 91h0"></path>
<path d="M40 91a10 10 0 0 0 10 -10v-40a10 10 0 0 1 10 -10"></path>
<g>
<path d="M60 31h200.75"></path>
<path d="M645.25 31h200.75"></path>
<g>
<path d="M260.75 31h0"></path>
<path d="M329.25 31h0"></path>
<path d="M260.75 31h20"></path>
<g class="terminal">
<path d="M280.75 31h0"></path>
<path d="M309.25 31h0"></path>
<rect x="280.75" y="20" width="28.5" height="22" rx="10" ry="10"></rect>
<text x="295" y="35">Q</text>
</g>
<path d="M309.25 31h20"></path>
<path d="M260.75 31a10 10 0 0 1 10 10v10a10 10 0 0 0 10 10"></path>
<g class="terminal">
<path d="M280.75 61h0"></path>
<path d="M309.25 61h0"></path>
<rect x="280.75" y="50" width="28.5" height="22" rx="10" ry="10"></rect>
<text x="295" y="65">A</text>
</g>
<path d="M309.25 61a10 10 0 0 0 10 -10v-10a10 10 0 0 1 10 -10"></path>
</g>
<g>
<path d="M329.25 31h0"></path>
<path d="M645.25 31h0"></path>
<path d="M329.25 31h20"></path>
<g>
<path d="M349.25 31h0"></path>
<path d="M625.25 31h0"></path>
<g class="non-terminal">
<path d="M349.25 31h0"></path>
<path d="M403.25 31h0"></path>
<rect x="349.25" y="20" width="54" height="22"></rect>
<text x="376.25" y="35">0..9</text>
</g>
<path d="M403.25 31h10"></path>
<path d="M413.25 31h10"></path>
<g class="non-terminal">
<path d="M423.25 31h0"></path>
<path d="M477.25 31h0"></path>
<rect x="423.25" y="20" width="54" height="22"></rect>
<text x="450.25" y="35">0..9</text>
</g>
<path d="M477.25 31h10"></path>
<path d="M487.25 31h10"></path>
<g class="non-terminal">
<path d="M497.25 31h0"></path>
<path d="M551.25 31h0"></path>
<rect x="497.25" y="20" width="54" height="22"></rect>
<text x="524.25" y="35">0..9</text>
</g>
<path d="M551.25 31h10"></path>
<path d="M561.25 31h10"></path>
<g class="non-terminal">
<path d="M571.25 31h0"></path>
<path d="M625.25 31h0"></path>
<rect x="571.25" y="20" width="54" height="22"></rect>
<text x="598.25" y="35">0..9</text>
</g>
</g>
<path d="M625.25 31h20"></path>
<path d="M329.25 31a10 10 0 0 1 10 10v10a10 10 0 0 0 10 10"></path>
<g class="terminal">
<path d="M349.25 61h111"></path>
<path d="M514.25 61h111"></path>
<rect x="460.25" y="50" width="54" height="22" rx="10" ry="10"></rect>
<text x="487.25" y="65">////</text>
</g>
<path d="M625.25 61a10 10 0 0 0 10 -10v-10a10 10 0 0 1 10 -10"></path>
</g>
</g>
<path d="M846 31a10 10 0 0 1 10 10v40a10 10 0 0 0 10 10"></path>
<path d="M40 91h20"></path>
<g>
<path d="M60 91h189.5"></path>
<path d="M656.5 91h189.5"></path>
<g class="terminal">
<path d="M249.5 91h0"></path>
<path d="M295 91h0"></path>
<rect x="249.5" y="80" width="45.5" height="22" rx="10" ry="10"></rect>
<text x="272.25" y="95">QNH</text>
</g>
<path d="M295 91h10"></path>
<path d="M305 91h10"></path>
<g class="non-terminal">
<path d="M315 91h0"></path>
<path d="M369 91h0"></path>
<rect x="315" y="80" width="54" height="22"></rect>
<text x="342" y="95">0..9</text>
</g>
<path d="M369 91h10"></path>
<path d="M379 91h10"></path>
<g class="non-terminal">
<path d="M389 91h0"></path>
<path d="M443 91h0"></path>
<rect x="389" y="80" width="54" height="22"></rect>
<text x="416" y="95">0..9</text>
</g>
<path d="M443 91h10"></path>
<path d="M453 91h10"></path>
<g class="non-terminal">
<path d="M463 91h0"></path>
<path d="M517 91h0"></path>
<rect x="463" y="80" width="54" height="22"></rect>
<text x="490" y="95">0..9</text>
</g>
<path d="M517 91h10"></path>
<path d="M527 91h10"></path>
<g class="non-terminal">
<path d="M537 91h0"></path>
<path d="M591 91h0"></path>
<rect x="537" y="80" width="54" height="22"></rect>
<text x="564" y="95">0..9</text>
</g>
<path d="M591 91h10"></path>
<path d="M601 91h10"></path>
<g class="terminal">
<path d="M611 91h0"></path>
<path d="M656.5 91h0"></path>
<rect x="611" y="80" width="45.5" height="22" rx="10" ry="10"></rect>
<text x="633.75" y="95">INS</text>
</g>
</g>
<path d="M846 91h20"></path>
<path d="M40 91a10 10 0 0 1 10 10v10a10 10 0 0 0 10 10"></path>
<g>
<path d="M60 121h0"></path>
<path d="M846 121h0"></path>
<g>
<path d="M60 121h0"></path>
<path d="M154 121h0"></path>
<text x="107" y="126" class="comment">Remarks only</text>
</g>
<path d="M154 121h10"></path>
<g>
<path d="M164 121h0"></path>
<path d="M846 121h0"></path>
<path d="M164 121h20"></path>
<g>
<path d="M184 121h187.25"></path>
<path d="M638.75 121h187.25"></path>
<g class="terminal">
<path d="M371.25 121h0"></path>
<path d="M416.75 121h0"></path>
<rect x="371.25" y="110" width="45.5" height="22" rx="10" ry="10"></rect>
<text x="394" y="125">SLP</text>
</g>
<path d="M416.75 121h10"></path>
<path d="M426.75 121h10"></path>
<g class="non-terminal">
<path d="M436.75 121h0"></path>
<path d="M490.75 121h0"></path>
<rect x="436.75" y="110" width="54" height="22"></rect>
<text x="463.75" y="125">0..9</text>
</g>
<path d="M490.75 121h10"></path>
<path d="M500.75 121h10"></path>
<g class="non-terminal">
<path d="M510.75 121h0"></path>
<path d="M564.75 121h0"></path>
<rect x="510.75" y="110" width="54" height="22"></rect>
<text x="537.75" y="125">0..9</text>
</g>
<path d="M564.75 121h10"></path>
<path d="M574.75 121h10"></path>
<g class="non-terminal">
<path d="M584.75 121h0"></path>
<path d="M638.75 121h0"></path>
<rect x="584.75" y="110" width="54" height="22"></rect>
<text x="611.75" y="125">0..9</text>
</g>
</g>
<path d="M826 121h20"></path>
<path d="M164 121a10 10 0 0 1 10 10v10a10 10 0 0 0 10 10"></path>
<g>
<path d="M184 151h0"></path>
<path d="M826 151h0"></path>
<g class="terminal">
<path d="M184 151h0"></path>
<path d="M229.5 151h0"></path>
<rect x="184" y="140" width="45.5" height="22" rx="10" ry="10"></rect>
<text x="206.75" y="155">QFE</text>
</g>
<path d="M229.5 151h10"></path>
<path d="M239.5 151h10"></path>
<g class="non-terminal">
<path d="M249.5 151h0"></path>
<path d="M303.5 151h0"></path>
<rect x="249.5" y="140" width="54" height="22"></rect>
<text x="276.5" y="155">0..9</text>
</g>
<path d="M303.5 151h10"></path>
<path d="M313.5 151h10"></path>
<g class="non-terminal">
<path d="M323.5 151h0"></path>
<path d="M377.5 151h0"></path>
<rect x="323.5" y="140" width="54" height="22"></rect>
<text x="350.5" y="155">0..9</text>
</g>
<path d="M377.5 151h10"></path>
<path d="M387.5 151h10"></path>
<g class="non-terminal">
<path d="M397.5 151h0"></path>
<path d="M451.5 151h0"></path>
<rect x="397.5" y="140" width="54" height="22"></rect>
<text x="424.5" y="155">0..9</text>
</g>
<path d="M451.5 151h10"></path>
<g>
<path d="M461.5 151h0"></path>
<path d="M826 151h0"></path>
<path d="M461.5 151h20"></path>
<g>
<path d="M481.5 151h324.5"></path>
</g>
<path d="M806 151h20"></path>
<path d="M461.5 151a10 10 0 0 1 10 10v0a10 10 0 0 0 10 10"></path>
<g>
<path d="M481.5 171h0"></path>
<path d="M806 171h0"></path>
<g class="terminal">
<path d="M481.5 171h0"></path>
<path d="M510 171h0"></path>
<rect x="481.5" y="160" width="28.5" height="22" rx="10" ry="10"></rect>
<text x="495.75" y="175">/</text>
</g>
<path d="M510 171h10"></path>
<path d="M520 171h10"></path>
<g class="non-terminal">
<path d="M530 171h0"></path>
<path d="M584 171h0"></path>
<rect x="530" y="160" width="54" height="22"></rect>
<text x="557" y="175">0..9</text>
</g>
<path d="M584 171h10"></path>
<path d="M594 171h10"></path>
<g class="non-terminal">
<path d="M604 171h0"></path>
<path d="M658 171h0"></path>
<rect x="604" y="160" width="54" height="22"></rect>
<text x="631" y="175">0..9</text>
</g>
<path d="M658 171h10"></path>
<path d="M668 171h10"></path>
<g class="non-terminal">
<path d="M678 171h0"></path>
<path d="M732 171h0"></path>
<rect x="678" y="160" width="54" height="22"></rect>
<text x="705" y="175">0..9</text>
</g>
<path d="M732 171h10"></path>
<path d="M742 171h10"></path>
<g class="non-terminal">
<path d="M752 171h0"></path>
<path d="M806 171h0"></path>
<rect x="752" y="160" width="54" height="22"></rect>
<text x="779" y="175">0..9</text>
</g>
</g>
<path d="M806 171a10 10 0 0 0 10 -10v0a10 10 0 0 1 10 -10"></path>
</g>
</g>
<path d="M826 151a10 10 0 0 0 10 -10v-10a10 10 0 0 1 10 -10"></path>
</g>
</g>
<path d="M846 121a10 10 0 0 0 10 -10v-10a10 10 0 0 1 10 -10"></path>
</g>
<path d="M 866 91 h 20 m -10 -10 v 20 m 10 -20 v 20"></path>
</g>
</svg>