<svg xmlns="http://www.w3.org/2000/svg" class="railroad-diagram" width="527" height="122" viewBox="0 0 527 122">
<style>
/* <![CDATA[ */
svg.railroad-diagram {
    background-color: hsl(30,20%,95%);
}
svg.railroad-diagram path {
    stroke-width: 3;
    stroke: black;
    fill: rgba(0,0,0,0);
}
svg.railroad-diagram text {
    font: bold 14px monospace;
    text-anchor: middle;
}
svg.railroad-diagram text.diagram-text {
    font-size: 12px;
}
svg.railroad-diagram text.diagram-arrow {
    font-size: 16px;
}
svg.railroad-diagram text.label {
    text-anchor: start;
}
svg.railroad-diagram text.comment {
    font: italic 12px monospace;
}
svg.railroad-diagram g.non-terminal text {
    /*font-style: italic;*/
}
svg.railroad-diagram rect {
    stroke-width: 3;
    stroke: black;
    fill: hsl(120,100%,90%);
}
svg.railroad-diagram path.diagram-text {
    stroke-width: 3;
    stroke: black;
    fill: white;
    cursor: help;
}
svg.railroad-diagram g.diagram-text:hover path.diagram-text {
    fill: #eee;
}
/* ]]> */
</style>
<g transform="translate(.5 .5)">
<g>
<path d="M20 21v20m10 -20v20m-10 -10h20"></path>
</g>
<g>
<path d="M40 31h0"></path>
<path d="M487 31h0"></path>
<path d="M40 31h20"></path>
<g>
<path d="M60 31h11.25"></path>
<path d="M455.75 31h11.25"></path>
<g>
<path d="M71.25 31h0"></path>
<path d="M139.75 31h0"></path>
<path d="M71.25 31h20"></path>
<g class="terminal">
<path d="M91.25 31h0"></path>
<path d="M119.75 31h0"></path>
<rect x="91.25" y="20" width="28.5" height="22" rx="10" ry="10"></rect>
<text x="105.5" y="35">Q</text>
</g>
<path d="M119.75 31h20"></path>
<path d="M71.25 31a10 10 0 0 1 10 10v10a10 10 0 0 0 10 10"></path>
<g class="terminal">
<path d="M91.25 61h0"></path>
<path d="M119.75 61h0"></path>
<rect x="91.25" y="50" width="28.5" height="22" rx="10" ry="10"></rect>
<text x="105.5" y="65">A</text>
</g>
<path d="M119.75 61a10 10 0 0 0 10 -10v-10a10 10 0 0 1 10 -10"></path>
</g>
<g>
<path d="M139.75 31h0"></path>
<path d="M455.75 31h0"></path>
<path d="M139.75 31h20"></path>
<g>
<path d="M159.75 31h0"></path>
<path d="M435.75 31h0"></path>
<g class="non-terminal">
<path d="M159.75 31h0"></path>
<path d="M213.75 31h0"></path>
<rect x="159.75" y="20" width="54" height="22"></rect>
<text x="186.75" y="35">0..9</text>
</g>
<path d="M213.75 31h10"></path>
<path d="M223.75 31h10"></path>
<g class="non-terminal">
<path d="M233.75 31h0"></path>
<path d="M287.75 31h0"></path>
<rect x="233.75" y="20" width="54" height="22"></rect>
<text x="260.75" y="35">0..9</text>
</g>
<path d="M287.75 31h10"></path>
<path d="M297.75 31h10"></path>
<g class="non-terminal">
<path d="M307.75 31h0"></path>
<path d="M361.75 31h0"></path>
<rect x="307.75" y="20" width="54" height="22"></rect>
<text x="334.75" y="35">0..9</text>
</g>
<path d="M361.75 31h10"></path>
<path d="M371.75 31h10"></path>
<g class="non-terminal">
<path d="M381.75 31h0"></path>
<path d="M435.75 31h0"></path>
<rect x="381.75" y="20" width="54" height="22"></rect>
<text x="408.75" y="35">0..9</text>
</g>
</g>
<path d="M435.75 31h20"></path>
<path d="M139.75 31a10 10 0 0 1 10 10v10a10 10 0 0 0 10 10"></path>
<g class="terminal">
<path d="M159.75 61h111"></path>
<path d="M324.75 61h111"></path>
<rect x="270.75" y="50" width="54" height="22" rx="10" ry="10"></rect>
<text x="297.75" y="65">////</text>
</g>
<path d="M435.75 61a10 10 0 0 0 10 -10v-10a10 10 0 0 1 10 -10"></path>
</g>
</g>
<path d="M467 31h20"></path>
<path d="M40 31a10 10 0 0 1 10 10v40a10 10 0 0 0 10 10"></path>
<g>
<path d="M60 91h0"></path>
<path d="M467 91h0"></path>
<g class="terminal">
<path d="M60 91h0"></path>
<path d="M105.5 91h0"></path>
<rect x="60" y="80" width="45.5" height="22" rx="10" ry="10"></rect>
<text x="82.75" y="95">QNH</text>
</g>
<path d="M105.5 91h10"></path>
<path d="M115.5 91h10"></path>
<g class="non-terminal">
<path d="M125.5 91h0"></path>
<path d="M179.5 91h0"></path>
<rect x="125.5" y="80" width="54" height="22"></rect>
<text x="152.5" y="95">0..9</text>
</g>
<path d="M179.5 91h10"></path>
<path d="M189.5 91h10"></path>
<g class="non-terminal">
<path d="M199.5 91h0"></path>
<path d="M253.5 91h0"></path>
<rect x="199.5" y="80" width="54" height="22"></rect>
<text x="226.5" y="95">0..9</text>
</g>
<path d="M253.5 91h10"></path>
<path d="M263.5 91h10"></path>
<g class="non-terminal">
<path d="M273.5 91h0"></path>
<path d="M327.5 91h0"></path>
<rect x="273.5" y="80" width="54" height="22"></rect>
<text x="300.5" y="95">0..9</text>
</g>
<path d="M327.5 91h10"></path>
<path d="M337.5 91h10"></path>
<g class="non-terminal">
<path d="M347.5 91h0"></path>
<path d="M401.5 91h0"></path>
<rect x="347.5" y="80" width="54" height="22"></rect>
<text x="374.5" y="95">0..9</text>
</g>
<path d="M401.5 91h10"></path>
<path d="M411.5 91h10"></path>
<g class="terminal">
<path d="M421.5 91h0"></path>
<path d="M467 91h0"></path>
<rect x="421.5" y="80" width="45.5" height="22" rx="10" ry="10"></rect>
<text x="444.25" y="95">INS</text>
</g>
</g>
<path d="M467 91a10 10 0 0 0 10 -10v-40a10 10 0 0 1 10 -10"></path>
</g>
<path d="M 487 31 h 20 m -10 -10 v 20 m 10 -20 v 20"></path>
</g>
</svg>