<svg xmlns="http://www.w3.org/2000/svg" class="railroad-diagram" width="464.5" height="92" viewBox="0 0 464.5 92">
<style>
/* <![CDATA[ */
svg.railroad-diagram {
    background-color: hsl(30,20%,95%);
}
svg.railroad-diagram path {
    stroke-width: 3;
    stroke: black;
    fill: rgba(0,0,0,0);
}
svg.railroad-diagram text {
    font: bold 14px monospace;
    text-anchor: middle;
}
svg.railroad-diagram text.diagram-text {
    font-size: 12px;
}
svg.railroad-diagram text.diagram-arrow {
    font-size: 16px;
}
svg.railroad-diagram text.label {
    text-anchor: start;
}
svg.railroad-diagram text.comment {
    font: italic 12px monospace;
}
svg.railroad-diagram g.non-terminal text {
    /*font-style: italic;*/
}
svg.railroad-diagram rect {
    stroke-width: 3;
    stroke: black;
    fill: hsl(120,100%,90%);
}
svg.railroad-diagram path.diagram-text {
    stroke-width: 3;
    stroke: black;
    fill: white;
    cursor: help;
}
svg.railroad-diagram g.diagram-text:hover path.diagram-text {
    fill: #eee;
}
/* ]]> */
</style>
<g transform="translate(.5 .5)">
<g>
<path d="M20 21v20m10 -20v20m-10 -10h20"></path>
</g>
<g>
<path d="M40 31h0"></path>
<path d="M108.5 31h0"></path>
<path d="M40 31h20"></path>
<g class="terminal">
<path d="M60 31h0"></path>
<path d="M88.5 31h0"></path>
<rect x="60" y="20" width="28.5" height="22" rx="10" ry="10"></rect>
<text x="74.25" y="35">Q</text>
</g>
<path d="M88.5 31h20"></path>
<path d="M40 31a10 10 0 0 1 10 10v10a10 10 0 0 0 10 10"></path>
<g class="terminal">
<path d="M60 61h0"></path>
<path d="M88.5 61h0"></path>
<rect x="60" y="50" width="28.5" height="22" rx="10" ry="10"></rect>
<text x="74.25" y="65">A</text>
</g>
<path d="M88.5 61a10 10 0 0 0 10 -10v-10a10 10 0 0 1 10 -10"></path>
</g>
<g>
<path d="M108.5 31h0"></path>
<path d="M424.5 31h0"></path>
<path d="M108.5 31h20"></path>
<g>
<path d="M128.5 31h0"></path>
<path d="M404.5 31h0"></path>
<g class="non-terminal">
<path d="M128.5 31h0"></path>
<path d="M182.5 31h0"></path>
<rect x="128.5" y="20" width="54" height="22"></rect>
<text x="155.5" y="35">0..9</text>
</g>
<path d="M182.5 31h10"></path>
<path d="M192.5 31h10"></path>
<g class="non-terminal">
<path d="M202.5 31h0"></path>
<path d="M256.5 31h0"></path>
<rect x="202.5" y="20" width="54" height="22"></rect>
<text x="229.5" y="35">0..9</text>
</g>
<path d="M256.5 31h10"></path>
<path d="M266.5 31h10"></path>
<g class="non-terminal">
<path d="M276.5 31h0"></path>
<path d="M330.5 31h0"></path>
<rect x="276.5" y="20" width="54" height="22"></rect>
<text x="303.5" y="35">0..9</text>
</g>
<path d="M330.5 31h10"></path>
<path d="M340.5 31h10"></path>
<g class="non-terminal">
<path d="M350.5 31h0"></path>
<path d="M404.5 31h0"></path>
<rect x="350.5" y="20" width="54" height="22"></rect>
<text x="377.5" y="35">0..9</text>
</g>
</g>
<path d="M404.5 31h20"></path>
<path d="M108.5 31a10 10 0 0 1 10 10v10a10 10 0 0 0 10 10"></path>
<g class="terminal">
<path d="M128.5 61h111"></path>
<path d="M293.5 61h111"></path>
<rect x="239.5" y="50" width="54" height="22" rx="10" ry="10"></rect>
<text x="266.5" y="65">////</text>
</g>
<path d="M404.5 61a10 10 0 0 0 10 -10v-10a10 10 0 0 1 10 -10"></path>
</g>
<path d="M 424.5 31 h 20 m -10 -10 v 20 m 10 -20 v 20"></path>
</g>
</svg>
