<svg xmlns="http://www.w3.org/2000/svg" class="railroad-diagram" width="532.5" height="92" viewBox="0 0 532.5 92">
<style>
/* <![CDATA[ */
svg.railroad-diagram {
    background-color: hsl(30,20%,95%);
}
svg.railroad-diagram path {
    stroke-width: 3;
    stroke: black;
    fill: rgba(0,0,0,0);
}
svg.railroad-diagram text {
    font: bold 14px monospace;
    text-anchor: middle;
}
svg.railroad-diagram text.diagram-text {
    font-size: 12px;
}
svg.railroad-diagram text.diagram-arrow {
    font-size: 16px;
}
svg.railroad-diagram text.label {
    text-anchor: start;
}
svg.railroad-diagram text.comment {
    font: italic 12px monospace;
}
svg.railroad-diagram g.non-terminal text {
    /*font-style: italic;*/
}
svg.railroad-diagram rect {
    stroke-width: 3;
    stroke: black;
    fill: hsl(120,100%,90%);
}
svg.railroad-diagram path.diagram-text {
    stroke-width: 3;
    stroke: black;
    fill: white;
    cursor: help;
}
svg.railroad-diagram g.diagram-text:hover path.diagram-text {
    fill: #eee;
}
/* ]]> */
</style>
<g transform="translate(.5 .5)">
<g>
<path d="M20 21v20m10 -20v20m-10 -10h20"></path>
</g>
<path d="M40 31h10"></path>
<g class="terminal">
<path d="M50 31h0"></path>
<path d="M78.5 31h0"></path>
<rect x="50" y="20" width="28.5" height="22" rx="10" ry="10"></rect>
<text x="64.25" y="35">5</text>
</g>
<path d="M78.5 31h10"></path>
<g>
<path d="M88.5 31h0"></path>
<path d="M199.5 31h0"></path>
<path d="M88.5 31h20"></path>
<g class="non-terminal">
<path d="M108.5 31h0"></path>
<path d="M179.5 31h0"></path>
<rect x="108.5" y="20" width="71" height="22"></rect>
<text x="144" y="35">0 to 8</text>
</g>
<path d="M179.5 31h20"></path>
<path d="M88.5 31a10 10 0 0 1 10 10v10a10 10 0 0 0 10 10"></path>
<g class="terminal">
<path d="M108.5 61h21.25"></path>
<path d="M158.25 61h21.25"></path>
<rect x="129.75" y="50" width="28.5" height="22" rx="10" ry="10"></rect>
<text x="144" y="65">/</text>
</g>
<path d="M179.5 61a10 10 0 0 0 10 -10v-10a10 10 0 0 1 10 -10"></path>
</g>
<g>
<path d="M199.5 31h0"></path>
<path d="M492.5 31h0"></path>
<path d="M199.5 31h20"></path>
<g>
<path d="M219.5 31h0"></path>
<path d="M472.5 31h0"></path>
<g class="non-terminal">
<path d="M219.5 31h0"></path>
<path d="M290.5 31h0"></path>
<rect x="219.5" y="20" width="71" height="22"></rect>
<text x="255" y="35">0 to 9</text>
</g>
<path d="M290.5 31h10"></path>
<path d="M300.5 31h10"></path>
<g class="non-terminal">
<path d="M310.5 31h0"></path>
<path d="M381.5 31h0"></path>
<rect x="310.5" y="20" width="71" height="22"></rect>
<text x="346" y="35">0 to 9</text>
</g>
<path d="M381.5 31h10"></path>
<path d="M391.5 31h10"></path>
<g class="non-terminal">
<path d="M401.5 31h0"></path>
<path d="M472.5 31h0"></path>
<rect x="401.5" y="20" width="71" height="22"></rect>
<text x="437" y="35">0 to 9</text>
</g>
</g>
<path d="M472.5 31h20"></path>
<path d="M199.5 31a10 10 0 0 1 10 10v10a10 10 0 0 0 10 10"></path>
<g class="terminal">
<path d="M219.5 61h103.75"></path>
<path d="M368.75 61h103.75"></path>
<rect x="323.25" y="50" width="45.5" height="22" rx="10" ry="10"></rect>
<text x="346" y="65">///</text>
</g>
<path d="M472.5 61a10 10 0 0 0 10 -10v-10a10 10 0 0 1 10 -10"></path>
</g>
<path d="M 492.5 31 h 20 m -10 -10 v 20 m 10 -20 v 20"></path>
</g>
</svg>
