<svg xmlns="http://www.w3.org/2000/svg" class="railroad-diagram" width="572.5" height="62" viewBox="0 0 572.5 62">
<style>
/* <![CDATA[ */
svg.railroad-diagram {
    background-color: hsl(30,20%,95%);
}
svg.railroad-diagram path {
    stroke-width: 3;
    stroke: black;
    fill: rgba(0,0,0,0);
}
svg.railroad-diagram text {
    font: bold 14px monospace;
    text-anchor: middle;
}
svg.railroad-diagram text.diagram-text {
    font-size: 12px;
}
svg.railroad-diagram text.diagram-arrow {
    font-size: 16px;
}
svg.railroad-diagram text.label {
    text-anchor: start;
}
svg.railroad-diagram text.comment {
    font: italic 12px monospace;
}
svg.railroad-diagram g.non-terminal text {
    /*font-style: italic;*/
}
svg.railroad-diagram rect {
    stroke-width: 3;
    stroke: black;
    fill: hsl(120,100%,90%);
}
svg.railroad-diagram path.diagram-text {
    stroke-width: 3;
    stroke: black;
    fill: white;
    cursor: help;
}
svg.railroad-diagram g.diagram-text:hover path.diagram-text {
    fill: #eee;
}
/* ]]> */
</style>
<g transform="translate(.5 .5)">
<g>
<path d="M20 21v20m10 -20v20m-10 -10h20"></path>
</g>
<path d="M40 31h10"></path>
<g class="non-terminal">
<path d="M50 31h0"></path>
<path d="M104 31h0"></path>
<rect x="50" y="20" width="54" height="22"></rect>
<text x="77" y="35">0..9</text>
</g>
<path d="M104 31h10"></path>
<path d="M114 31h10"></path>
<g class="non-terminal">
<path d="M124 31h0"></path>
<path d="M178 31h0"></path>
<rect x="124" y="20" width="54" height="22"></rect>
<text x="151" y="35">0..9</text>
</g>
<path d="M178 31h10"></path>
<path d="M188 31h10"></path>
<g class="non-terminal">
<path d="M198 31h0"></path>
<path d="M252 31h0"></path>
<rect x="198" y="20" width="54" height="22"></rect>
<text x="225" y="35">0..9</text>
</g>
<path d="M252 31h10"></path>
<path d="M262 31h10"></path>
<g class="non-terminal">
<path d="M272 31h0"></path>
<path d="M326 31h0"></path>
<rect x="272" y="20" width="54" height="22"></rect>
<text x="299" y="35">0..9</text>
</g>
<path d="M326 31h10"></path>
<path d="M336 31h10"></path>
<g class="non-terminal">
<path d="M346 31h0"></path>
<path d="M400 31h0"></path>
<rect x="346" y="20" width="54" height="22"></rect>
<text x="373" y="35">0..9</text>
</g>
<path d="M400 31h10"></path>
<path d="M410 31h10"></path>
<g class="non-terminal">
<path d="M420 31h0"></path>
<path d="M474 31h0"></path>
<rect x="420" y="20" width="54" height="22"></rect>
<text x="447" y="35">0..9</text>
</g>
<path d="M474 31h10"></path>
<path d="M484 31h10"></path>
<g class="terminal">
<path d="M494 31h0"></path>
<path d="M522.5 31h0"></path>
<rect x="494" y="20" width="28.5" height="22" rx="10" ry="10"></rect>
<text x="508.25" y="35">Z</text>
</g>
<path d="M522.5 31h10"></path>
<path d="M 532.5 31 h 20 m -10 -10 v 20 m 10 -20 v 20"></path>
</g>
</svg>
