<svg xmlns="http://www.w3.org/2000/svg" class="railroad-diagram" width="1027.5" height="202" viewBox="0 0 1027.5 202">
<style>
/* <![CDATA[ */
svg.railroad-diagram {
    background-color: hsl(30,20%,95%);
}
svg.railroad-diagram path {
    stroke-width: 3;
    stroke: black;
    fill: rgba(0,0,0,0);
}
svg.railroad-diagram text {
    font: bold 14px monospace;
    text-anchor: middle;
}
svg.railroad-diagram text.diagram-text {
    font-size: 12px;
}
svg.railroad-diagram text.diagram-arrow {
    font-size: 16px;
}
svg.railroad-diagram text.label {
    text-anchor: start;
}
svg.railroad-diagram text.comment {
    font: italic 12px monospace;
}
svg.railroad-diagram g.non-terminal text {
    /*font-style: italic;*/
}
svg.railroad-diagram rect {
    stroke-width: 3;
    stroke: black;
    fill: hsl(120,100%,90%);
}
svg.railroad-diagram path.diagram-text {
    stroke-width: 3;
    stroke: black;
    fill: white;
    cursor: help;
}
svg.railroad-diagram g.diagram-text:hover path.diagram-text {
    fill: #eee;
}
/* ]]> */
</style>
<g transform="translate(.5 .5)">
<g>
<path d="M20 71v20m10 -20v20m-10 -10h20"></path>
</g>
<g>
<path d="M40 81h0"></path>
<path d="M335 81h0"></path>
<path d="M40 81a10 10 0 0 0 10 -10v-30a10 10 0 0 1 10 -10"></path>
<g class="terminal">
<path d="M60 31h104.75"></path>
<path d="M210.25 31h104.75"></path>
<rect x="164.75" y="20" width="45.5" height="22" rx="10" ry="10"></rect>
<text x="187.5" y="35">R88</text>
</g>
<path d="M315 31a10 10 0 0 1 10 10v30a10 10 0 0 0 10 10"></path>
<path d="M40 81h20"></path>
<g>
<path d="M60 81h0"></path>
<path d="M315 81h0"></path>
<g class="terminal">
<path d="M60 81h0"></path>
<path d="M88.5 81h0"></path>
<rect x="60" y="70" width="28.5" height="22" rx="10" ry="10"></rect>
<text x="74.25" y="85">R</text>
</g>
<path d="M88.5 81h10"></path>
<path d="M98.5 81h10"></path>
<g class="non-terminal">
<path d="M108.5 81h0"></path>
<path d="M162.5 81h0"></path>
<rect x="108.5" y="70" width="54" height="22"></rect>
<text x="135.5" y="85">0..9</text>
</g>
<path d="M162.5 81h10"></path>
<path d="M172.5 81h10"></path>
<g class="non-terminal">
<path d="M182.5 81h0"></path>
<path d="M236.5 81h0"></path>
<rect x="182.5" y="70" width="54" height="22"></rect>
<text x="209.5" y="85">0..9</text>
</g>
<path d="M236.5 81h10"></path>
<g>
<path d="M246.5 81h0"></path>
<path d="M315 81h0"></path>
<path d="M246.5 81a10 10 0 0 0 10 -10v0a10 10 0 0 1 10 -10"></path>
<g class="terminal">
<path d="M266.5 61h0"></path>
<path d="M295 61h0"></path>
<rect x="266.5" y="50" width="28.5" height="22" rx="10" ry="10"></rect>
<text x="280.75" y="65">R</text>
</g>
<path d="M295 61a10 10 0 0 1 10 10v0a10 10 0 0 0 10 10"></path>
<path d="M246.5 81h20"></path>
<g>
<path d="M266.5 81h28.5"></path>
</g>
<path d="M295 81h20"></path>
<path d="M246.5 81a10 10 0 0 1 10 10v0a10 10 0 0 0 10 10"></path>
<g class="terminal">
<path d="M266.5 101h0"></path>
<path d="M295 101h0"></path>
<rect x="266.5" y="90" width="28.5" height="22" rx="10" ry="10"></rect>
<text x="280.75" y="105">L</text>
</g>
<path d="M295 101a10 10 0 0 0 10 -10v0a10 10 0 0 1 10 -10"></path>
<path d="M246.5 81a10 10 0 0 1 10 10v30a10 10 0 0 0 10 10"></path>
<g class="terminal">
<path d="M266.5 131h0"></path>
<path d="M295 131h0"></path>
<rect x="266.5" y="120" width="28.5" height="22" rx="10" ry="10"></rect>
<text x="280.75" y="135">C</text>
</g>
<path d="M295 131a10 10 0 0 0 10 -10v-30a10 10 0 0 1 10 -10"></path>
</g>
</g>
<path d="M315 81h20"></path>
<path d="M40 81a10 10 0 0 1 10 10v60a10 10 0 0 0 10 10"></path>
<g class="terminal">
<path d="M60 161h104.75"></path>
<path d="M210.25 161h104.75"></path>
<rect x="164.75" y="150" width="45.5" height="22" rx="10" ry="10"></rect>
<text x="187.5" y="165">R99</text>
</g>
<path d="M315 161a10 10 0 0 0 10 -10v-60a10 10 0 0 1 10 -10"></path>
</g>
<path d="M335 81h10"></path>
<g class="terminal">
<path d="M345 81h0"></path>
<path d="M373.5 81h0"></path>
<rect x="345" y="70" width="28.5" height="22" rx="10" ry="10"></rect>
<text x="359.25" y="85">/</text>
</g>
<path d="M373.5 81h10"></path>
<g>
<path d="M383.5 81h0"></path>
<path d="M987.5 81h0"></path>
<path d="M383.5 81h20"></path>
<g>
<path d="M403.5 81h0"></path>
<path d="M967.5 81h0"></path>
<g>
<path d="M403.5 81h0"></path>
<path d="M799.5 81h0"></path>
<path d="M403.5 81h20"></path>
<g>
<path d="M423.5 81h0"></path>
<path d="M779.5 81h0"></path>
<g>
<path d="M423.5 81h0"></path>
<path d="M517.5 81h0"></path>
<path d="M423.5 81h20"></path>
<g class="non-terminal">
<path d="M443.5 81h0"></path>
<path d="M497.5 81h0"></path>
<rect x="443.5" y="70" width="54" height="22"></rect>
<text x="470.5" y="85">0..9</text>
</g>
<path d="M497.5 81h20"></path>
<path d="M423.5 81a10 10 0 0 1 10 10v10a10 10 0 0 0 10 10"></path>
<g class="terminal">
<path d="M443.5 111h12.75"></path>
<path d="M484.75 111h12.75"></path>
<rect x="456.25" y="100" width="28.5" height="22" rx="10" ry="10"></rect>
<text x="470.5" y="115">/</text>
</g>
<path d="M497.5 111a10 10 0 0 0 10 -10v-10a10 10 0 0 1 10 -10"></path>
</g>
<g>
<path d="M517.5 81h0"></path>
<path d="M611.5 81h0"></path>
<path d="M517.5 81h20"></path>
<g class="non-terminal">
<path d="M537.5 81h0"></path>
<path d="M591.5 81h0"></path>
<rect x="537.5" y="70" width="54" height="22"></rect>
<text x="564.5" y="85">0..9</text>
</g>
<path d="M591.5 81h20"></path>
<path d="M517.5 81a10 10 0 0 1 10 10v10a10 10 0 0 0 10 10"></path>
<g class="terminal">
<path d="M537.5 111h12.75"></path>
<path d="M578.75 111h12.75"></path>
<rect x="550.25" y="100" width="28.5" height="22" rx="10" ry="10"></rect>
<text x="564.5" y="115">/</text>
</g>
<path d="M591.5 111a10 10 0 0 0 10 -10v-10a10 10 0 0 1 10 -10"></path>
</g>
<g>
<path d="M611.5 81h0"></path>
<path d="M779.5 81h0"></path>
<path d="M611.5 81h20"></path>
<g>
<path d="M631.5 81h0"></path>
<path d="M759.5 81h0"></path>
<g class="non-terminal">
<path d="M631.5 81h0"></path>
<path d="M685.5 81h0"></path>
<rect x="631.5" y="70" width="54" height="22"></rect>
<text x="658.5" y="85">0..9</text>
</g>
<path d="M685.5 81h10"></path>
<path d="M695.5 81h10"></path>
<g class="non-terminal">
<path d="M705.5 81h0"></path>
<path d="M759.5 81h0"></path>
<rect x="705.5" y="70" width="54" height="22"></rect>
<text x="732.5" y="85">0..9</text>
</g>
</g>
<path d="M759.5 81h20"></path>
<path d="M611.5 81a10 10 0 0 1 10 10v10a10 10 0 0 0 10 10"></path>
<g class="terminal">
<path d="M631.5 111h45.5"></path>
<path d="M714 111h45.5"></path>
<rect x="677" y="100" width="37" height="22" rx="10" ry="10"></rect>
<text x="695.5" y="115">//</text>
</g>
<path d="M759.5 111a10 10 0 0 0 10 -10v-10a10 10 0 0 1 10 -10"></path>
</g>
</g>
<path d="M779.5 81h20"></path>
<path d="M403.5 81a10 10 0 0 1 10 10v40a10 10 0 0 0 10 10"></path>
<g class="terminal">
<path d="M423.5 141h151"></path>
<path d="M628.5 141h151"></path>
<rect x="574.5" y="130" width="54" height="22" rx="10" ry="10"></rect>
<text x="601.5" y="145">CLRD</text>
</g>
<path d="M779.5 141a10 10 0 0 0 10 -10v-40a10 10 0 0 1 10 -10"></path>
</g>
<g>
<path d="M799.5 81h0"></path>
<path d="M967.5 81h0"></path>
<path d="M799.5 81h20"></path>
<g>
<path d="M819.5 81h0"></path>
<path d="M947.5 81h0"></path>
<g class="non-terminal">
<path d="M819.5 81h0"></path>
<path d="M873.5 81h0"></path>
<rect x="819.5" y="70" width="54" height="22"></rect>
<text x="846.5" y="85">0..9</text>
</g>
<path d="M873.5 81h10"></path>
<path d="M883.5 81h10"></path>
<g class="non-terminal">
<path d="M893.5 81h0"></path>
<path d="M947.5 81h0"></path>
<rect x="893.5" y="70" width="54" height="22"></rect>
<text x="920.5" y="85">0..9</text>
</g>
</g>
<path d="M947.5 81h20"></path>
<path d="M799.5 81a10 10 0 0 1 10 10v10a10 10 0 0 0 10 10"></path>
<g class="terminal">
<path d="M819.5 111h45.5"></path>
<path d="M902 111h45.5"></path>
<rect x="865" y="100" width="37" height="22" rx="10" ry="10"></rect>
<text x="883.5" y="115">//</text>
</g>
<path d="M947.5 111a10 10 0 0 0 10 -10v-10a10 10 0 0 1 10 -10"></path>
</g>
</g>
<path d="M967.5 81h20"></path>
<path d="M383.5 81a10 10 0 0 1 10 10v70a10 10 0 0 0 10 10"></path>
<g class="terminal">
<path d="M403.5 171h246.5"></path>
<path d="M721 171h246.5"></path>
<rect x="650" y="160" width="71" height="22" rx="10" ry="10"></rect>
<text x="685.5" y="175">SNOCLO</text>
</g>
<path d="M967.5 171a10 10 0 0 0 10 -10v-70a10 10 0 0 1 10 -10"></path>
</g>
<path d="M 987.5 81 h 20 m -10 -10 v 20 m 10 -20 v 20"></path>
</g>
</svg>
