<svg xmlns="http://www.w3.org/2000/svg" class="railroad-diagram" width="1127" height="441" viewBox="0 0 1127 441">
<style>
/* <![CDATA[ */
svg.railroad-diagram {
    background-color: hsl(30,20%,95%);
}
svg.railroad-diagram path {
    stroke-width: 3;
    stroke: black;
    fill: rgba(0,0,0,0);
}
svg.railroad-diagram text {
    font: bold 14px monospace;
    text-anchor: middle;
}
svg.railroad-diagram text.diagram-text {
    font-size: 12px;
}
svg.railroad-diagram text.diagram-arrow {
    font-size: 16px;
}
svg.railroad-diagram text.label {
    text-anchor: start;
}
svg.railroad-diagram text.comment {
    font: italic 12px monospace;
}
svg.railroad-diagram g.non-terminal text {
    /*font-style: italic;*/
}
svg.railroad-diagram rect {
    stroke-width: 3;
    stroke: black;
    fill: hsl(120,100%,90%);
}
svg.railroad-diagram path.diagram-text {
    stroke-width: 3;
    stroke: black;
    fill: white;
    cursor: help;
}
svg.railroad-diagram g.diagram-text:hover path.diagram-text {
    fill: #eee;
}
/* ]]> */
</style>
<g transform="translate(.5 .5)">
<g>
<path d="M20 150v20m10 -20v20m-10 -10h20"></path>
</g>
<g>
<path d="M40 160h0"></path>
<path d="M1087 160h0"></path>
<path d="M40 160a10 10 0 0 0 10 -10v-70a10 10 0 0 1 10 -10"></path>
<g>
<path d="M60 70h0"></path>
<path d="M1067 70h0"></path>
<g>
<path d="M60 70h0"></path>
<path d="M716.5 70h0"></path>
<path d="M60 70a10 10 0 0 0 10 -10v-19a10 10 0 0 1 10 -10"></path>
<g class="terminal">
<path d="M80 31h289.75"></path>
<path d="M406.75 31h289.75"></path>
<rect x="369.75" y="20" width="37" height="22" rx="10" ry="10"></rect>
<text x="388.25" y="35">WS</text>
</g>
<path d="M696.5 31a10 10 0 0 1 10 10v19a10 10 0 0 0 10 10"></path>
<path d="M60 70h20"></path>
<g>
<path d="M80 70h0"></path>
<path d="M696.5 70h0"></path>
<g class="terminal">
<path d="M80 70h0"></path>
<path d="M125.5 70h0"></path>
<rect x="80" y="59" width="45.5" height="22" rx="10" ry="10"></rect>
<text x="102.75" y="74">CIG</text>
</g>
<path d="M125.5 70h10"></path>
<path d="M135.5 70h10"></path>
<g class="terminal">
<path d="M145.5 70h0"></path>
<path d="M174 70h0"></path>
<rect x="145.5" y="59" width="28.5" height="22" rx="10" ry="10"></rect>
<text x="159.75" y="74"> </text>
</g>
<path d="M174 70h10"></path>
<path d="M184 70h10"></path>
<g class="non-terminal">
<path d="M194 70h0"></path>
<path d="M248 70h0"></path>
<rect x="194" y="59" width="54" height="22"></rect>
<text x="221" y="74">0..9</text>
</g>
<path d="M248 70h10"></path>
<path d="M258 70h10"></path>
<g class="non-terminal">
<path d="M268 70h0"></path>
<path d="M322 70h0"></path>
<rect x="268" y="59" width="54" height="22"></rect>
<text x="295" y="74">0..9</text>
</g>
<path d="M322 70h10"></path>
<path d="M332 70h10"></path>
<g class="non-terminal">
<path d="M342 70h0"></path>
<path d="M396 70h0"></path>
<rect x="342" y="59" width="54" height="22"></rect>
<text x="369" y="74">0..9</text>
</g>
<path d="M396 70h10"></path>
<g>
<path d="M406 70h0"></path>
<path d="M696.5 70h0"></path>
<path d="M406 70a10 10 0 0 0 10 -10v0a10 10 0 0 1 10 -10"></path>
<g>
<path d="M426 50h250.5"></path>
</g>
<path d="M676.5 50a10 10 0 0 1 10 10v0a10 10 0 0 0 10 10"></path>
<path d="M406 70h20"></path>
<g>
<path d="M426 70h0"></path>
<path d="M676.5 70h0"></path>
<g class="terminal">
<path d="M426 70h0"></path>
<path d="M454.5 70h0"></path>
<rect x="426" y="59" width="28.5" height="22" rx="10" ry="10"></rect>
<text x="440.25" y="74">V</text>
</g>
<path d="M454.5 70h10"></path>
<path d="M464.5 70h10"></path>
<g class="non-terminal">
<path d="M474.5 70h0"></path>
<path d="M528.5 70h0"></path>
<rect x="474.5" y="59" width="54" height="22"></rect>
<text x="501.5" y="74">0..9</text>
</g>
<path d="M528.5 70h10"></path>
<path d="M538.5 70h10"></path>
<g class="non-terminal">
<path d="M548.5 70h0"></path>
<path d="M602.5 70h0"></path>
<rect x="548.5" y="59" width="54" height="22"></rect>
<text x="575.5" y="74">0..9</text>
</g>
<path d="M602.5 70h10"></path>
<path d="M612.5 70h10"></path>
<g class="non-terminal">
<path d="M622.5 70h0"></path>
<path d="M676.5 70h0"></path>
<rect x="622.5" y="59" width="54" height="22"></rect>
<text x="649.5" y="74">0..9</text>
</g>
</g>
<path d="M676.5 70h20"></path>
</g>
</g>
<path d="M696.5 70h20"></path>
<path d="M60 70a10 10 0 0 1 10 10v10a10 10 0 0 0 10 10"></path>
<g class="terminal">
<path d="M80 100h277"></path>
<path d="M419.5 100h277"></path>
<rect x="357" y="89" width="62.5" height="22" rx="10" ry="10"></rect>
<text x="388.25" y="104">CHINO</text>
</g>
<path d="M696.5 100a10 10 0 0 0 10 -10v-10a10 10 0 0 1 10 -10"></path>
<path d="M60 70a10 10 0 0 1 10 10v40a10 10 0 0 0 10 10"></path>
<g class="terminal">
<path d="M80 130h277"></path>
<path d="M419.5 130h277"></path>
<rect x="357" y="119" width="62.5" height="22" rx="10" ry="10"></rect>
<text x="388.25" y="134">VISNO</text>
</g>
<path d="M696.5 130a10 10 0 0 0 10 -10v-40a10 10 0 0 1 10 -10"></path>
</g>
<path d="M716.5 70h10"></path>
<g class="terminal">
<path d="M726.5 70h0"></path>
<path d="M755 70h0"></path>
<rect x="726.5" y="59" width="28.5" height="22" rx="10" ry="10"></rect>
<text x="740.75" y="74"> </text>
</g>
<path d="M755 70h10"></path>
<g>
<path d="M765 70h0"></path>
<path d="M850.5 70h0"></path>
<path d="M765 70h20"></path>
<g class="terminal">
<path d="M785 70h8.5"></path>
<path d="M822 70h8.5"></path>
<rect x="793.5" y="59" width="28.5" height="22" rx="10" ry="10"></rect>
<text x="807.75" y="74">R</text>
</g>
<path d="M830.5 70h20"></path>
<path d="M765 70a10 10 0 0 1 10 10v10a10 10 0 0 0 10 10"></path>
<g class="terminal">
<path d="M785 100h0"></path>
<path d="M830.5 100h0"></path>
<rect x="785" y="89" width="45.5" height="22" rx="10" ry="10"></rect>
<text x="807.75" y="104">RWY</text>
</g>
<path d="M830.5 100a10 10 0 0 0 10 -10v-10a10 10 0 0 1 10 -10"></path>
</g>
<path d="M850.5 70h10"></path>
<g class="non-terminal">
<path d="M860.5 70h0"></path>
<path d="M914.5 70h0"></path>
<rect x="860.5" y="59" width="54" height="22"></rect>
<text x="887.5" y="74">0..9</text>
</g>
<path d="M914.5 70h10"></path>
<path d="M924.5 70h10"></path>
<g class="non-terminal">
<path d="M934.5 70h0"></path>
<path d="M988.5 70h0"></path>
<rect x="934.5" y="59" width="54" height="22"></rect>
<text x="961.5" y="74">0..9</text>
</g>
<path d="M988.5 70h10"></path>
<g>
<path d="M998.5 70h0"></path>
<path d="M1067 70h0"></path>
<path d="M998.5 70a10 10 0 0 0 10 -10v0a10 10 0 0 1 10 -10"></path>
<g class="terminal">
<path d="M1018.5 50h0"></path>
<path d="M1047 50h0"></path>
<rect x="1018.5" y="39" width="28.5" height="22" rx="10" ry="10"></rect>
<text x="1032.75" y="54">R</text>
</g>
<path d="M1047 50a10 10 0 0 1 10 10v0a10 10 0 0 0 10 10"></path>
<path d="M998.5 70h20"></path>
<g>
<path d="M1018.5 70h28.5"></path>
</g>
<path d="M1047 70h20"></path>
<path d="M998.5 70a10 10 0 0 1 10 10v0a10 10 0 0 0 10 10"></path>
<g class="terminal">
<path d="M1018.5 90h0"></path>
<path d="M1047 90h0"></path>
<rect x="1018.5" y="79" width="28.5" height="22" rx="10" ry="10"></rect>
<text x="1032.75" y="94">L</text>
</g>
<path d="M1047 90a10 10 0 0 0 10 -10v0a10 10 0 0 1 10 -10"></path>
<path d="M998.5 70a10 10 0 0 1 10 10v30a10 10 0 0 0 10 10"></path>
<g class="terminal">
<path d="M1018.5 120h0"></path>
<path d="M1047 120h0"></path>
<rect x="1018.5" y="109" width="28.5" height="22" rx="10" ry="10"></rect>
<text x="1032.75" y="124">C</text>
</g>
<path d="M1047 120a10 10 0 0 0 10 -10v-30a10 10 0 0 1 10 -10"></path>
</g>
</g>
<path d="M1067 70a10 10 0 0 1 10 10v70a10 10 0 0 0 10 10"></path>
<path d="M40 160h20"></path>
<g>
<path d="M60 160h371"></path>
<path d="M696 160h371"></path>
<g class="terminal">
<path d="M431 160h0"></path>
<path d="M468 160h0"></path>
<rect x="431" y="149" width="37" height="22" rx="10" ry="10"></rect>
<text x="449.5" y="164">WS</text>
</g>
<path d="M468 160h10"></path>
<path d="M478 160h10"></path>
<g class="terminal">
<path d="M488 160h0"></path>
<path d="M516.5 160h0"></path>
<rect x="488" y="149" width="28.5" height="22" rx="10" ry="10"></rect>
<text x="502.25" y="164"> </text>
</g>
<path d="M516.5 160h10"></path>
<path d="M526.5 160h10"></path>
<g class="terminal">
<path d="M536.5 160h0"></path>
<path d="M582 160h0"></path>
<rect x="536.5" y="149" width="45.5" height="22" rx="10" ry="10"></rect>
<text x="559.25" y="164">ALL</text>
</g>
<path d="M582 160h10"></path>
<path d="M592 160h10"></path>
<g class="terminal">
<path d="M602 160h0"></path>
<path d="M630.5 160h0"></path>
<rect x="602" y="149" width="28.5" height="22" rx="10" ry="10"></rect>
<text x="616.25" y="164"> </text>
</g>
<path d="M630.5 160h10"></path>
<path d="M640.5 160h10"></path>
<g class="terminal">
<path d="M650.5 160h0"></path>
<path d="M696 160h0"></path>
<rect x="650.5" y="149" width="45.5" height="22" rx="10" ry="10"></rect>
<text x="673.25" y="164">RWY</text>
</g>
</g>
<path d="M1067 160h20"></path>
<path d="M40 160a10 10 0 0 1 10 10v120a10 10 0 0 0 10 10"></path>
<g>
<path d="M60 300h389.5"></path>
<path d="M677.5 300h389.5"></path>
<g>
<path d="M449.5 300h0"></path>
<path d="M552 300h0"></path>
<path d="M449.5 300h20"></path>
<g class="terminal">
<path d="M469.5 300h0"></path>
<path d="M532 300h0"></path>
<rect x="469.5" y="289" width="62.5" height="22" rx="10" ry="10"></rect>
<text x="500.75" y="304">VISNO</text>
</g>
<path d="M532 300h20"></path>
<path d="M449.5 300a10 10 0 0 1 10 10v10a10 10 0 0 0 10 10"></path>
<g class="terminal">
<path d="M469.5 330h0"></path>
<path d="M532 330h0"></path>
<rect x="469.5" y="319" width="62.5" height="22" rx="10" ry="10"></rect>
<text x="500.75" y="334">CHINO</text>
</g>
<path d="M532 330a10 10 0 0 0 10 -10v-10a10 10 0 0 1 10 -10"></path>
</g>
<path d="M552 300h10"></path>
<g class="terminal">
<path d="M562 300h0"></path>
<path d="M590.5 300h0"></path>
<rect x="562" y="289" width="28.5" height="22" rx="10" ry="10"></rect>
<text x="576.25" y="304"> </text>
</g>
<path d="M590.5 300h10"></path>
<g>
<path d="M600.5 300h0"></path>
<path d="M677.5 300h0"></path>
<path d="M600.5 300a10 10 0 0 0 10 -10v0a10 10 0 0 1 10 -10"></path>
<g class="terminal">
<path d="M620.5 280h4.25"></path>
<path d="M653.25 280h4.25"></path>
<rect x="624.75" y="269" width="28.5" height="22" rx="10" ry="10"></rect>
<text x="639" y="284">W</text>
</g>
<path d="M657.5 280a10 10 0 0 1 10 10v0a10 10 0 0 0 10 10"></path>
<path d="M600.5 300a10 10 0 0 0 10 -10v-30a10 10 0 0 1 10 -10"></path>
<g class="terminal">
<path d="M620.5 250h4.25"></path>
<path d="M653.25 250h4.25"></path>
<rect x="624.75" y="239" width="28.5" height="22" rx="10" ry="10"></rect>
<text x="639" y="254">S</text>
</g>
<path d="M657.5 250a10 10 0 0 1 10 10v30a10 10 0 0 0 10 10"></path>
<path d="M600.5 300a10 10 0 0 0 10 -10v-60a10 10 0 0 1 10 -10"></path>
<g class="terminal">
<path d="M620.5 220h4.25"></path>
<path d="M653.25 220h4.25"></path>
<rect x="624.75" y="209" width="28.5" height="22" rx="10" ry="10"></rect>
<text x="639" y="224">E</text>
</g>
<path d="M657.5 220a10 10 0 0 1 10 10v60a10 10 0 0 0 10 10"></path>
<path d="M600.5 300a10 10 0 0 0 10 -10v-90a10 10 0 0 1 10 -10"></path>
<g class="terminal">
<path d="M620.5 190h4.25"></path>
<path d="M653.25 190h4.25"></path>
<rect x="624.75" y="179" width="28.5" height="22" rx="10" ry="10"></rect>
<text x="639" y="194">N</text>
</g>
<path d="M657.5 190a10 10 0 0 1 10 10v90a10 10 0 0 0 10 10"></path>
<path d="M600.5 300h20"></path>
<g>
<path d="M620.5 300h37"></path>
</g>
<path d="M657.5 300h20"></path>
<path d="M600.5 300a10 10 0 0 1 10 10v0a10 10 0 0 0 10 10"></path>
<g class="terminal">
<path d="M620.5 320h0"></path>
<path d="M657.5 320h0"></path>
<rect x="620.5" y="309" width="37" height="22" rx="10" ry="10"></rect>
<text x="639" y="324">NE</text>
</g>
<path d="M657.5 320a10 10 0 0 0 10 -10v0a10 10 0 0 1 10 -10"></path>
<path d="M600.5 300a10 10 0 0 1 10 10v30a10 10 0 0 0 10 10"></path>
<g class="terminal">
<path d="M620.5 350h0"></path>
<path d="M657.5 350h0"></path>
<rect x="620.5" y="339" width="37" height="22" rx="10" ry="10"></rect>
<text x="639" y="354">SE</text>
</g>
<path d="M657.5 350a10 10 0 0 0 10 -10v-30a10 10 0 0 1 10 -10"></path>
<path d="M600.5 300a10 10 0 0 1 10 10v60a10 10 0 0 0 10 10"></path>
<g class="terminal">
<path d="M620.5 380h0"></path>
<path d="M657.5 380h0"></path>
<rect x="620.5" y="369" width="37" height="22" rx="10" ry="10"></rect>
<text x="639" y="384">SW</text>
</g>
<path d="M657.5 380a10 10 0 0 0 10 -10v-60a10 10 0 0 1 10 -10"></path>
<path d="M600.5 300a10 10 0 0 1 10 10v90a10 10 0 0 0 10 10"></path>
<g class="terminal">
<path d="M620.5 410h0"></path>
<path d="M657.5 410h0"></path>
<rect x="620.5" y="399" width="37" height="22" rx="10" ry="10"></rect>
<text x="639" y="414">NW</text>
</g>
<path d="M657.5 410a10 10 0 0 0 10 -10v-90a10 10 0 0 1 10 -10"></path>
</g>
</g>
<path d="M1067 300a10 10 0 0 0 10 -10v-120a10 10 0 0 1 10 -10"></path>
</g>
<path d="M 1087 160 h 20 m -10 -10 v 20 m 10 -20 v 20"></path>
</g>
</svg>