<svg xmlns="http://www.w3.org/2000/svg" class="railroad-diagram" width="737" height="230" viewBox="0 0 737 230">
<style>
/* <![CDATA[ */
svg.railroad-diagram { background-color: hsl(30,20%,95%); }
svg.railroad-diagram path { stroke-width: 3; stroke: black; fill: rgba(0,0,0,0); }
svg.railroad-diagram text { font: bold 14px monospace; text-anchor: middle; }
svg.railroad-diagram text.diagram-text { font-size: 12px; }
svg.railroad-diagram text.diagram-arrow { font-size: 16px; }
svg.railroad-diagram text.label { text-anchor: start; }
svg.railroad-diagram text.comment { font: italic 12px monospace; }
svg.railroad-diagram g.non-terminal text { /*font-style: italic;*/ }
svg.railroad-diagram rect { stroke-width: 3; stroke: black; fill: hsl(120,100%,90%); }
svg.railroad-diagram path.diagram-text { stroke-width: 3; stroke: black; fill: white; cursor: help; }
svg.railroad-diagram g.diagram-text:hover path.diagram-text { fill: #eee; }
/* ]]> */
</style>
<!-- 
	https://tabatkins.github.io/railroad-diagrams/generator.html#Diagram(%0A%20Stack(%0A%20%20Sequence(%0A%20%20%20'TAF'%2C%0A%20%20%20Choice(1%2C%20'COR'%2C%20Skip()%2C%20'AMD')%2C%0A%20%20%20NonTerminal('ICAO%20Location')%0A%20%20)%2C%0A%20%20Choice(0%2C%20Sequence(%0A%20%20%20NonTerminal('Report%20Release%20Time')%2C%0A%20%20%20Choice(0%2C%20Sequence(%0A%20%20%20%20NonTerminal('Time%20span%20xxxx%2Fxxxx')%2C%0A%20%20%20%20Choice(1%2C%20'CNL'%2C%20'NIL')%0A%20%20%20)%2C%20'NIL')%2C%0A%20%20)%2C%20'NIL')%0A%20%20)%2C%0A%20Optional('%3D')%0A)%0A
-->
<g transform="translate(.5 .5)">
<g>
<path d="M20 41v20m10 -20v20m-10 -10h20"></path>
</g>
<path d="M40 51h10"></path>
<g>
<path d="M50 51h0"></path>
<path d="M50 51h10"></path>
<g>
<path d="M60 51h133.5"></path>
<path d="M475 51h133.5"></path>
<g class="terminal">
<path d="M193.5 51h0"></path>
<path d="M239 51h0"></path>
<rect x="193.5" y="40" width="45.5" height="22" rx="10" ry="10"></rect>
<text x="216.25" y="55">TAF</text>
</g>
<path d="M239 51h10"></path>
<g>
<path d="M249 51h0"></path>
<path d="M334.5 51h0"></path>
<path d="M249 51a10 10 0 0 0 10 -10v0a10 10 0 0 1 10 -10"></path>
<g class="terminal">
<path d="M269 31h0"></path>
<path d="M314.5 31h0"></path>
<rect x="269" y="20" width="45.5" height="22" rx="10" ry="10"></rect>
<text x="291.75" y="35">COR</text>
</g>
<path d="M314.5 31a10 10 0 0 1 10 10v0a10 10 0 0 0 10 10"></path>
<path d="M249 51h20"></path>
<g>
<path d="M269 51h45.5"></path>
</g>
<path d="M314.5 51h20"></path>
<path d="M249 51a10 10 0 0 1 10 10v0a10 10 0 0 0 10 10"></path>
<g class="terminal">
<path d="M269 71h0"></path>
<path d="M314.5 71h0"></path>
<rect x="269" y="60" width="45.5" height="22" rx="10" ry="10"></rect>
<text x="291.75" y="75">AMD</text>
</g>
<path d="M314.5 71a10 10 0 0 0 10 -10v0a10 10 0 0 1 10 -10"></path>
</g>
<path d="M334.5 51h10"></path>
<g class="non-terminal">
<path d="M344.5 51h0"></path>
<path d="M475 51h0"></path>
<rect x="344.5" y="40" width="130.5" height="22"></rect>
<text x="409.75" y="55">ICAO Location</text>
</g>
</g>
<path d="M608.5 51a10 10 0 0 1 10 10v19a10 10 0 0 1 -10 10h-548.5a10 10 0 0 0 -10 10v29a10 10 0 0 0 10 10"></path>
<g>
<path d="M60 139h0"></path>
<path d="M608.5 139h0"></path>
<path d="M60 139h20"></path>
<g>
<path d="M80 139h0"></path>
<path d="M588.5 139h0"></path>
<g class="non-terminal">
<path d="M80 139h0"></path>
<path d="M261.5 139h0"></path>
<rect x="80" y="128" width="181.5" height="22"></rect>
<text x="170.75" y="143">Report Release Time</text>
</g>
<path d="M261.5 139h10"></path>
<g>
<path d="M271.5 139h0"></path>
<path d="M588.5 139h0"></path>
<path d="M271.5 139h20"></path>
<g>
<path d="M291.5 139h0"></path>
<path d="M568.5 139h0"></path>
<g class="non-terminal">
<path d="M291.5 139h0"></path>
<path d="M473 139h0"></path>
<rect x="291.5" y="128" width="181.5" height="22"></rect>
<text x="382.25" y="143">Time span xxxx/xxxx</text>
</g>
<path d="M473 139h10"></path>
<g>
<path d="M483 139h0"></path>
<path d="M568.5 139h0"></path>
<path d="M483 139a10 10 0 0 0 10 -10v-10a10 10 0 0 1 10 -10"></path>
<g class="terminal">
<path d="M503 109h0"></path>
<path d="M548.5 109h0"></path>
<rect x="503" y="98" width="45.5" height="22" rx="10" ry="10"></rect>
<text x="525.75" y="113">CNL</text>
</g>
<path d="M548.5 109a10 10 0 0 1 10 10v10a10 10 0 0 0 10 10"></path>
<path d="M483 139h20"></path>
<g class="terminal">
<path d="M503 139h0"></path>
<path d="M548.5 139h0"></path>
<rect x="503" y="128" width="45.5" height="22" rx="10" ry="10"></rect>
<text x="525.75" y="143">NIL</text>
</g>
<path d="M548.5 139h20"></path>
</g>
</g>
<path d="M568.5 139h20"></path>
<path d="M271.5 139a10 10 0 0 1 10 10v10a10 10 0 0 0 10 10"></path>
<g class="terminal">
<path d="M291.5 169h115.75"></path>
<path d="M452.75 169h115.75"></path>
<rect x="407.25" y="158" width="45.5" height="22" rx="10" ry="10"></rect>
<text x="430" y="173">NIL</text>
</g>
<path d="M568.5 169a10 10 0 0 0 10 -10v-10a10 10 0 0 1 10 -10"></path>
</g>
</g>
<path d="M588.5 139h20"></path>
<path d="M60 139a10 10 0 0 1 10 10v40a10 10 0 0 0 10 10"></path>
<g class="terminal">
<path d="M80 199h231.5"></path>
<path d="M357 199h231.5"></path>
<rect x="311.5" y="188" width="45.5" height="22" rx="10" ry="10"></rect>
<text x="334.25" y="203">NIL</text>
</g>
<path d="M588.5 199a10 10 0 0 0 10 -10v-40a10 10 0 0 1 10 -10"></path>
</g>
<path d="M608.5 139h10"></path>
<path d="M618.5 139h0"></path>
</g>
<path d="M618.5 139h10"></path>
<g>
<path d="M628.5 139h0"></path>
<path d="M697 139h0"></path>
<path d="M628.5 139a10 10 0 0 0 10 -10v0a10 10 0 0 1 10 -10"></path>
<g>
<path d="M648.5 119h28.5"></path>
</g>
<path d="M677 119a10 10 0 0 1 10 10v0a10 10 0 0 0 10 10"></path>
<path d="M628.5 139h20"></path>
<g class="terminal">
<path d="M648.5 139h0"></path>
<path d="M677 139h0"></path>
<rect x="648.5" y="128" width="28.5" height="22" rx="10" ry="10"></rect>
<text x="662.75" y="143">=</text>
</g>
<path d="M677 139h20"></path>
</g>
<path d="M 697 139 h 20 m -10 -10 v 20 m 10 -20 v 20"></path>
</g>
</svg>
