<svg xmlns="http://www.w3.org/2000/svg" class="railroad-diagram" width="806.5" height="102" viewBox="0 0 806.5 102">
<style>
/* <![CDATA[ */
svg.railroad-diagram {
    background-color: hsl(30,20%,95%);
}
svg.railroad-diagram path {
    stroke-width: 3;
    stroke: black;
    fill: rgba(0,0,0,0);
}
svg.railroad-diagram text {
    font: bold 14px monospace;
    text-anchor: middle;
}
svg.railroad-diagram text.diagram-text {
    font-size: 12px;
}
svg.railroad-diagram text.diagram-arrow {
    font-size: 16px;
}
svg.railroad-diagram text.label {
    text-anchor: start;
}
svg.railroad-diagram text.comment {
    font: italic 12px monospace;
}
svg.railroad-diagram g.non-terminal text {
    /*font-style: italic;*/
}
svg.railroad-diagram rect {
    stroke-width: 3;
    stroke: black;
    fill: hsl(120,100%,90%);
}
svg.railroad-diagram path.diagram-text {
    stroke-width: 3;
    stroke: black;
    fill: white;
    cursor: help;
}
svg.railroad-diagram g.diagram-text:hover path.diagram-text {
    fill: #eee;
}
/* ]]> */
</style>
<g transform="translate(.5 .5)">
<g>
<path d="M20 41v20m10 -20v20m-10 -10h20"></path>
</g>
<path d="M40 51h10"></path>
<g>
<path d="M50 51h0"></path>
<path d="M756.5 51h0"></path>
<g class="terminal">
<path d="M50 51h0"></path>
<path d="M78.5 51h0"></path>
<rect x="50" y="40" width="28.5" height="22" rx="10" ry="10"></rect>
<text x="64.25" y="55">T</text>
</g>
<path d="M78.5 51h10"></path>
<g>
<path d="M88.5 51h0"></path>
<path d="M157 51h0"></path>
<path d="M88.5 51a10 10 0 0 0 10 -10v0a10 10 0 0 1 10 -10"></path>
<g class="terminal">
<path d="M108.5 31h0"></path>
<path d="M137 31h0"></path>
<rect x="108.5" y="20" width="28.5" height="22" rx="10" ry="10"></rect>
<text x="122.75" y="35">X</text>
</g>
<path d="M137 31a10 10 0 0 1 10 10v0a10 10 0 0 0 10 10"></path>
<path d="M88.5 51h20"></path>
<g>
<path d="M108.5 51h28.5"></path>
</g>
<path d="M137 51h20"></path>
<path d="M88.5 51a10 10 0 0 1 10 10v0a10 10 0 0 0 10 10"></path>
<g class="terminal">
<path d="M108.5 71h0"></path>
<path d="M137 71h0"></path>
<rect x="108.5" y="60" width="28.5" height="22" rx="10" ry="10"></rect>
<text x="122.75" y="75">N</text>
</g>
<path d="M137 71a10 10 0 0 0 10 -10v0a10 10 0 0 1 10 -10"></path>
</g>
<g>
<path d="M157 51h0"></path>
<path d="M225.5 51h0"></path>
<path d="M157 51h20"></path>
<g>
<path d="M177 51h28.5"></path>
</g>
<path d="M205.5 51h20"></path>
<path d="M157 51a10 10 0 0 1 10 10v0a10 10 0 0 0 10 10"></path>
<g class="terminal">
<path d="M177 71h0"></path>
<path d="M205.5 71h0"></path>
<rect x="177" y="60" width="28.5" height="22" rx="10" ry="10"></rect>
<text x="191.25" y="75">M</text>
</g>
<path d="M205.5 71a10 10 0 0 0 10 -10v0a10 10 0 0 1 10 -10"></path>
</g>
<path d="M225.5 51h10"></path>
<g class="non-terminal">
<path d="M235.5 51h0"></path>
<path d="M289.5 51h0"></path>
<rect x="235.5" y="40" width="54" height="22"></rect>
<text x="262.5" y="55">0..9</text>
</g>
<path d="M289.5 51h10"></path>
<path d="M299.5 51h10"></path>
<g class="non-terminal">
<path d="M309.5 51h0"></path>
<path d="M363.5 51h0"></path>
<rect x="309.5" y="40" width="54" height="22"></rect>
<text x="336.5" y="55">0..9</text>
</g>
<path d="M363.5 51h10"></path>
<path d="M373.5 51h10"></path>
<g class="terminal">
<path d="M383.5 51h0"></path>
<path d="M412 51h0"></path>
<rect x="383.5" y="40" width="28.5" height="22" rx="10" ry="10"></rect>
<text x="397.75" y="55">/</text>
</g>
<path d="M412 51h10"></path>
<path d="M422 51h10"></path>
<g class="non-terminal">
<path d="M432 51h0"></path>
<path d="M486 51h0"></path>
<rect x="432" y="40" width="54" height="22"></rect>
<text x="459" y="55">0..9</text>
</g>
<path d="M486 51h10"></path>
<path d="M496 51h10"></path>
<g class="non-terminal">
<path d="M506 51h0"></path>
<path d="M560 51h0"></path>
<rect x="506" y="40" width="54" height="22"></rect>
<text x="533" y="55">0..9</text>
</g>
<path d="M560 51h10"></path>
<path d="M570 51h10"></path>
<g class="non-terminal">
<path d="M580 51h0"></path>
<path d="M634 51h0"></path>
<rect x="580" y="40" width="54" height="22"></rect>
<text x="607" y="55">0..9</text>
</g>
<path d="M634 51h10"></path>
<path d="M644 51h10"></path>
<g class="non-terminal">
<path d="M654 51h0"></path>
<path d="M708 51h0"></path>
<rect x="654" y="40" width="54" height="22"></rect>
<text x="681" y="55">0..9</text>
</g>
<path d="M708 51h10"></path>
<path d="M718 51h10"></path>
<g class="terminal">
<path d="M728 51h0"></path>
<path d="M756.5 51h0"></path>
<rect x="728" y="40" width="28.5" height="22" rx="10" ry="10"></rect>
<text x="742.25" y="55">Z</text>
</g>
</g>
<path d="M756.5 51h10"></path>
<path d="M 766.5 51 h 20 m -10 -10 v 20 m 10 -20 v 20"></path>
</g>
</svg>
