<svg xmlns="http://www.w3.org/2000/svg" class="railroad-diagram" width="848.5" height="189" viewBox="0 0 848.5 189">
<style>
/* <![CDATA[ */
svg.railroad-diagram {
    background-color: hsl(30,20%,95%);
}
svg.railroad-diagram path {
    stroke-width: 3;
    stroke: black;
    fill: rgba(0,0,0,0);
}
svg.railroad-diagram text {
    font: bold 14px monospace;
    text-anchor: middle;
}
svg.railroad-diagram text.diagram-text {
    font-size: 12px;
}
svg.railroad-diagram text.diagram-arrow {
    font-size: 16px;
}
svg.railroad-diagram text.label {
    text-anchor: start;
}
svg.railroad-diagram text.comment {
    font: italic 12px monospace;
}
svg.railroad-diagram g.non-terminal text {
    /*font-style: italic;*/
}
svg.railroad-diagram rect {
    stroke-width: 3;
    stroke: black;
    fill: hsl(120,100%,90%);
}
svg.railroad-diagram path.diagram-text {
    stroke-width: 3;
    stroke: black;
    fill: white;
    cursor: help;
}
svg.railroad-diagram g.diagram-text:hover path.diagram-text {
    fill: #eee;
}
/* ]]> */
</style>
<g transform="translate(.5 .5)">
<g>
<path d="M20 30v20m10 -20v20m-10 -10h20"></path>
</g>
<g>
<path d="M40 40h0"></path>
<path d="M808.5 40h0"></path>
<path d="M40 40h20"></path>
<g>
<path d="M60 40h73.5"></path>
<path d="M715 40h73.5"></path>
<g>
<path d="M133.5 40h0"></path>
<path d="M380 40h0"></path>
<path d="M133.5 40h20"></path>
<g>
<path d="M153.5 40h0"></path>
<path d="M360 40h0"></path>
<g>
<path d="M153.5 40h0"></path>
<path d="M222 40h0"></path>
<path d="M153.5 40h20"></path>
<g>
<path d="M173.5 40h28.5"></path>
</g>
<path d="M202 40h20"></path>
<path d="M153.5 40a10 10 0 0 1 10 10v0a10 10 0 0 0 10 10"></path>
<g class="terminal">
<path d="M173.5 60h0"></path>
<path d="M202 60h0"></path>
<rect x="173.5" y="49" width="28.5" height="22" rx="10" ry="10"></rect>
<text x="187.75" y="64">M</text>
</g>
<path d="M202 60a10 10 0 0 0 10 -10v0a10 10 0 0 1 10 -10"></path>
</g>
<path d="M222 40h10"></path>
<g class="non-terminal">
<path d="M232 40h0"></path>
<path d="M286 40h0"></path>
<rect x="232" y="29" width="54" height="22"></rect>
<text x="259" y="44">0..9</text>
</g>
<path d="M286 40h10"></path>
<path d="M296 40h10"></path>
<g class="non-terminal">
<path d="M306 40h0"></path>
<path d="M360 40h0"></path>
<rect x="306" y="29" width="54" height="22"></rect>
<text x="333" y="44">0..9</text>
</g>
</g>
<path d="M360 40h20"></path>
<path d="M133.5 40a10 10 0 0 1 10 10v30a10 10 0 0 0 10 10"></path>
<g class="terminal">
<path d="M153.5 90h84.75"></path>
<path d="M275.25 90h84.75"></path>
<rect x="238.25" y="79" width="37" height="22" rx="10" ry="10"></rect>
<text x="256.75" y="94">//</text>
</g>
<path d="M360 90a10 10 0 0 0 10 -10v-30a10 10 0 0 1 10 -10"></path>
</g>
<path d="M380 40h10"></path>
<g class="terminal">
<path d="M390 40h0"></path>
<path d="M418.5 40h0"></path>
<rect x="390" y="29" width="28.5" height="22" rx="10" ry="10"></rect>
<text x="404.25" y="44">/</text>
</g>
<path d="M418.5 40h10"></path>
<g>
<path d="M428.5 40h0"></path>
<path d="M715 40h0"></path>
<path d="M428.5 40a10 10 0 0 0 10 -10v0a10 10 0 0 1 10 -10"></path>
<g>
<path d="M448.5 20h246.5"></path>
</g>
<path d="M695 20a10 10 0 0 1 10 10v0a10 10 0 0 0 10 10"></path>
<path d="M428.5 40h20"></path>
<g>
<path d="M448.5 40h0"></path>
<path d="M695 40h0"></path>
<path d="M448.5 40h20"></path>
<g>
<path d="M468.5 40h0"></path>
<path d="M675 40h0"></path>
<g>
<path d="M468.5 40h0"></path>
<path d="M537 40h0"></path>
<path d="M468.5 40h20"></path>
<g>
<path d="M488.5 40h28.5"></path>
</g>
<path d="M517 40h20"></path>
<path d="M468.5 40a10 10 0 0 1 10 10v0a10 10 0 0 0 10 10"></path>
<g class="terminal">
<path d="M488.5 60h0"></path>
<path d="M517 60h0"></path>
<rect x="488.5" y="49" width="28.5" height="22" rx="10" ry="10"></rect>
<text x="502.75" y="64">M</text>
</g>
<path d="M517 60a10 10 0 0 0 10 -10v0a10 10 0 0 1 10 -10"></path>
</g>
<path d="M537 40h10"></path>
<g class="non-terminal">
<path d="M547 40h0"></path>
<path d="M601 40h0"></path>
<rect x="547" y="29" width="54" height="22"></rect>
<text x="574" y="44">0..9</text>
</g>
<path d="M601 40h10"></path>
<path d="M611 40h10"></path>
<g class="non-terminal">
<path d="M621 40h0"></path>
<path d="M675 40h0"></path>
<rect x="621" y="29" width="54" height="22"></rect>
<text x="648" y="44">0..9</text>
</g>
</g>
<path d="M675 40h20"></path>
<path d="M448.5 40a10 10 0 0 1 10 10v30a10 10 0 0 0 10 10"></path>
<g class="terminal">
<path d="M468.5 90h84.75"></path>
<path d="M590.25 90h84.75"></path>
<rect x="553.25" y="79" width="37" height="22" rx="10" ry="10"></rect>
<text x="571.75" y="94">//</text>
</g>
<path d="M675 90a10 10 0 0 0 10 -10v-30a10 10 0 0 1 10 -10"></path>
</g>
<path d="M695 40h20"></path>
</g>
</g>
<path d="M788.5 40h20"></path>
<path d="M40 40a10 10 0 0 1 10 10v60a10 10 0 0 0 10 10"></path>
<g>
<path d="M60 120h0"></path>
<path d="M788.5 120h0"></path>
<g>
<path d="M60 120h0"></path>
<path d="M119 120h0"></path>
<text x="89.5" y="125" class="comment">Remarks</text>
</g>
<path d="M119 120h10"></path>
<path d="M129 120h10"></path>
<g class="terminal">
<path d="M139 120h0"></path>
<path d="M167.5 120h0"></path>
<rect x="139" y="109" width="28.5" height="22" rx="10" ry="10"></rect>
<text x="153.25" y="124">T</text>
</g>
<path d="M167.5 120h10"></path>
<g>
<path d="M177.5 120h0"></path>
<path d="M246 120h0"></path>
<path d="M177.5 120h20"></path>
<g class="terminal">
<path d="M197.5 120h0"></path>
<path d="M226 120h0"></path>
<rect x="197.5" y="109" width="28.5" height="22" rx="10" ry="10"></rect>
<text x="211.75" y="124">0</text>
</g>
<path d="M226 120h20"></path>
<path d="M177.5 120a10 10 0 0 1 10 10v10a10 10 0 0 0 10 10"></path>
<g class="terminal">
<path d="M197.5 150h0"></path>
<path d="M226 150h0"></path>
<rect x="197.5" y="139" width="28.5" height="22" rx="10" ry="10"></rect>
<text x="211.75" y="154">1</text>
</g>
<path d="M226 150a10 10 0 0 0 10 -10v-10a10 10 0 0 1 10 -10"></path>
</g>
<path d="M246 120h10"></path>
<g class="non-terminal">
<path d="M256 120h0"></path>
<path d="M310 120h0"></path>
<rect x="256" y="109" width="54" height="22"></rect>
<text x="283" y="124">0..9</text>
</g>
<path d="M310 120h10"></path>
<path d="M320 120h10"></path>
<g class="non-terminal">
<path d="M330 120h0"></path>
<path d="M384 120h0"></path>
<rect x="330" y="109" width="54" height="22"></rect>
<text x="357" y="124">0..9</text>
</g>
<path d="M384 120h10"></path>
<path d="M394 120h10"></path>
<g class="non-terminal">
<path d="M404 120h0"></path>
<path d="M458 120h0"></path>
<rect x="404" y="109" width="54" height="22"></rect>
<text x="431" y="124">0..9</text>
</g>
<path d="M458 120h10"></path>
<g>
<path d="M468 120h0"></path>
<path d="M788.5 120h0"></path>
<path d="M468 120h20"></path>
<g>
<path d="M488 120h0"></path>
<path d="M768.5 120h0"></path>
<g>
<path d="M488 120h0"></path>
<path d="M556.5 120h0"></path>
<path d="M488 120h20"></path>
<g class="terminal">
<path d="M508 120h0"></path>
<path d="M536.5 120h0"></path>
<rect x="508" y="109" width="28.5" height="22" rx="10" ry="10"></rect>
<text x="522.25" y="124">0</text>
</g>
<path d="M536.5 120h20"></path>
<path d="M488 120a10 10 0 0 1 10 10v10a10 10 0 0 0 10 10"></path>
<g class="terminal">
<path d="M508 150h0"></path>
<path d="M536.5 150h0"></path>
<rect x="508" y="139" width="28.5" height="22" rx="10" ry="10"></rect>
<text x="522.25" y="154">1</text>
</g>
<path d="M536.5 150a10 10 0 0 0 10 -10v-10a10 10 0 0 1 10 -10"></path>
</g>
<path d="M556.5 120h10"></path>
<g class="non-terminal">
<path d="M566.5 120h0"></path>
<path d="M620.5 120h0"></path>
<rect x="566.5" y="109" width="54" height="22"></rect>
<text x="593.5" y="124">0..9</text>
</g>
<path d="M620.5 120h10"></path>
<path d="M630.5 120h10"></path>
<g class="non-terminal">
<path d="M640.5 120h0"></path>
<path d="M694.5 120h0"></path>
<rect x="640.5" y="109" width="54" height="22"></rect>
<text x="667.5" y="124">0..9</text>
</g>
<path d="M694.5 120h10"></path>
<path d="M704.5 120h10"></path>
<g class="non-terminal">
<path d="M714.5 120h0"></path>
<path d="M768.5 120h0"></path>
<rect x="714.5" y="109" width="54" height="22"></rect>
<text x="741.5" y="124">0..9</text>
</g>
</g>
<path d="M768.5 120h20"></path>
<path d="M468 120a10 10 0 0 1 10 10v29a10 10 0 0 0 10 10"></path>
<g>
<path d="M488 169h280.5"></path>
</g>
<path d="M768.5 169a10 10 0 0 0 10 -10v-29a10 10 0 0 1 10 -10"></path>
</g>
</g>
<path d="M788.5 120a10 10 0 0 0 10 -10v-60a10 10 0 0 1 10 -10"></path>
</g>
<path d="M 808.5 40 h 20 m -10 -10 v 20 m 10 -20 v 20"></path>
</g>
</svg>
