<svg xmlns="http://www.w3.org/2000/svg" class="railroad-diagram" width="1179.5" height="232" viewBox="0 0 1179.5 232">
<style>
/* <![CDATA[ */
svg.railroad-diagram {
    background-color: hsl(30,20%,95%);
}
svg.railroad-diagram path {
    stroke-width: 3;
    stroke: black;
    fill: rgba(0,0,0,0);
}
svg.railroad-diagram text {
    font: bold 14px monospace;
    text-anchor: middle;
}
svg.railroad-diagram text.diagram-text {
    font-size: 12px;
}
svg.railroad-diagram text.diagram-arrow {
    font-size: 16px;
}
svg.railroad-diagram text.label {
    text-anchor: start;
}
svg.railroad-diagram text.comment {
    font: italic 12px monospace;
}
svg.railroad-diagram g.non-terminal text {
    /*font-style: italic;*/
}
svg.railroad-diagram rect {
    stroke-width: 3;
    stroke: black;
    fill: hsl(120,100%,90%);
}
svg.railroad-diagram path.diagram-text {
    stroke-width: 3;
    stroke: black;
    fill: white;
    cursor: help;
}
svg.railroad-diagram g.diagram-text:hover path.diagram-text {
    fill: #eee;
}
/* ]]> */
</style>
<g transform="translate(.5 .5)">
<g>
<path d="M20 81v20m10 -20v20m-10 -10h20"></path>
</g>
<g>
<path d="M40 91h0"></path>
<path d="M1139.5 91h0"></path>
<path d="M40 91a10 10 0 0 0 10 -10v-40a10 10 0 0 1 10 -10"></path>
<g class="terminal">
<path d="M60 31h498.5"></path>
<path d="M621 31h498.5"></path>
<rect x="558.5" y="20" width="62.5" height="22" rx="10" ry="10"></rect>
<text x="589.75" y="35">NOSIG</text>
</g>
<path d="M1119.5 31a10 10 0 0 1 10 10v40a10 10 0 0 0 10 10"></path>
<path d="M40 91h20"></path>
<g>
<path d="M60 91h0"></path>
<g>
<path d="M60 91h10"></path>
<path d="M1109.5 91h10"></path>
<g>
<path d="M70 91h0"></path>
<path d="M181 91h0"></path>
<path d="M70 91a10 10 0 0 0 10 -10v0a10 10 0 0 1 10 -10"></path>
<g class="terminal">
<path d="M90 71h0"></path>
<path d="M161 71h0"></path>
<rect x="90" y="60" width="71" height="22" rx="10" ry="10"></rect>
<text x="125.5" y="75">PROB30</text>
</g>
<path d="M161 71a10 10 0 0 1 10 10v0a10 10 0 0 0 10 10"></path>
<path d="M70 91h20"></path>
<g>
<path d="M90 91h71"></path>
</g>
<path d="M161 91h20"></path>
<path d="M70 91a10 10 0 0 1 10 10v0a10 10 0 0 0 10 10"></path>
<g class="terminal">
<path d="M90 111h0"></path>
<path d="M161 111h0"></path>
<rect x="90" y="100" width="71" height="22" rx="10" ry="10"></rect>
<text x="125.5" y="115">PROB40</text>
</g>
<path d="M161 111a10 10 0 0 0 10 -10v0a10 10 0 0 1 10 -10"></path>
</g>
<g>
<path d="M181 91h0"></path>
<path d="M1109.5 91h0"></path>
<path d="M181 91h20"></path>
<g>
<path d="M201 91h0"></path>
<path d="M1089.5 91h0"></path>
<g>
<path d="M201 91h0"></path>
<path d="M303.5 91h0"></path>
<path d="M201 91a10 10 0 0 0 10 -10v-10a10 10 0 0 1 10 -10"></path>
<g class="terminal">
<path d="M221 61h0"></path>
<path d="M283.5 61h0"></path>
<rect x="221" y="50" width="62.5" height="22" rx="10" ry="10"></rect>
<text x="252.25" y="65">BECMG</text>
</g>
<path d="M283.5 61a10 10 0 0 1 10 10v10a10 10 0 0 0 10 10"></path>
<path d="M201 91h20"></path>
<g class="terminal">
<path d="M221 91h0"></path>
<path d="M283.5 91h0"></path>
<rect x="221" y="80" width="62.5" height="22" rx="10" ry="10"></rect>
<text x="252.25" y="95">TEMPO</text>
</g>
<path d="M283.5 91h20"></path>
<path d="M201 91a10 10 0 0 1 10 10v10a10 10 0 0 0 10 10"></path>
<g class="terminal">
<path d="M221 121h0"></path>
<path d="M283.5 121h0"></path>
<rect x="221" y="110" width="62.5" height="22" rx="10" ry="10"></rect>
<text x="252.25" y="125">INTER</text>
</g>
<path d="M283.5 121a10 10 0 0 0 10 -10v-10a10 10 0 0 1 10 -10"></path>
</g>
<g>
<path d="M303.5 91h0"></path>
<path d="M1089.5 91h0"></path>
<path d="M303.5 91a10 10 0 0 0 10 -10v0a10 10 0 0 1 10 -10"></path>
<g>
<path d="M323.5 71h206.5"></path>
<path d="M863 71h206.5"></path>
<g class="non-terminal">
<path d="M530 71h0"></path>
<path d="M567 71h0"></path>
<rect x="530" y="60" width="37" height="22"></rect>
<text x="548.5" y="75">AT</text>
</g>
<path d="M567 71h10"></path>
<path d="M577 71h10"></path>
<g class="non-terminal">
<path d="M587 71h0"></path>
<path d="M641 71h0"></path>
<rect x="587" y="60" width="54" height="22"></rect>
<text x="614" y="75">0..9</text>
</g>
<path d="M641 71h10"></path>
<path d="M651 71h10"></path>
<g class="non-terminal">
<path d="M661 71h0"></path>
<path d="M715 71h0"></path>
<rect x="661" y="60" width="54" height="22"></rect>
<text x="688" y="75">0..9</text>
</g>
<path d="M715 71h10"></path>
<path d="M725 71h10"></path>
<g class="non-terminal">
<path d="M735 71h0"></path>
<path d="M789 71h0"></path>
<rect x="735" y="60" width="54" height="22"></rect>
<text x="762" y="75">0..9</text>
</g>
<path d="M789 71h10"></path>
<path d="M799 71h10"></path>
<g class="non-terminal">
<path d="M809 71h0"></path>
<path d="M863 71h0"></path>
<rect x="809" y="60" width="54" height="22"></rect>
<text x="836" y="75">0..9</text>
</g>
</g>
<path d="M1069.5 71a10 10 0 0 1 10 10v0a10 10 0 0 0 10 10"></path>
<path d="M303.5 91h20"></path>
<g>
<path d="M323.5 91h0"></path>
<path d="M1069.5 91h0"></path>
<g>
<path d="M323.5 91h0"></path>
<path d="M696.5 91h0"></path>
<path d="M323.5 91h20"></path>
<g>
<path d="M343.5 91h333"></path>
</g>
<path d="M676.5 91h20"></path>
<path d="M323.5 91a10 10 0 0 1 10 10v0a10 10 0 0 0 10 10"></path>
<g>
<path d="M343.5 111h0"></path>
<path d="M676.5 111h0"></path>
<g class="non-terminal">
<path d="M343.5 111h0"></path>
<path d="M380.5 111h0"></path>
<rect x="343.5" y="100" width="37" height="22"></rect>
<text x="362" y="115">FM</text>
</g>
<path d="M380.5 111h10"></path>
<path d="M390.5 111h10"></path>
<g class="non-terminal">
<path d="M400.5 111h0"></path>
<path d="M454.5 111h0"></path>
<rect x="400.5" y="100" width="54" height="22"></rect>
<text x="427.5" y="115">0..9</text>
</g>
<path d="M454.5 111h10"></path>
<path d="M464.5 111h10"></path>
<g class="non-terminal">
<path d="M474.5 111h0"></path>
<path d="M528.5 111h0"></path>
<rect x="474.5" y="100" width="54" height="22"></rect>
<text x="501.5" y="115">0..9</text>
</g>
<path d="M528.5 111h10"></path>
<path d="M538.5 111h10"></path>
<g class="non-terminal">
<path d="M548.5 111h0"></path>
<path d="M602.5 111h0"></path>
<rect x="548.5" y="100" width="54" height="22"></rect>
<text x="575.5" y="115">0..9</text>
</g>
<path d="M602.5 111h10"></path>
<path d="M612.5 111h10"></path>
<g class="non-terminal">
<path d="M622.5 111h0"></path>
<path d="M676.5 111h0"></path>
<rect x="622.5" y="100" width="54" height="22"></rect>
<text x="649.5" y="115">0..9</text>
</g>
</g>
<path d="M676.5 111a10 10 0 0 0 10 -10v0a10 10 0 0 1 10 -10"></path>
</g>
<g>
<path d="M696.5 91h0"></path>
<path d="M1069.5 91h0"></path>
<path d="M696.5 91h20"></path>
<g>
<path d="M716.5 91h333"></path>
</g>
<path d="M1049.5 91h20"></path>
<path d="M696.5 91a10 10 0 0 1 10 10v0a10 10 0 0 0 10 10"></path>
<g>
<path d="M716.5 111h0"></path>
<path d="M1049.5 111h0"></path>
<g class="non-terminal">
<path d="M716.5 111h0"></path>
<path d="M753.5 111h0"></path>
<rect x="716.5" y="100" width="37" height="22"></rect>
<text x="735" y="115">TL</text>
</g>
<path d="M753.5 111h10"></path>
<path d="M763.5 111h10"></path>
<g class="non-terminal">
<path d="M773.5 111h0"></path>
<path d="M827.5 111h0"></path>
<rect x="773.5" y="100" width="54" height="22"></rect>
<text x="800.5" y="115">0..9</text>
</g>
<path d="M827.5 111h10"></path>
<path d="M837.5 111h10"></path>
<g class="non-terminal">
<path d="M847.5 111h0"></path>
<path d="M901.5 111h0"></path>
<rect x="847.5" y="100" width="54" height="22"></rect>
<text x="874.5" y="115">0..9</text>
</g>
<path d="M901.5 111h10"></path>
<path d="M911.5 111h10"></path>
<g class="non-terminal">
<path d="M921.5 111h0"></path>
<path d="M975.5 111h0"></path>
<rect x="921.5" y="100" width="54" height="22"></rect>
<text x="948.5" y="115">0..9</text>
</g>
<path d="M975.5 111h10"></path>
<path d="M985.5 111h10"></path>
<g class="non-terminal">
<path d="M995.5 111h0"></path>
<path d="M1049.5 111h0"></path>
<rect x="995.5" y="100" width="54" height="22"></rect>
<text x="1022.5" y="115">0..9</text>
</g>
</g>
<path d="M1049.5 111a10 10 0 0 0 10 -10v0a10 10 0 0 1 10 -10"></path>
</g>
</g>
<path d="M1069.5 91h20"></path>
<path d="M303.5 91a10 10 0 0 1 10 10v30a10 10 0 0 0 10 10"></path>
<g>
<path d="M323.5 141h210.75"></path>
<path d="M858.75 141h210.75"></path>
<g class="non-terminal">
<path d="M534.25 141h0"></path>
<path d="M588.25 141h0"></path>
<rect x="534.25" y="130" width="54" height="22"></rect>
<text x="561.25" y="145">0..9</text>
</g>
<path d="M588.25 141h10"></path>
<path d="M598.25 141h10"></path>
<g class="non-terminal">
<path d="M608.25 141h0"></path>
<path d="M662.25 141h0"></path>
<rect x="608.25" y="130" width="54" height="22"></rect>
<text x="635.25" y="145">0..9</text>
</g>
<path d="M662.25 141h10"></path>
<path d="M672.25 141h10"></path>
<g class="terminal">
<path d="M682.25 141h0"></path>
<path d="M710.75 141h0"></path>
<rect x="682.25" y="130" width="28.5" height="22" rx="10" ry="10"></rect>
<text x="696.5" y="145">/</text>
</g>
<path d="M710.75 141h10"></path>
<path d="M720.75 141h10"></path>
<g class="non-terminal">
<path d="M730.75 141h0"></path>
<path d="M784.75 141h0"></path>
<rect x="730.75" y="130" width="54" height="22"></rect>
<text x="757.75" y="145">0..9</text>
</g>
<path d="M784.75 141h10"></path>
<path d="M794.75 141h10"></path>
<g class="non-terminal">
<path d="M804.75 141h0"></path>
<path d="M858.75 141h0"></path>
<rect x="804.75" y="130" width="54" height="22"></rect>
<text x="831.75" y="145">0..9</text>
</g>
</g>
<path d="M1069.5 141a10 10 0 0 0 10 -10v-30a10 10 0 0 1 10 -10"></path>
</g>
</g>
<path d="M1089.5 91h20"></path>
<path d="M181 91a10 10 0 0 1 10 10v60a10 10 0 0 0 10 10"></path>
<g>
<path d="M201 171h282"></path>
<path d="M807.5 171h282"></path>
<g class="non-terminal">
<path d="M483 171h0"></path>
<path d="M537 171h0"></path>
<rect x="483" y="160" width="54" height="22"></rect>
<text x="510" y="175">0..9</text>
</g>
<path d="M537 171h10"></path>
<path d="M547 171h10"></path>
<g class="non-terminal">
<path d="M557 171h0"></path>
<path d="M611 171h0"></path>
<rect x="557" y="160" width="54" height="22"></rect>
<text x="584" y="175">0..9</text>
</g>
<path d="M611 171h10"></path>
<path d="M621 171h10"></path>
<g class="terminal">
<path d="M631 171h0"></path>
<path d="M659.5 171h0"></path>
<rect x="631" y="160" width="28.5" height="22" rx="10" ry="10"></rect>
<text x="645.25" y="175">/</text>
</g>
<path d="M659.5 171h10"></path>
<path d="M669.5 171h10"></path>
<g class="non-terminal">
<path d="M679.5 171h0"></path>
<path d="M733.5 171h0"></path>
<rect x="679.5" y="160" width="54" height="22"></rect>
<text x="706.5" y="175">0..9</text>
</g>
<path d="M733.5 171h10"></path>
<path d="M743.5 171h10"></path>
<g class="non-terminal">
<path d="M753.5 171h0"></path>
<path d="M807.5 171h0"></path>
<rect x="753.5" y="160" width="54" height="22"></rect>
<text x="780.5" y="175">0..9</text>
</g>
</g>
<path d="M1089.5 171a10 10 0 0 0 10 -10v-60a10 10 0 0 1 10 -10"></path>
</g>
</g>
<path d="M1119.5 91h0"></path>
</g>
<path d="M1119.5 91h20"></path>
<path d="M40 91a10 10 0 0 1 10 10v90a10 10 0 0 0 10 10"></path>
<g>
<path d="M60 201h289.25"></path>
<path d="M830.25 201h289.25"></path>
<g class="terminal">
<path d="M349.25 201h0"></path>
<path d="M386.25 201h0"></path>
<rect x="349.25" y="190" width="37" height="22" rx="10" ry="10"></rect>
<text x="367.75" y="205">FM</text>
</g>
<path d="M386.25 201h10"></path>
<path d="M396.25 201h10"></path>
<g class="non-terminal">
<path d="M406.25 201h0"></path>
<path d="M460.25 201h0"></path>
<rect x="406.25" y="190" width="54" height="22"></rect>
<text x="433.25" y="205">0..9</text>
</g>
<path d="M460.25 201h10"></path>
<path d="M470.25 201h10"></path>
<g class="non-terminal">
<path d="M480.25 201h0"></path>
<path d="M534.25 201h0"></path>
<rect x="480.25" y="190" width="54" height="22"></rect>
<text x="507.25" y="205">0..9</text>
</g>
<path d="M534.25 201h10"></path>
<path d="M544.25 201h10"></path>
<g class="non-terminal">
<path d="M554.25 201h0"></path>
<path d="M608.25 201h0"></path>
<rect x="554.25" y="190" width="54" height="22"></rect>
<text x="581.25" y="205">0..9</text>
</g>
<path d="M608.25 201h10"></path>
<path d="M618.25 201h10"></path>
<g class="non-terminal">
<path d="M628.25 201h0"></path>
<path d="M682.25 201h0"></path>
<rect x="628.25" y="190" width="54" height="22"></rect>
<text x="655.25" y="205">0..9</text>
</g>
<path d="M682.25 201h10"></path>
<path d="M692.25 201h10"></path>
<g class="non-terminal">
<path d="M702.25 201h0"></path>
<path d="M756.25 201h0"></path>
<rect x="702.25" y="190" width="54" height="22"></rect>
<text x="729.25" y="205">0..9</text>
</g>
<path d="M756.25 201h10"></path>
<path d="M766.25 201h10"></path>
<g class="non-terminal">
<path d="M776.25 201h0"></path>
<path d="M830.25 201h0"></path>
<rect x="776.25" y="190" width="54" height="22"></rect>
<text x="803.25" y="205">0..9</text>
</g>
</g>
<path d="M1119.5 201a10 10 0 0 0 10 -10v-90a10 10 0 0 1 10 -10"></path>
</g>
<path d="M 1139.5 91 h 20 m -10 -10 v 20 m 10 -20 v 20"></path>
</g>
</svg>
