<svg xmlns="http://www.w3.org/2000/svg" class="railroad-diagram" width="1654.5" height="362" viewBox="0 0 1654.5 362">
<style>
/* <![CDATA[ */
svg.railroad-diagram {
    background-color: hsl(30,20%,95%);
}
svg.railroad-diagram path {
    stroke-width: 3;
    stroke: black;
    fill: rgba(0,0,0,0);
}
svg.railroad-diagram text {
    font: bold 14px monospace;
    text-anchor: middle;
}
svg.railroad-diagram text.diagram-text {
    font-size: 12px;
}
svg.railroad-diagram text.diagram-arrow {
    font-size: 16px;
}
svg.railroad-diagram text.label {
    text-anchor: start;
}
svg.railroad-diagram text.comment {
    font: italic 12px monospace;
}
svg.railroad-diagram g.non-terminal text {
    /*font-style: italic;*/
}
svg.railroad-diagram rect {
    stroke-width: 3;
    stroke: black;
    fill: hsl(120,100%,90%);
}
svg.railroad-diagram path.diagram-text {
    stroke-width: 3;
    stroke: black;
    fill: white;
    cursor: help;
}
svg.railroad-diagram g.diagram-text:hover path.diagram-text {
    fill: #eee;
}
/* ]]> */
</style>
<g transform="translate(.5 .5)">
<g>
<path d="M20 321v20m10 -20v20m-10 -10h20"></path>
</g>
<g>
<path d="M40 331h0"></path>
<path d="M256.5 331h0"></path>
<path d="M40 331a10 10 0 0 0 10 -10v-10a10 10 0 0 1 10 -10"></path>
<g class="terminal">
<path d="M60 301h57"></path>
<path d="M179.5 301h57"></path>
<rect x="117" y="290" width="62.5" height="22" rx="10" ry="10"></rect>
<text x="148.25" y="305">VIRGA</text>
</g>
<path d="M236.5 301a10 10 0 0 1 10 10v10a10 10 0 0 0 10 10"></path>
<path d="M40 331a10 10 0 0 0 10 -10v-40a10 10 0 0 1 10 -10"></path>
<g>
<path d="M60 271h0"></path>
<path d="M236.5 271h0"></path>
<g class="terminal">
<path d="M60 271h0"></path>
<path d="M122.5 271h0"></path>
<rect x="60" y="260" width="62.5" height="22" rx="10" ry="10"></rect>
<text x="91.25" y="275">ROTOR</text>
</g>
<path d="M122.5 271h10"></path>
<path d="M132.5 271h10"></path>
<g class="terminal">
<path d="M142.5 271h0"></path>
<path d="M171 271h0"></path>
<rect x="142.5" y="260" width="28.5" height="22" rx="10" ry="10"></rect>
<text x="156.75" y="275"> </text>
</g>
<path d="M171 271h10"></path>
<path d="M181 271h10"></path>
<g class="terminal">
<path d="M191 271h0"></path>
<path d="M236.5 271h0"></path>
<rect x="191" y="260" width="45.5" height="22" rx="10" ry="10"></rect>
<text x="213.75" y="275">CLD</text>
</g>
</g>
<path d="M236.5 271a10 10 0 0 1 10 10v40a10 10 0 0 0 10 10"></path>
<path d="M40 331a10 10 0 0 0 10 -10v-70a10 10 0 0 1 10 -10"></path>
<g class="terminal">
<path d="M60 241h61.25"></path>
<path d="M175.25 241h61.25"></path>
<rect x="121.25" y="230" width="54" height="22" rx="10" ry="10"></rect>
<text x="148.25" y="245">CCSL</text>
</g>
<path d="M236.5 241a10 10 0 0 1 10 10v70a10 10 0 0 0 10 10"></path>
<path d="M40 331a10 10 0 0 0 10 -10v-100a10 10 0 0 1 10 -10"></path>
<g class="terminal">
<path d="M60 211h61.25"></path>
<path d="M175.25 211h61.25"></path>
<rect x="121.25" y="200" width="54" height="22" rx="10" ry="10"></rect>
<text x="148.25" y="215">ACSL</text>
</g>
<path d="M236.5 211a10 10 0 0 1 10 10v100a10 10 0 0 0 10 10"></path>
<path d="M40 331a10 10 0 0 0 10 -10v-130a10 10 0 0 1 10 -10"></path>
<g class="terminal">
<path d="M60 181h61.25"></path>
<path d="M175.25 181h61.25"></path>
<rect x="121.25" y="170" width="54" height="22" rx="10" ry="10"></rect>
<text x="148.25" y="185">SCSL</text>
</g>
<path d="M236.5 181a10 10 0 0 1 10 10v130a10 10 0 0 0 10 10"></path>
<path d="M40 331a10 10 0 0 0 10 -10v-160a10 10 0 0 1 10 -10"></path>
<g class="terminal">
<path d="M60 151h65.5"></path>
<path d="M171 151h65.5"></path>
<rect x="125.5" y="140" width="45.5" height="22" rx="10" ry="10"></rect>
<text x="148.25" y="155">ACC</text>
</g>
<path d="M236.5 151a10 10 0 0 1 10 10v160a10 10 0 0 0 10 10"></path>
<path d="M40 331a10 10 0 0 0 10 -10v-190a10 10 0 0 1 10 -10"></path>
<g class="terminal">
<path d="M60 121h65.5"></path>
<path d="M171 121h65.5"></path>
<rect x="125.5" y="110" width="45.5" height="22" rx="10" ry="10"></rect>
<text x="148.25" y="125">TCU</text>
</g>
<path d="M236.5 121a10 10 0 0 1 10 10v190a10 10 0 0 0 10 10"></path>
<path d="M40 331a10 10 0 0 0 10 -10v-220a10 10 0 0 1 10 -10"></path>
<g class="terminal">
<path d="M60 91h57"></path>
<path d="M179.5 91h57"></path>
<rect x="117" y="80" width="62.5" height="22" rx="10" ry="10"></rect>
<text x="148.25" y="95">CBMAM</text>
</g>
<path d="M236.5 91a10 10 0 0 1 10 10v220a10 10 0 0 0 10 10"></path>
<path d="M40 331a10 10 0 0 0 10 -10v-250a10 10 0 0 1 10 -10"></path>
<g class="terminal">
<path d="M60 61h69.75"></path>
<path d="M166.75 61h69.75"></path>
<rect x="129.75" y="50" width="37" height="22" rx="10" ry="10"></rect>
<text x="148.25" y="65">CB</text>
</g>
<path d="M236.5 61a10 10 0 0 1 10 10v250a10 10 0 0 0 10 10"></path>
<path d="M40 331a10 10 0 0 0 10 -10v-280a10 10 0 0 1 10 -10"></path>
<g class="terminal">
<path d="M60 31h69.75"></path>
<path d="M166.75 31h69.75"></path>
<rect x="129.75" y="20" width="37" height="22" rx="10" ry="10"></rect>
<text x="148.25" y="35">TS</text>
</g>
<path d="M236.5 31a10 10 0 0 1 10 10v280a10 10 0 0 0 10 10"></path>
<path d="M40 331h20"></path>
<g class="terminal">
<path d="M60 331h61.25"></path>
<path d="M175.25 331h61.25"></path>
<rect x="121.25" y="320" width="54" height="22" rx="10" ry="10"></rect>
<text x="148.25" y="335">VCSH</text>
</g>
<path d="M236.5 331h20"></path>
<path d="M40 331a10 10 0 0 1 10 10v10a10 10 0 0 0 10 10"></path>
<g class="terminal">
<path d="M60 361h65.5"></path>
<path d="M171 361h65.5"></path>
<rect x="125.5" y="350" width="45.5" height="22" rx="10" ry="10"></rect>
<text x="148.25" y="365">FOG</text>
</g>
<path d="M236.5 361a10 10 0 0 0 10 -10v-10a10 10 0 0 1 10 -10"></path>
<path d="M40 331a10 10 0 0 1 10 10v40a10 10 0 0 0 10 10"></path>
<g class="terminal">
<path d="M60 391h69.75"></path>
<path d="M166.75 391h69.75"></path>
<rect x="129.75" y="380" width="37" height="22" rx="10" ry="10"></rect>
<text x="148.25" y="395">FG</text>
</g>
<path d="M236.5 391a10 10 0 0 0 10 -10v-40a10 10 0 0 1 10 -10"></path>
<path d="M40 331a10 10 0 0 1 10 10v70a10 10 0 0 0 10 10"></path>
<g class="terminal">
<path d="M60 421h61.25"></path>
<path d="M175.25 421h61.25"></path>
<rect x="121.25" y="410" width="54" height="22" rx="10" ry="10"></rect>
<text x="148.25" y="425">HAZE</text>
</g>
<path d="M236.5 421a10 10 0 0 0 10 -10v-70a10 10 0 0 1 10 -10"></path>
<path d="M40 331a10 10 0 0 1 10 10v100a10 10 0 0 0 10 10"></path>
<g class="terminal">
<path d="M60 451h69.75"></path>
<path d="M166.75 451h69.75"></path>
<rect x="129.75" y="440" width="37" height="22" rx="10" ry="10"></rect>
<text x="148.25" y="455">HZ</text>
</g>
<path d="M236.5 451a10 10 0 0 0 10 -10v-100a10 10 0 0 1 10 -10"></path>
<path d="M40 331a10 10 0 0 1 10 10v130a10 10 0 0 0 10 10"></path>
<g class="terminal">
<path d="M60 481h57"></path>
<path d="M179.5 481h57"></path>
<rect x="117" y="470" width="62.5" height="22" rx="10" ry="10"></rect>
<text x="148.25" y="485">SMOKE</text>
</g>
<path d="M236.5 481a10 10 0 0 0 10 -10v-130a10 10 0 0 1 10 -10"></path>
<path d="M40 331a10 10 0 0 1 10 10v160a10 10 0 0 0 10 10"></path>
<g class="terminal">
<path d="M60 511h69.75"></path>
<path d="M166.75 511h69.75"></path>
<rect x="129.75" y="500" width="37" height="22" rx="10" ry="10"></rect>
<text x="148.25" y="515">FU</text>
</g>
<path d="M236.5 511a10 10 0 0 0 10 -10v-160a10 10 0 0 1 10 -10"></path>
<path d="M40 331a10 10 0 0 1 10 10v190a10 10 0 0 0 10 10"></path>
<g class="terminal">
<path d="M60 541h61.25"></path>
<path d="M175.25 541h61.25"></path>
<rect x="121.25" y="530" width="54" height="22" rx="10" ry="10"></rect>
<text x="148.25" y="545">BLSN</text>
</g>
<path d="M236.5 541a10 10 0 0 0 10 -10v-190a10 10 0 0 1 10 -10"></path>
<path d="M40 331a10 10 0 0 1 10 10v220a10 10 0 0 0 10 10"></path>
<g class="terminal">
<path d="M60 571h61.25"></path>
<path d="M175.25 571h61.25"></path>
<rect x="121.25" y="560" width="54" height="22" rx="10" ry="10"></rect>
<text x="148.25" y="575">BLDU</text>
</g>
<path d="M236.5 571a10 10 0 0 0 10 -10v-220a10 10 0 0 1 10 -10"></path>
<path d="M40 331a10 10 0 0 1 10 10v250a10 10 0 0 0 10 10"></path>
<g class="terminal">
<path d="M60 601h61.25"></path>
<path d="M175.25 601h61.25"></path>
<rect x="121.25" y="590" width="54" height="22" rx="10" ry="10"></rect>
<text x="148.25" y="605">BLSA</text>
</g>
<path d="M236.5 601a10 10 0 0 0 10 -10v-250a10 10 0 0 1 10 -10"></path>
<path d="M40 331a10 10 0 0 1 10 10v280a10 10 0 0 0 10 10"></path>
<g class="terminal">
<path d="M60 631h61.25"></path>
<path d="M175.25 631h61.25"></path>
<rect x="121.25" y="620" width="54" height="22" rx="10" ry="10"></rect>
<text x="148.25" y="635">MIFG</text>
</g>
<path d="M236.5 631a10 10 0 0 0 10 -10v-280a10 10 0 0 1 10 -10"></path>
<path d="M40 331a10 10 0 0 1 10 10v310a10 10 0 0 0 10 10"></path>
<g class="terminal">
<path d="M60 661h61.25"></path>
<path d="M175.25 661h61.25"></path>
<rect x="121.25" y="650" width="54" height="22" rx="10" ry="10"></rect>
<text x="148.25" y="665">BCFG</text>
</g>
<path d="M236.5 661a10 10 0 0 0 10 -10v-310a10 10 0 0 1 10 -10"></path>
</g>
<path d="M256.5 331h10"></path>
<g class="terminal">
<path d="M266.5 331h0"></path>
<path d="M295 331h0"></path>
<rect x="266.5" y="320" width="28.5" height="22" rx="10" ry="10"></rect>
<text x="280.75" y="335"> </text>
</g>
<path d="M295 331h10"></path>
<g>
<path d="M305 331h0"></path>
<path d="M598.5 331h0"></path>
<path d="M305 331a10 10 0 0 0 10 -10v0a10 10 0 0 1 10 -10"></path>
<g>
<path d="M325 311h75.5"></path>
<path d="M503 311h75.5"></path>
<g class="terminal">
<path d="M400.5 311h0"></path>
<path d="M454.5 311h0"></path>
<rect x="400.5" y="300" width="54" height="22" rx="10" ry="10"></rect>
<text x="427.5" y="315">DSNT</text>
</g>
<path d="M454.5 311h10"></path>
<path d="M464.5 311h10"></path>
<g class="terminal">
<path d="M474.5 311h0"></path>
<path d="M503 311h0"></path>
<rect x="474.5" y="300" width="28.5" height="22" rx="10" ry="10"></rect>
<text x="488.75" y="315"> </text>
</g>
</g>
<path d="M578.5 311a10 10 0 0 1 10 10v0a10 10 0 0 0 10 10"></path>
<path d="M305 331h20"></path>
<g>
<path d="M325 331h253.5"></path>
</g>
<path d="M578.5 331h20"></path>
<path d="M305 331a10 10 0 0 1 10 10v8a10 10 0 0 0 10 10"></path>
<g>
<path d="M325 359h0"></path>
<path d="M578.5 359h0"></path>
<g class="non-terminal">
<path d="M325 359h0"></path>
<path d="M379 359h0"></path>
<rect x="325" y="348" width="54" height="22"></rect>
<text x="352" y="363">0..9</text>
</g>
<path d="M379 359h10"></path>
<g>
<path d="M389 359h0"></path>
<path d="M483 359h0"></path>
<path d="M389 359a10 10 0 0 0 10 -10v0a10 10 0 0 1 10 -10"></path>
<g>
<path d="M409 339h54"></path>
</g>
<path d="M463 339a10 10 0 0 1 10 10v0a10 10 0 0 0 10 10"></path>
<path d="M389 359h20"></path>
<g class="non-terminal">
<path d="M409 359h0"></path>
<path d="M463 359h0"></path>
<rect x="409" y="348" width="54" height="22"></rect>
<text x="436" y="363">0..9</text>
</g>
<path d="M463 359h20"></path>
</g>
<path d="M483 359h10"></path>
<g class="terminal">
<path d="M493 359h0"></path>
<path d="M530 359h0"></path>
<rect x="493" y="348" width="37" height="22" rx="10" ry="10"></rect>
<text x="511.5" y="363">KM</text>
</g>
<path d="M530 359h10"></path>
<path d="M540 359h10"></path>
<g class="terminal">
<path d="M550 359h0"></path>
<path d="M578.5 359h0"></path>
<rect x="550" y="348" width="28.5" height="22" rx="10" ry="10"></rect>
<text x="564.25" y="363"> </text>
</g>
</g>
<path d="M578.5 359a10 10 0 0 0 10 -10v-8a10 10 0 0 1 10 -10"></path>
</g>
<g>
<path d="M598.5 331h0"></path>
<path d="M871 331h0"></path>
<path d="M598.5 331a10 10 0 0 0 10 -10v0a10 10 0 0 1 10 -10"></path>
<g class="non-terminal">
<path d="M618.5 311h0"></path>
<path d="M851 311h0"></path>
<rect x="618.5" y="300" width="232.5" height="22"></rect>
<text x="734.75" y="315">Cardinal direction sector</text>
</g>
<path d="M851 311a10 10 0 0 1 10 10v0a10 10 0 0 0 10 10"></path>
<path d="M598.5 331h20"></path>
<g>
<path d="M618.5 331h232.5"></path>
</g>
<path d="M851 331h20"></path>
<path d="M598.5 331a10 10 0 0 1 10 10v0a10 10 0 0 0 10 10"></path>
<g class="terminal">
<path d="M618.5 351h93.5"></path>
<path d="M757.5 351h93.5"></path>
<rect x="712" y="340" width="45.5" height="22" rx="10" ry="10"></rect>
<text x="734.75" y="355">OHD</text>
</g>
<path d="M851 351a10 10 0 0 0 10 -10v0a10 10 0 0 1 10 -10"></path>
<path d="M598.5 331a10 10 0 0 1 10 10v30a10 10 0 0 0 10 10"></path>
<g class="terminal">
<path d="M618.5 381h85"></path>
<path d="M766 381h85"></path>
<rect x="703.5" y="370" width="62.5" height="22" rx="10" ry="10"></rect>
<text x="734.75" y="385">ALQDS</text>
</g>
<path d="M851 381a10 10 0 0 0 10 -10v-30a10 10 0 0 1 10 -10"></path>
</g>
<g>
<path d="M871 331h0"></path>
<path d="M1287.5 331h0"></path>
<path d="M871 331a10 10 0 0 0 10 -10v-29a10 10 0 0 1 10 -10"></path>
<g>
<path d="M891 282h0"></path>
<path d="M1267.5 282h0"></path>
<g class="terminal">
<path d="M891 282h0"></path>
<path d="M919.5 282h0"></path>
<rect x="891" y="271" width="28.5" height="22" rx="10" ry="10"></rect>
<text x="905.25" y="286"> </text>
</g>
<path d="M919.5 282h10"></path>
<path d="M929.5 282h10"></path>
<g class="terminal">
<path d="M939.5 282h0"></path>
<path d="M985 282h0"></path>
<rect x="939.5" y="271" width="45.5" height="22" rx="10" ry="10"></rect>
<text x="962.25" y="286">AND</text>
</g>
<path d="M985 282h10"></path>
<g>
<path d="M995 282h0"></path>
<path d="M1267.5 282h0"></path>
<path d="M995 282a10 10 0 0 0 10 -10v-10a10 10 0 0 1 10 -10"></path>
<g class="non-terminal">
<path d="M1015 252h0"></path>
<path d="M1247.5 252h0"></path>
<rect x="1015" y="241" width="232.5" height="22"></rect>
<text x="1131.25" y="256">Cardinal direction sector</text>
</g>
<path d="M1247.5 252a10 10 0 0 1 10 10v10a10 10 0 0 0 10 10"></path>
<path d="M995 282h20"></path>
<g class="terminal">
<path d="M1015 282h93.5"></path>
<path d="M1154 282h93.5"></path>
<rect x="1108.5" y="271" width="45.5" height="22" rx="10" ry="10"></rect>
<text x="1131.25" y="286">OHD</text>
</g>
<path d="M1247.5 282h20"></path>
<path d="M995 282a10 10 0 0 1 10 10v10a10 10 0 0 0 10 10"></path>
<g class="terminal">
<path d="M1015 312h85"></path>
<path d="M1162.5 312h85"></path>
<rect x="1100" y="301" width="62.5" height="22" rx="10" ry="10"></rect>
<text x="1131.25" y="316">ALQDS</text>
</g>
<path d="M1247.5 312a10 10 0 0 0 10 -10v-10a10 10 0 0 1 10 -10"></path>
</g>
</g>
<path d="M1267.5 282a10 10 0 0 1 10 10v29a10 10 0 0 0 10 10"></path>
<path d="M871 331h20"></path>
<g>
<path d="M891 331h376.5"></path>
</g>
<path d="M1267.5 331h20"></path>
</g>
<g>
<path d="M1287.5 331h0"></path>
<path d="M1693 331h0"></path>
<path d="M1287.5 331a10 10 0 0 0 10 -10v0a10 10 0 0 1 10 -10"></path>
<g>
<path d="M1307.5 311h365.5"></path>
</g>
<path d="M1673 311a10 10 0 0 1 10 10v0a10 10 0 0 0 10 10"></path>
<path d="M1287.5 331h20"></path>
<g>
<path d="M1307.5 331h0"></path>
<path d="M1673 331h0"></path>
<g class="terminal">
<path d="M1307.5 331h0"></path>
<path d="M1336 331h0"></path>
<rect x="1307.5" y="320" width="28.5" height="22" rx="10" ry="10"></rect>
<text x="1321.75" y="335"> </text>
</g>
<path d="M1336 331h10"></path>
<path d="M1346 331h10"></path>
<g class="terminal">
<path d="M1356 331h0"></path>
<path d="M1401.5 331h0"></path>
<rect x="1356" y="320" width="45.5" height="22" rx="10" ry="10"></rect>
<text x="1378.75" y="335">MOV</text>
</g>
<path d="M1401.5 331h10"></path>
<path d="M1411.5 331h10"></path>
<g class="terminal">
<path d="M1421.5 331h0"></path>
<path d="M1450 331h0"></path>
<rect x="1421.5" y="320" width="28.5" height="22" rx="10" ry="10"></rect>
<text x="1435.75" y="335"> </text>
</g>
<path d="M1450 331h10"></path>
<g>
<path d="M1460 331h0"></path>
<path d="M1673 331h0"></path>
<path d="M1460 331h20"></path>
<g class="non-terminal">
<path d="M1480 331h0"></path>
<path d="M1653 331h0"></path>
<rect x="1480" y="320" width="173" height="22"></rect>
<text x="1566.5" y="335">Cardinal direction</text>
</g>
<path d="M1653 331h20"></path>
<path d="M1460 331a10 10 0 0 1 10 10v10a10 10 0 0 0 10 10"></path>
<g class="terminal">
<path d="M1480 361h46.75"></path>
<path d="M1606.25 361h46.75"></path>
<rect x="1526.75" y="350" width="79.5" height="22" rx="10" ry="10"></rect>
<text x="1566.5" y="365">UNKNOWN</text>
</g>
<path d="M1653 361a10 10 0 0 0 10 -10v-10a10 10 0 0 1 10 -10"></path>
</g>
</g>
<path d="M1673 331h20"></path>
</g>
<path d="M 1693 331 h 20 m -10 -10 v 20 m 10 -20 v 20"></path>
</g>
</svg>