<svg xmlns="http://www.w3.org/2000/svg" class="railroad-diagram" width="480.5" height="171" viewBox="0 0 480.5 171">
<style>
/* <![CDATA[ */
svg.railroad-diagram {
    background-color: hsl(30,20%,95%);
}
svg.railroad-diagram path {
    stroke-width: 3;
    stroke: black;
    fill: rgba(0,0,0,0);
}
svg.railroad-diagram text {
    font: bold 14px monospace;
    text-anchor: middle;
}
svg.railroad-diagram text.diagram-text {
    font-size: 12px;
}
svg.railroad-diagram text.diagram-arrow {
    font-size: 16px;
}
svg.railroad-diagram text.label {
    text-anchor: start;
}
svg.railroad-diagram text.comment {
    font: italic 12px monospace;
}
svg.railroad-diagram g.non-terminal text {
    /*font-style: italic;*/
}
svg.railroad-diagram rect {
    stroke-width: 3;
    stroke: black;
    fill: hsl(120,100%,90%);
}
svg.railroad-diagram path.diagram-text {
    stroke-width: 3;
    stroke: black;
    fill: white;
    cursor: help;
}
svg.railroad-diagram g.diagram-text:hover path.diagram-text {
    fill: #eee;
}
/* ]]> */
</style>
<g transform="translate(.5 .5)">
<g>
<path d="M20 110v20m10 -20v20m-10 -10h20"></path>
</g>
<g>
<path d="M40 120h0"></path>
<path d="M440.5 120h0"></path>
<path d="M40 120a10 10 0 0 0 10 -10v-49a10 10 0 0 1 10 -10"></path>
<g>
<path d="M60 51h0"></path>
<path d="M420.5 51h0"></path>
<g class="terminal">
<path d="M60 51h0"></path>
<path d="M97 51h0"></path>
<rect x="60" y="40" width="37" height="22" rx="10" ry="10"></rect>
<text x="78.5" y="55">WS</text>
</g>
<path d="M97 51h10"></path>
<path d="M107 51h10"></path>
<g class="terminal">
<path d="M117 51h0"></path>
<path d="M145.5 51h0"></path>
<rect x="117" y="40" width="28.5" height="22" rx="10" ry="10"></rect>
<text x="131.25" y="55"> </text>
</g>
<path d="M145.5 51h10"></path>
<path d="M155.5 51h10"></path>
<g class="terminal">
<path d="M165.5 51h0"></path>
<path d="M194 51h0"></path>
<rect x="165.5" y="40" width="28.5" height="22" rx="10" ry="10"></rect>
<text x="179.75" y="55">R</text>
</g>
<path d="M194 51h10"></path>
<path d="M204 51h10"></path>
<g class="non-terminal">
<path d="M214 51h0"></path>
<path d="M268 51h0"></path>
<rect x="214" y="40" width="54" height="22"></rect>
<text x="241" y="55">0..9</text>
</g>
<path d="M268 51h10"></path>
<path d="M278 51h10"></path>
<g class="non-terminal">
<path d="M288 51h0"></path>
<path d="M342 51h0"></path>
<rect x="288" y="40" width="54" height="22"></rect>
<text x="315" y="55">0..9</text>
</g>
<path d="M342 51h10"></path>
<g>
<path d="M352 51h0"></path>
<path d="M420.5 51h0"></path>
<path d="M352 51a10 10 0 0 0 10 -10v0a10 10 0 0 1 10 -10"></path>
<g class="terminal">
<path d="M372 31h0"></path>
<path d="M400.5 31h0"></path>
<rect x="372" y="20" width="28.5" height="22" rx="10" ry="10"></rect>
<text x="386.25" y="35">R</text>
</g>
<path d="M400.5 31a10 10 0 0 1 10 10v0a10 10 0 0 0 10 10"></path>
<path d="M352 51h20"></path>
<g>
<path d="M372 51h28.5"></path>
</g>
<path d="M400.5 51h20"></path>
<path d="M352 51a10 10 0 0 1 10 10v0a10 10 0 0 0 10 10"></path>
<g class="terminal">
<path d="M372 71h0"></path>
<path d="M400.5 71h0"></path>
<rect x="372" y="60" width="28.5" height="22" rx="10" ry="10"></rect>
<text x="386.25" y="75">L</text>
</g>
<path d="M400.5 71a10 10 0 0 0 10 -10v0a10 10 0 0 1 10 -10"></path>
<path d="M352 51a10 10 0 0 1 10 10v30a10 10 0 0 0 10 10"></path>
<g class="terminal">
<path d="M372 101h0"></path>
<path d="M400.5 101h0"></path>
<rect x="372" y="90" width="28.5" height="22" rx="10" ry="10"></rect>
<text x="386.25" y="105">C</text>
</g>
<path d="M400.5 101a10 10 0 0 0 10 -10v-30a10 10 0 0 1 10 -10"></path>
</g>
</g>
<path d="M420.5 51a10 10 0 0 1 10 10v49a10 10 0 0 0 10 10"></path>
<path d="M40 120h20"></path>
<g>
<path d="M60 120h360.5"></path>
</g>
<path d="M420.5 120h20"></path>
<path d="M40 120a10 10 0 0 1 10 10v0a10 10 0 0 0 10 10"></path>
<g>
<path d="M60 140h47.75"></path>
<path d="M372.75 140h47.75"></path>
<g class="terminal">
<path d="M107.75 140h0"></path>
<path d="M144.75 140h0"></path>
<rect x="107.75" y="129" width="37" height="22" rx="10" ry="10"></rect>
<text x="126.25" y="144">WS</text>
</g>
<path d="M144.75 140h10"></path>
<path d="M154.75 140h10"></path>
<g class="terminal">
<path d="M164.75 140h0"></path>
<path d="M193.25 140h0"></path>
<rect x="164.75" y="129" width="28.5" height="22" rx="10" ry="10"></rect>
<text x="179" y="144"> </text>
</g>
<path d="M193.25 140h10"></path>
<path d="M203.25 140h10"></path>
<g class="terminal">
<path d="M213.25 140h0"></path>
<path d="M258.75 140h0"></path>
<rect x="213.25" y="129" width="45.5" height="22" rx="10" ry="10"></rect>
<text x="236" y="144">ALL</text>
</g>
<path d="M258.75 140h10"></path>
<path d="M268.75 140h10"></path>
<g class="terminal">
<path d="M278.75 140h0"></path>
<path d="M307.25 140h0"></path>
<rect x="278.75" y="129" width="28.5" height="22" rx="10" ry="10"></rect>
<text x="293" y="144"> </text>
</g>
<path d="M307.25 140h10"></path>
<path d="M317.25 140h10"></path>
<g class="terminal">
<path d="M327.25 140h0"></path>
<path d="M372.75 140h0"></path>
<rect x="327.25" y="129" width="45.5" height="22" rx="10" ry="10"></rect>
<text x="350" y="144">RWY</text>
</g>
</g>
<path d="M420.5 140a10 10 0 0 0 10 -10v0a10 10 0 0 1 10 -10"></path>
</g>
<path d="M 440.5 120 h 20 m -10 -10 v 20 m 10 -20 v 20"></path>
</g>
</svg>
