<svg xmlns="http://www.w3.org/2000/svg" class="railroad-diagram" width="1215" height="110" viewBox="0 0 1215 110">
<style>
/* <![CDATA[ */
svg.railroad-diagram {
    background-color: hsl(30,20%,95%);
}
svg.railroad-diagram path {
    stroke-width: 3;
    stroke: black;
    fill: rgba(0,0,0,0);
}
svg.railroad-diagram text {
    font: bold 14px monospace;
    text-anchor: middle;
}
svg.railroad-diagram text.diagram-text {
    font-size: 12px;
}
svg.railroad-diagram text.diagram-arrow {
    font-size: 16px;
}
svg.railroad-diagram text.label {
    text-anchor: start;
}
svg.railroad-diagram text.comment {
    font: italic 12px monospace;
}
svg.railroad-diagram g.non-terminal text {
    /*font-style: italic;*/
}
svg.railroad-diagram rect {
    stroke-width: 3;
    stroke: black;
    fill: hsl(120,100%,90%);
}
svg.railroad-diagram path.diagram-text {
    stroke-width: 3;
    stroke: black;
    fill: white;
    cursor: help;
}
svg.railroad-diagram g.diagram-text:hover path.diagram-text {
    fill: #eee;
}
/* ]]> */
</style>
<g transform="translate(.5 .5)">
<g>
<path d="M20 30v20m10 -20v20m-10 -10h20"></path>
</g>
<path d="M40 40h10"></path>
<g>
<path d="M50 40h0"></path>
<path d="M137 40h0"></path>
<text x="93.5" y="45" class="comment">RMK section</text>
</g>
<path d="M137 40h10"></path>
<g>
<path d="M147 40h0"></path>
<path d="M1175 40h0"></path>
<path d="M147 40h20"></path>
<g>
<path d="M167 40h240"></path>
<path d="M915 40h240"></path>
<g class="terminal">
<path d="M407 40h0"></path>
<path d="M469.5 40h0"></path>
<rect x="407" y="29" width="62.5" height="22" rx="10" ry="10"></rect>
<text x="438.25" y="44">WSHFT</text>
</g>
<path d="M469.5 40h10"></path>
<path d="M479.5 40h10"></path>
<g class="terminal">
<path d="M489.5 40h0"></path>
<path d="M518 40h0"></path>
<rect x="489.5" y="29" width="28.5" height="22" rx="10" ry="10"></rect>
<text x="503.75" y="44"> </text>
</g>
<path d="M518 40h10"></path>
<g>
<path d="M528 40h0"></path>
<path d="M656 40h0"></path>
<path d="M528 40a10 10 0 0 0 10 -10v0a10 10 0 0 1 10 -10"></path>
<g>
<path d="M548 20h88"></path>
</g>
<path d="M636 20a10 10 0 0 1 10 10v0a10 10 0 0 0 10 10"></path>
<path d="M528 40h20"></path>
<g class="non-terminal">
<path d="M548 40h0"></path>
<path d="M636 40h0"></path>
<rect x="548" y="29" width="88" height="22"></rect>
<text x="592" y="44">00 to 24</text>
</g>
<path d="M636 40h20"></path>
</g>
<path d="M656 40h10"></path>
<g class="non-terminal">
<path d="M666 40h0"></path>
<path d="M754 40h0"></path>
<rect x="666" y="29" width="88" height="22"></rect>
<text x="710" y="44">00 to 59</text>
</g>
<path d="M754 40h10"></path>
<path d="M764 40h10"></path>
<g class="terminal">
<path d="M774 40h0"></path>
<path d="M802.5 40h0"></path>
<rect x="774" y="29" width="28.5" height="22" rx="10" ry="10"></rect>
<text x="788.25" y="44"> </text>
</g>
<path d="M802.5 40h10"></path>
<g>
<path d="M812.5 40h0"></path>
<path d="M915 40h0"></path>
<path d="M812.5 40a10 10 0 0 0 10 -10v0a10 10 0 0 1 10 -10"></path>
<g>
<path d="M832.5 20h62.5"></path>
</g>
<path d="M895 20a10 10 0 0 1 10 10v0a10 10 0 0 0 10 10"></path>
<path d="M812.5 40h20"></path>
<g class="terminal">
<path d="M832.5 40h0"></path>
<path d="M895 40h0"></path>
<rect x="832.5" y="29" width="62.5" height="22" rx="10" ry="10"></rect>
<text x="863.75" y="44">FROPA</text>
</g>
<path d="M895 40h20"></path>
</g>
</g>
<path d="M1155 40h20"></path>
<path d="M147 40a10 10 0 0 1 10 10v19a10 10 0 0 0 10 10"></path>
<g>
<path d="M167 79h0"></path>
<path d="M1155 79h0"></path>
<g class="terminal">
<path d="M167 79h0"></path>
<path d="M204 79h0"></path>
<rect x="167" y="68" width="37" height="22" rx="10" ry="10"></rect>
<text x="185.5" y="83">PK</text>
</g>
<path d="M204 79h10"></path>
<path d="M214 79h10"></path>
<g class="terminal">
<path d="M224 79h0"></path>
<path d="M252.5 79h0"></path>
<rect x="224" y="68" width="28.5" height="22" rx="10" ry="10"></rect>
<text x="238.25" y="83"> </text>
</g>
<path d="M252.5 79h10"></path>
<path d="M262.5 79h10"></path>
<g class="terminal">
<path d="M272.5 79h0"></path>
<path d="M318 79h0"></path>
<rect x="272.5" y="68" width="45.5" height="22" rx="10" ry="10"></rect>
<text x="295.25" y="83">WND</text>
</g>
<path d="M318 79h10"></path>
<path d="M328 79h10"></path>
<g class="terminal">
<path d="M338 79h0"></path>
<path d="M366.5 79h0"></path>
<rect x="338" y="68" width="28.5" height="22" rx="10" ry="10"></rect>
<text x="352.25" y="83"> </text>
</g>
<path d="M366.5 79h10"></path>
<path d="M376.5 79h10"></path>
<g class="non-terminal">
<path d="M386.5 79h0"></path>
<path d="M440.5 79h0"></path>
<rect x="386.5" y="68" width="54" height="22"></rect>
<text x="413.5" y="83">0..9</text>
</g>
<path d="M440.5 79h10"></path>
<path d="M450.5 79h10"></path>
<g class="non-terminal">
<path d="M460.5 79h0"></path>
<path d="M514.5 79h0"></path>
<rect x="460.5" y="68" width="54" height="22"></rect>
<text x="487.5" y="83">0..9</text>
</g>
<path d="M514.5 79h10"></path>
<path d="M524.5 79h10"></path>
<g class="terminal">
<path d="M534.5 79h0"></path>
<path d="M563 79h0"></path>
<rect x="534.5" y="68" width="28.5" height="22" rx="10" ry="10"></rect>
<text x="548.75" y="83">0</text>
</g>
<path d="M563 79h10"></path>
<g>
<path d="M573 79h0"></path>
<path d="M684 79h0"></path>
<path d="M573 79a10 10 0 0 0 10 -10v0a10 10 0 0 1 10 -10"></path>
<g>
<path d="M593 59h71"></path>
</g>
<path d="M664 59a10 10 0 0 1 10 10v0a10 10 0 0 0 10 10"></path>
<path d="M573 79h20"></path>
<g class="non-terminal">
<path d="M593 79h0"></path>
<path d="M664 79h0"></path>
<rect x="593" y="68" width="71" height="22"></rect>
<text x="628.5" y="83">1 to 9</text>
</g>
<path d="M664 79h20"></path>
</g>
<path d="M684 79h10"></path>
<g class="non-terminal">
<path d="M694 79h0"></path>
<path d="M748 79h0"></path>
<rect x="694" y="68" width="54" height="22"></rect>
<text x="721" y="83">0..9</text>
</g>
<path d="M748 79h10"></path>
<path d="M758 79h10"></path>
<g class="non-terminal">
<path d="M768 79h0"></path>
<path d="M822 79h0"></path>
<rect x="768" y="68" width="54" height="22"></rect>
<text x="795" y="83">0..9</text>
</g>
<path d="M822 79h10"></path>
<path d="M832 79h10"></path>
<g class="terminal">
<path d="M842 79h0"></path>
<path d="M870.5 79h0"></path>
<rect x="842" y="68" width="28.5" height="22" rx="10" ry="10"></rect>
<text x="856.25" y="83">/</text>
</g>
<path d="M870.5 79h10"></path>
<g>
<path d="M880.5 79h0"></path>
<path d="M1008.5 79h0"></path>
<path d="M880.5 79a10 10 0 0 0 10 -10v0a10 10 0 0 1 10 -10"></path>
<g>
<path d="M900.5 59h88"></path>
</g>
<path d="M988.5 59a10 10 0 0 1 10 10v0a10 10 0 0 0 10 10"></path>
<path d="M880.5 79h20"></path>
<g class="non-terminal">
<path d="M900.5 79h0"></path>
<path d="M988.5 79h0"></path>
<rect x="900.5" y="68" width="88" height="22"></rect>
<text x="944.5" y="83">00 to 24</text>
</g>
<path d="M988.5 79h20"></path>
</g>
<path d="M1008.5 79h10"></path>
<g class="non-terminal">
<path d="M1018.5 79h0"></path>
<path d="M1106.5 79h0"></path>
<rect x="1018.5" y="68" width="88" height="22"></rect>
<text x="1062.5" y="83">00 to 59</text>
</g>
<path d="M1106.5 79h10"></path>
<path d="M1116.5 79h10"></path>
<g class="terminal">
<path d="M1126.5 79h0"></path>
<path d="M1155 79h0"></path>
<rect x="1126.5" y="68" width="28.5" height="22" rx="10" ry="10"></rect>
<text x="1140.75" y="83"> </text>
</g>
</g>
<path d="M1155 79a10 10 0 0 0 10 -10v-19a10 10 0 0 1 10 -10"></path>
</g>
<path d="M 1175 40 h 20 m -10 -10 v 20 m 10 -20 v 20"></path>
</g>
</svg>
