<svg xmlns="http://www.w3.org/2000/svg" class="railroad-diagram" width="553" height="370" viewBox="0 0 553 370">
<style>
/* <![CDATA[ */
svg.railroad-diagram {
    background-color: hsl(30,20%,95%);
}
svg.railroad-diagram path {
    stroke-width: 3;
    stroke: black;
    fill: rgba(0,0,0,0);
}
svg.railroad-diagram text {
    font: bold 14px monospace;
    text-anchor: middle;
}
svg.railroad-diagram text.diagram-text {
    font-size: 12px;
}
svg.railroad-diagram text.diagram-arrow {
    font-size: 16px;
}
svg.railroad-diagram text.label {
    text-anchor: start;
}
svg.railroad-diagram text.comment {
    font: italic 12px monospace;
}
svg.railroad-diagram g.non-terminal text {
    /*font-style: italic;*/
}
svg.railroad-diagram rect {
    stroke-width: 3;
    stroke: black;
    fill: hsl(120,100%,90%);
}
svg.railroad-diagram path.diagram-text {
    stroke-width: 3;
    stroke: black;
    fill: white;
    cursor: help;
}
svg.railroad-diagram g.diagram-text:hover path.diagram-text {
    fill: #eee;
}
/* ]]> */
</style>
<g transform="translate(.5 .5)">
<g>
<path d="M20 141v20m10 -20v20m-10 -10h20"></path>
</g>
<g>
<path d="M40 151h0"></path>
<path d="M513 151h0"></path>
<path d="M40 151a10 10 0 0 0 10 -10v-70a10 10 0 0 1 10 -10"></path>
<g class="terminal">
<path d="M60 61h193.75"></path>
<path d="M299.25 61h193.75"></path>
<rect x="253.75" y="50" width="45.5" height="22" rx="10" ry="10"></rect>
<text x="276.5" y="65">SKC</text>
</g>
<path d="M493 61a10 10 0 0 1 10 10v70a10 10 0 0 0 10 10"></path>
<path d="M40 151a10 10 0 0 0 10 -10v-100a10 10 0 0 1 10 -10"></path>
<g class="terminal">
<path d="M60 31h193.75"></path>
<path d="M299.25 31h193.75"></path>
<rect x="253.75" y="20" width="45.5" height="22" rx="10" ry="10"></rect>
<text x="276.5" y="35">CLR</text>
</g>
<path d="M493 31a10 10 0 0 1 10 10v100a10 10 0 0 0 10 10"></path>
<path d="M40 151h20"></path>
<g>
<path d="M60 151h0"></path>
<path d="M493 151h0"></path>
<path d="M60 151h10"></path>
<g>
<path d="M70 151h0"></path>
<path d="M483 151h0"></path>
<g>
<path d="M70 151h0"></path>
<path d="M155.5 151h0"></path>
<path d="M70 151a10 10 0 0 0 10 -10v-10a10 10 0 0 1 10 -10"></path>
<g class="terminal">
<path d="M90 121h0"></path>
<path d="M135.5 121h0"></path>
<rect x="90" y="110" width="45.5" height="22" rx="10" ry="10"></rect>
<text x="112.75" y="125">SCT</text>
</g>
<path d="M135.5 121a10 10 0 0 1 10 10v10a10 10 0 0 0 10 10"></path>
<path d="M70 151a10 10 0 0 0 10 -10v-40a10 10 0 0 1 10 -10"></path>
<g class="terminal">
<path d="M90 91h0"></path>
<path d="M135.5 91h0"></path>
<rect x="90" y="80" width="45.5" height="22" rx="10" ry="10"></rect>
<text x="112.75" y="95">FEW</text>
</g>
<path d="M135.5 91a10 10 0 0 1 10 10v40a10 10 0 0 0 10 10"></path>
<path d="M70 151h20"></path>
<g class="terminal">
<path d="M90 151h0"></path>
<path d="M135.5 151h0"></path>
<rect x="90" y="140" width="45.5" height="22" rx="10" ry="10"></rect>
<text x="112.75" y="155">BKN</text>
</g>
<path d="M135.5 151h20"></path>
<path d="M70 151a10 10 0 0 1 10 10v10a10 10 0 0 0 10 10"></path>
<g class="terminal">
<path d="M90 181h0"></path>
<path d="M135.5 181h0"></path>
<rect x="90" y="170" width="45.5" height="22" rx="10" ry="10"></rect>
<text x="112.75" y="185">OVC</text>
</g>
<path d="M135.5 181a10 10 0 0 0 10 -10v-10a10 10 0 0 1 10 -10"></path>
<path d="M70 151a10 10 0 0 1 10 10v40a10 10 0 0 0 10 10"></path>
<g class="terminal">
<path d="M90 211h0"></path>
<path d="M135.5 211h0"></path>
<rect x="90" y="200" width="45.5" height="22" rx="10" ry="10"></rect>
<text x="112.75" y="215">///</text>
</g>
<path d="M135.5 211a10 10 0 0 0 10 -10v-40a10 10 0 0 1 10 -10"></path>
</g>
<g>
<path d="M155.5 151h0"></path>
<path d="M397.5 151h0"></path>
<path d="M155.5 151h20"></path>
<g>
<path d="M175.5 151h0"></path>
<path d="M377.5 151h0"></path>
<g class="non-terminal">
<path d="M175.5 151h0"></path>
<path d="M229.5 151h0"></path>
<rect x="175.5" y="140" width="54" height="22"></rect>
<text x="202.5" y="155">0..9</text>
</g>
<path d="M229.5 151h10"></path>
<path d="M239.5 151h10"></path>
<g class="non-terminal">
<path d="M249.5 151h0"></path>
<path d="M303.5 151h0"></path>
<rect x="249.5" y="140" width="54" height="22"></rect>
<text x="276.5" y="155">0..9</text>
</g>
<path d="M303.5 151h10"></path>
<path d="M313.5 151h10"></path>
<g class="non-terminal">
<path d="M323.5 151h0"></path>
<path d="M377.5 151h0"></path>
<rect x="323.5" y="140" width="54" height="22"></rect>
<text x="350.5" y="155">0..9</text>
</g>
</g>
<path d="M377.5 151h20"></path>
<path d="M155.5 151a10 10 0 0 1 10 10v10a10 10 0 0 0 10 10"></path>
<g class="terminal">
<path d="M175.5 181h78.25"></path>
<path d="M299.25 181h78.25"></path>
<rect x="253.75" y="170" width="45.5" height="22" rx="10" ry="10"></rect>
<text x="276.5" y="185">///</text>
</g>
<path d="M377.5 181a10 10 0 0 0 10 -10v-10a10 10 0 0 1 10 -10"></path>
</g>
<g>
<path d="M397.5 151h0"></path>
<path d="M483 151h0"></path>
<path d="M397.5 151a10 10 0 0 0 10 -10v0a10 10 0 0 1 10 -10"></path>
<g class="terminal">
<path d="M417.5 131h0"></path>
<path d="M463 131h0"></path>
<rect x="417.5" y="120" width="45.5" height="22" rx="10" ry="10"></rect>
<text x="440.25" y="135">TCU</text>
</g>
<path d="M463 131a10 10 0 0 1 10 10v0a10 10 0 0 0 10 10"></path>
<path d="M397.5 151h20"></path>
<g>
<path d="M417.5 151h45.5"></path>
</g>
<path d="M463 151h20"></path>
<path d="M397.5 151a10 10 0 0 1 10 10v0a10 10 0 0 0 10 10"></path>
<g class="terminal">
<path d="M417.5 171h4.25"></path>
<path d="M458.75 171h4.25"></path>
<rect x="421.75" y="160" width="37" height="22" rx="10" ry="10"></rect>
<text x="440.25" y="175">CB</text>
</g>
<path d="M463 171a10 10 0 0 0 10 -10v0a10 10 0 0 1 10 -10"></path>
<path d="M397.5 151a10 10 0 0 1 10 10v30a10 10 0 0 0 10 10"></path>
<g class="terminal">
<path d="M417.5 201h0"></path>
<path d="M463 201h0"></path>
<rect x="417.5" y="190" width="45.5" height="22" rx="10" ry="10"></rect>
<text x="440.25" y="205">///</text>
</g>
<path d="M463 201a10 10 0 0 0 10 -10v-30a10 10 0 0 1 10 -10"></path>
</g>
</g>
<path d="M483 151h10"></path>
<path d="M70 151a10 10 0 0 0 -10 10v59a10 10 0 0 0 10 10"></path>
<g>
<path d="M70 230h413"></path>
</g>
<path d="M483 230a10 10 0 0 0 10 -10v-59a10 10 0 0 0 -10 -10"></path>
</g>
<path d="M493 151h20"></path>
<path d="M40 151a10 10 0 0 1 10 10v78a10 10 0 0 0 10 10"></path>
<g>
<path d="M60 249h72"></path>
<path d="M421 249h72"></path>
<g class="terminal">
<path d="M132 249h0"></path>
<path d="M169 249h0"></path>
<rect x="132" y="238" width="37" height="22" rx="10" ry="10"></rect>
<text x="150.5" y="253">VV</text>
</g>
<path d="M169 249h10"></path>
<g>
<path d="M179 249h0"></path>
<path d="M421 249h0"></path>
<path d="M179 249h20"></path>
<g>
<path d="M199 249h0"></path>
<path d="M401 249h0"></path>
<g class="non-terminal">
<path d="M199 249h0"></path>
<path d="M253 249h0"></path>
<rect x="199" y="238" width="54" height="22"></rect>
<text x="226" y="253">0..9</text>
</g>
<path d="M253 249h10"></path>
<path d="M263 249h10"></path>
<g class="non-terminal">
<path d="M273 249h0"></path>
<path d="M327 249h0"></path>
<rect x="273" y="238" width="54" height="22"></rect>
<text x="300" y="253">0..9</text>
</g>
<path d="M327 249h10"></path>
<path d="M337 249h10"></path>
<g class="non-terminal">
<path d="M347 249h0"></path>
<path d="M401 249h0"></path>
<rect x="347" y="238" width="54" height="22"></rect>
<text x="374" y="253">0..9</text>
</g>
</g>
<path d="M401 249h20"></path>
<path d="M179 249a10 10 0 0 1 10 10v10a10 10 0 0 0 10 10"></path>
<g class="terminal">
<path d="M199 279h78.25"></path>
<path d="M322.75 279h78.25"></path>
<rect x="277.25" y="268" width="45.5" height="22" rx="10" ry="10"></rect>
<text x="300" y="283">///</text>
</g>
<path d="M401 279a10 10 0 0 0 10 -10v-10a10 10 0 0 1 10 -10"></path>
</g>
</g>
<path d="M493 249a10 10 0 0 0 10 -10v-78a10 10 0 0 1 10 -10"></path>
<path d="M40 151a10 10 0 0 1 10 10v138a10 10 0 0 0 10 10"></path>
<g class="terminal">
<path d="M60 309h193.75"></path>
<path d="M299.25 309h193.75"></path>
<rect x="253.75" y="298" width="45.5" height="22" rx="10" ry="10"></rect>
<text x="276.5" y="313">NCD</text>
</g>
<path d="M493 309a10 10 0 0 0 10 -10v-138a10 10 0 0 1 10 -10"></path>
<path d="M40 151a10 10 0 0 1 10 10v168a10 10 0 0 0 10 10"></path>
<g class="terminal">
<path d="M60 339h193.75"></path>
<path d="M299.25 339h193.75"></path>
<rect x="253.75" y="328" width="45.5" height="22" rx="10" ry="10"></rect>
<text x="276.5" y="343">NSC</text>
</g>
<path d="M493 339a10 10 0 0 0 10 -10v-168a10 10 0 0 1 10 -10"></path>
</g>
<path d="M 513 151 h 20 m -10 -10 v 20 m 10 -20 v 20"></path>
</g>
</svg>
