<svg xmlns="http://www.w3.org/2000/svg" class="railroad-diagram" width="174" height="242" viewBox="0 0 174 242">
<style>
/* <![CDATA[ */
svg.railroad-diagram {
    background-color: hsl(30,20%,95%);
}
svg.railroad-diagram path {
    stroke-width: 3;
    stroke: black;
    fill: rgba(0,0,0,0);
}
svg.railroad-diagram text {
    font: bold 14px monospace;
    text-anchor: middle;
}
svg.railroad-diagram text.diagram-text {
    font-size: 12px;
}
svg.railroad-diagram text.diagram-arrow {
    font-size: 16px;
}
svg.railroad-diagram text.label {
    text-anchor: start;
}
svg.railroad-diagram text.comment {
    font: italic 12px monospace;
}
svg.railroad-diagram g.non-terminal text {
    /*font-style: italic;*/
}
svg.railroad-diagram rect {
    stroke-width: 3;
    stroke: black;
    fill: hsl(120,100%,90%);
}
svg.railroad-diagram path.diagram-text {
    stroke-width: 3;
    stroke: black;
    fill: white;
    cursor: help;
}
svg.railroad-diagram g.diagram-text:hover path.diagram-text {
    fill: #eee;
}
/* ]]> */
</style>
<g transform="translate(.5 .5)">
<g>
<path d="M20 111v20m10 -20v20m-10 -10h20"></path>
</g>
<g>
<path d="M40 121h0"></path>
<path d="M134 121h0"></path>
<path d="M40 121a10 10 0 0 0 10 -10v-10a10 10 0 0 1 10 -10"></path>
<g class="terminal">
<path d="M60 91h4.25"></path>
<path d="M109.75 91h4.25"></path>
<rect x="64.25" y="80" width="45.5" height="22" rx="10" ry="10"></rect>
<text x="87" y="95">GRN</text>
</g>
<path d="M114 91a10 10 0 0 1 10 10v10a10 10 0 0 0 10 10"></path>
<path d="M40 121a10 10 0 0 0 10 -10v-40a10 10 0 0 1 10 -10"></path>
<g class="terminal">
<path d="M60 61h4.25"></path>
<path d="M109.75 61h4.25"></path>
<rect x="64.25" y="50" width="45.5" height="22" rx="10" ry="10"></rect>
<text x="87" y="65">WHT</text>
</g>
<path d="M114 61a10 10 0 0 1 10 10v40a10 10 0 0 0 10 10"></path>
<path d="M40 121a10 10 0 0 0 10 -10v-70a10 10 0 0 1 10 -10"></path>
<g class="terminal">
<path d="M60 31h4.25"></path>
<path d="M109.75 31h4.25"></path>
<rect x="64.25" y="20" width="45.5" height="22" rx="10" ry="10"></rect>
<text x="87" y="35">BLU</text>
</g>
<path d="M114 31a10 10 0 0 1 10 10v70a10 10 0 0 0 10 10"></path>
<path d="M40 121h20"></path>
<g class="terminal">
<path d="M60 121h0"></path>
<path d="M114 121h0"></path>
<rect x="60" y="110" width="54" height="22" rx="10" ry="10"></rect>
<text x="87" y="125">YLO1</text>
</g>
<path d="M114 121h20"></path>
<path d="M40 121a10 10 0 0 1 10 10v10a10 10 0 0 0 10 10"></path>
<g class="terminal">
<path d="M60 151h0"></path>
<path d="M114 151h0"></path>
<rect x="60" y="140" width="54" height="22" rx="10" ry="10"></rect>
<text x="87" y="155">YLO2</text>
</g>
<path d="M114 151a10 10 0 0 0 10 -10v-10a10 10 0 0 1 10 -10"></path>
<path d="M40 121a10 10 0 0 1 10 10v40a10 10 0 0 0 10 10"></path>
<g class="terminal">
<path d="M60 181h4.25"></path>
<path d="M109.75 181h4.25"></path>
<rect x="64.25" y="170" width="45.5" height="22" rx="10" ry="10"></rect>
<text x="87" y="185">AMB</text>
</g>
<path d="M114 181a10 10 0 0 0 10 -10v-40a10 10 0 0 1 10 -10"></path>
<path d="M40 121a10 10 0 0 1 10 10v70a10 10 0 0 0 10 10"></path>
<g class="terminal">
<path d="M60 211h4.25"></path>
<path d="M109.75 211h4.25"></path>
<rect x="64.25" y="200" width="45.5" height="22" rx="10" ry="10"></rect>
<text x="87" y="215">RED</text>
</g>
<path d="M114 211a10 10 0 0 0 10 -10v-70a10 10 0 0 1 10 -10"></path>
</g>
<path d="M 134 121 h 20 m -10 -10 v 20 m 10 -20 v 20"></path>
</g>
</svg>
