<svg xmlns="http://www.w3.org/2000/svg" class="railroad-diagram" width="453" height="482" viewBox="0 0 453 482">
<style>
/* <![CDATA[ */
svg.railroad-diagram {
    background-color: hsl(30,20%,95%);
}
svg.railroad-diagram path {
    stroke-width: 3;
    stroke: black;
    fill: rgba(0,0,0,0);
}
svg.railroad-diagram text {
    font: bold 14px monospace;
    text-anchor: middle;
}
svg.railroad-diagram text.diagram-text {
    font-size: 12px;
}
svg.railroad-diagram text.diagram-arrow {
    font-size: 16px;
}
svg.railroad-diagram text.label {
    text-anchor: start;
}
svg.railroad-diagram text.comment {
    font: italic 12px monospace;
}
svg.railroad-diagram g.non-terminal text {
    /*font-style: italic;*/
}
svg.railroad-diagram rect {
    stroke-width: 3;
    stroke: black;
    fill: hsl(120,100%,90%);
}
svg.railroad-diagram path.diagram-text {
    stroke-width: 3;
    stroke: black;
    fill: white;
    cursor: help;
}
svg.railroad-diagram g.diagram-text:hover path.diagram-text {
    fill: #eee;
}
/* ]]> */
</style>
<g transform="translate(.5 .5)">
<g>
<path d="M20 201v20m10 -20v20m-10 -10h20"></path>
</g>
<path d="M40 211h10"></path>
<g>
<path d="M50 211h0"></path>
<path d="M235 211h0"></path>
<text x="142.5" y="216" class="comment">METAR and TAF report body</text>
</g>
<path d="M235 211h10"></path>
<g>
<path d="M245 211h0"></path>
<path d="M413 211h0"></path>
<path d="M245 211a10 10 0 0 0 10 -10v-10a10 10 0 0 1 10 -10"></path>
<g class="terminal">
<path d="M265 181h41.25"></path>
<path d="M351.75 181h41.25"></path>
<rect x="306.25" y="170" width="45.5" height="22" rx="10" ry="10"></rect>
<text x="329" y="185">CNL</text>
</g>
<path d="M393 181a10 10 0 0 1 10 10v10a10 10 0 0 0 10 10"></path>
<path d="M245 211a10 10 0 0 0 10 -10v-40a10 10 0 0 1 10 -10"></path>
<g class="terminal">
<path d="M265 151h41.25"></path>
<path d="M351.75 151h41.25"></path>
<rect x="306.25" y="140" width="45.5" height="22" rx="10" ry="10"></rect>
<text x="329" y="155">NIL</text>
</g>
<path d="M393 151a10 10 0 0 1 10 10v40a10 10 0 0 0 10 10"></path>
<path d="M245 211a10 10 0 0 0 10 -10v-70a10 10 0 0 1 10 -10"></path>
<g class="terminal">
<path d="M265 121h41.25"></path>
<path d="M351.75 121h41.25"></path>
<rect x="306.25" y="110" width="45.5" height="22" rx="10" ry="10"></rect>
<text x="329" y="125">AMD</text>
</g>
<path d="M393 121a10 10 0 0 1 10 10v70a10 10 0 0 0 10 10"></path>
<path d="M245 211a10 10 0 0 0 10 -10v-100a10 10 0 0 1 10 -10"></path>
<g class="terminal">
<path d="M265 91h41.25"></path>
<path d="M351.75 91h41.25"></path>
<rect x="306.25" y="80" width="45.5" height="22" rx="10" ry="10"></rect>
<text x="329" y="95">TAF</text>
</g>
<path d="M393 91a10 10 0 0 1 10 10v100a10 10 0 0 0 10 10"></path>
<path d="M245 211a10 10 0 0 0 10 -10v-130a10 10 0 0 1 10 -10"></path>
<g class="terminal">
<path d="M265 61h32.75"></path>
<path d="M360.25 61h32.75"></path>
<rect x="297.75" y="50" width="62.5" height="22" rx="10" ry="10"></rect>
<text x="329" y="65">SPECI</text>
</g>
<path d="M393 61a10 10 0 0 1 10 10v130a10 10 0 0 0 10 10"></path>
<path d="M245 211a10 10 0 0 0 10 -10v-160a10 10 0 0 1 10 -10"></path>
<g class="terminal">
<path d="M265 31h32.75"></path>
<path d="M360.25 31h32.75"></path>
<rect x="297.75" y="20" width="62.5" height="22" rx="10" ry="10"></rect>
<text x="329" y="35">METAR</text>
</g>
<path d="M393 31a10 10 0 0 1 10 10v160a10 10 0 0 0 10 10"></path>
<path d="M245 211h20"></path>
<g class="terminal">
<path d="M265 211h41.25"></path>
<path d="M351.75 211h41.25"></path>
<rect x="306.25" y="200" width="45.5" height="22" rx="10" ry="10"></rect>
<text x="329" y="215">COR</text>
</g>
<path d="M393 211h20"></path>
<path d="M245 211a10 10 0 0 1 10 10v10a10 10 0 0 0 10 10"></path>
<g class="terminal">
<path d="M265 241h37"></path>
<path d="M356 241h37"></path>
<rect x="302" y="230" width="54" height="22" rx="10" ry="10"></rect>
<text x="329" y="245">AUTO</text>
</g>
<path d="M393 241a10 10 0 0 0 10 -10v-10a10 10 0 0 1 10 -10"></path>
<path d="M245 211a10 10 0 0 1 10 10v40a10 10 0 0 0 10 10"></path>
<g>
<path d="M265 271h0"></path>
<path d="M393 271h0"></path>
<g>
<path d="M265 271h0"></path>
<path d="M393 271h0"></path>
<path d="M265 271h20"></path>
<g class="terminal">
<path d="M285 271h0"></path>
<path d="M373 271h0"></path>
<rect x="285" y="260" width="88" height="22" rx="10" ry="10"></rect>
<text x="329" y="275">R/SNOCLO</text>
</g>
<path d="M373 271h20"></path>
<path d="M265 271a10 10 0 0 1 10 10v10a10 10 0 0 0 10 10"></path>
<g class="terminal">
<path d="M285 301h8.5"></path>
<path d="M364.5 301h8.5"></path>
<rect x="293.5" y="290" width="71" height="22" rx="10" ry="10"></rect>
<text x="329" y="305">SNOCLO</text>
</g>
<path d="M373 301a10 10 0 0 0 10 -10v-10a10 10 0 0 1 10 -10"></path>
</g>
</g>
<path d="M393 271a10 10 0 0 0 10 -10v-40a10 10 0 0 1 10 -10"></path>
<path d="M245 211a10 10 0 0 1 10 10v100a10 10 0 0 0 10 10"></path>
<g class="terminal">
<path d="M265 331h32.75"></path>
<path d="M360.25 331h32.75"></path>
<rect x="297.75" y="320" width="62.5" height="22" rx="10" ry="10"></rect>
<text x="329" y="335">CAVOK</text>
</g>
<path d="M393 331a10 10 0 0 0 10 -10v-100a10 10 0 0 1 10 -10"></path>
<path d="M245 211a10 10 0 0 1 10 10v130a10 10 0 0 0 10 10"></path>
<g class="terminal">
<path d="M265 361h41.25"></path>
<path d="M351.75 361h41.25"></path>
<rect x="306.25" y="350" width="45.5" height="22" rx="10" ry="10"></rect>
<text x="329" y="365">NSW</text>
</g>
<path d="M393 361a10 10 0 0 0 10 -10v-130a10 10 0 0 1 10 -10"></path>
<path d="M245 211a10 10 0 0 1 10 10v160a10 10 0 0 0 10 10"></path>
<g class="terminal">
<path d="M265 391h24.25"></path>
<path d="M368.75 391h24.25"></path>
<rect x="289.25" y="380" width="79.5" height="22" rx="10" ry="10"></rect>
<text x="329" y="395">WSCONDS</text>
</g>
<path d="M393 391a10 10 0 0 0 10 -10v-160a10 10 0 0 1 10 -10"></path>
<path d="M245 211a10 10 0 0 1 10 10v190a10 10 0 0 0 10 10"></path>
<g class="terminal">
<path d="M265 421h41.25"></path>
<path d="M351.75 421h41.25"></path>
<rect x="306.25" y="410" width="45.5" height="22" rx="10" ry="10"></rect>
<text x="329" y="425">RMK</text>
</g>
<path d="M393 421a10 10 0 0 0 10 -10v-190a10 10 0 0 1 10 -10"></path>
<path d="M245 211a10 10 0 0 1 10 10v220a10 10 0 0 0 10 10"></path>
<g class="terminal">
<path d="M265 451h49.75"></path>
<path d="M343.25 451h49.75"></path>
<rect x="314.75" y="440" width="28.5" height="22" rx="10" ry="10"></rect>
<text x="329" y="455">$</text>
</g>
<path d="M393 451a10 10 0 0 0 10 -10v-220a10 10 0 0 1 10 -10"></path>
</g>
<path d="M 413 211 h 20 m -10 -10 v 20 m 10 -20 v 20"></path>
</g>
</svg>