<svg xmlns="http://www.w3.org/2000/svg" class="railroad-diagram" width="572.5" height="212" viewBox="0 0 572.5 212">
<style>
/* <![CDATA[ */
svg.railroad-diagram {
    background-color: hsl(30,20%,95%);
}
svg.railroad-diagram path {
    stroke-width: 3;
    stroke: black;
    fill: rgba(0,0,0,0);
}
svg.railroad-diagram text {
    font: bold 14px monospace;
    text-anchor: middle;
}
svg.railroad-diagram text.diagram-text {
    font-size: 12px;
}
svg.railroad-diagram text.diagram-arrow {
    font-size: 16px;
}
svg.railroad-diagram text.label {
    text-anchor: start;
}
svg.railroad-diagram text.comment {
    font: italic 12px monospace;
}
svg.railroad-diagram g.non-terminal text {
    /*font-style: italic;*/
}
svg.railroad-diagram rect {
    stroke-width: 3;
    stroke: black;
    fill: hsl(120,100%,90%);
}
svg.railroad-diagram path.diagram-text {
    stroke-width: 3;
    stroke: black;
    fill: white;
    cursor: help;
}
svg.railroad-diagram g.diagram-text:hover path.diagram-text {
    fill: #eee;
}
/* ]]> */
</style>
<g transform="translate(.5 .5)">
<g>
<path d="M20 141v20m10 -20v20m-10 -10h20"></path>
</g>
<g>
<path d="M40 151h0"></path>
<path d="M532.5 151h0"></path>
<path d="M40 151a10 10 0 0 0 10 -10v-70a10 10 0 0 1 10 -10"></path>
<g>
<path d="M60 61h0"></path>
<path d="M512.5 61h0"></path>
<g>
<path d="M60 61h0"></path>
<path d="M128.5 61h0"></path>
<path d="M60 61a10 10 0 0 0 10 -10v-10a10 10 0 0 1 10 -10"></path>
<g class="terminal">
<path d="M80 31h0"></path>
<path d="M108.5 31h0"></path>
<rect x="80" y="20" width="28.5" height="22" rx="10" ry="10"></rect>
<text x="94.25" y="35">P</text>
</g>
<path d="M108.5 31a10 10 0 0 1 10 10v10a10 10 0 0 0 10 10"></path>
<path d="M60 61h20"></path>
<g class="terminal">
<path d="M80 61h0"></path>
<path d="M108.5 61h0"></path>
<rect x="80" y="50" width="28.5" height="22" rx="10" ry="10"></rect>
<text x="94.25" y="65">6</text>
</g>
<path d="M108.5 61h20"></path>
<path d="M60 61a10 10 0 0 1 10 10v10a10 10 0 0 0 10 10"></path>
<g class="terminal">
<path d="M80 91h0"></path>
<path d="M108.5 91h0"></path>
<rect x="80" y="80" width="28.5" height="22" rx="10" ry="10"></rect>
<text x="94.25" y="95">7</text>
</g>
<path d="M108.5 91a10 10 0 0 0 10 -10v-10a10 10 0 0 1 10 -10"></path>
</g>
<g>
<path d="M128.5 61h0"></path>
<path d="M512.5 61h0"></path>
<path d="M128.5 61h20"></path>
<g>
<path d="M148.5 61h0"></path>
<path d="M492.5 61h0"></path>
<g class="non-terminal">
<path d="M148.5 61h0"></path>
<path d="M219.5 61h0"></path>
<rect x="148.5" y="50" width="71" height="22"></rect>
<text x="184" y="65">0 to 9</text>
</g>
<path d="M219.5 61h10"></path>
<path d="M229.5 61h10"></path>
<g class="non-terminal">
<path d="M239.5 61h0"></path>
<path d="M310.5 61h0"></path>
<rect x="239.5" y="50" width="71" height="22"></rect>
<text x="275" y="65">0 to 9</text>
</g>
<path d="M310.5 61h10"></path>
<path d="M320.5 61h10"></path>
<g class="non-terminal">
<path d="M330.5 61h0"></path>
<path d="M401.5 61h0"></path>
<rect x="330.5" y="50" width="71" height="22"></rect>
<text x="366" y="65">0 to 9</text>
</g>
<path d="M401.5 61h10"></path>
<path d="M411.5 61h10"></path>
<g class="non-terminal">
<path d="M421.5 61h0"></path>
<path d="M492.5 61h0"></path>
<rect x="421.5" y="50" width="71" height="22"></rect>
<text x="457" y="65">0 to 9</text>
</g>
</g>
<path d="M492.5 61h20"></path>
<path d="M128.5 61a10 10 0 0 1 10 10v10a10 10 0 0 0 10 10"></path>
<g class="terminal">
<path d="M148.5 91h145"></path>
<path d="M347.5 91h145"></path>
<rect x="293.5" y="80" width="54" height="22" rx="10" ry="10"></rect>
<text x="320.5" y="95">////</text>
</g>
<path d="M492.5 91a10 10 0 0 0 10 -10v-10a10 10 0 0 1 10 -10"></path>
</g>
</g>
<path d="M512.5 61a10 10 0 0 1 10 10v70a10 10 0 0 0 10 10"></path>
<path d="M40 151h20"></path>
<g>
<path d="M60 151h37"></path>
<path d="M475.5 151h37"></path>
<g>
<path d="M97 151h0"></path>
<path d="M182.5 151h0"></path>
<path d="M97 151a10 10 0 0 0 10 -10v-10a10 10 0 0 1 10 -10"></path>
<g class="terminal">
<path d="M117 121h4.25"></path>
<path d="M158.25 121h4.25"></path>
<rect x="121.25" y="110" width="37" height="22" rx="10" ry="10"></rect>
<text x="139.75" y="125">4/</text>
</g>
<path d="M162.5 121a10 10 0 0 1 10 10v10a10 10 0 0 0 10 10"></path>
<path d="M97 151h20"></path>
<g class="terminal">
<path d="M117 151h0"></path>
<path d="M162.5 151h0"></path>
<rect x="117" y="140" width="45.5" height="22" rx="10" ry="10"></rect>
<text x="139.75" y="155">931</text>
</g>
<path d="M162.5 151h20"></path>
<path d="M97 151a10 10 0 0 1 10 10v10a10 10 0 0 0 10 10"></path>
<g class="terminal">
<path d="M117 181h0"></path>
<path d="M162.5 181h0"></path>
<rect x="117" y="170" width="45.5" height="22" rx="10" ry="10"></rect>
<text x="139.75" y="185">933</text>
</g>
<path d="M162.5 181a10 10 0 0 0 10 -10v-10a10 10 0 0 1 10 -10"></path>
</g>
<g>
<path d="M182.5 151h0"></path>
<path d="M475.5 151h0"></path>
<path d="M182.5 151h20"></path>
<g>
<path d="M202.5 151h0"></path>
<path d="M455.5 151h0"></path>
<g class="non-terminal">
<path d="M202.5 151h0"></path>
<path d="M273.5 151h0"></path>
<rect x="202.5" y="140" width="71" height="22"></rect>
<text x="238" y="155">0 to 9</text>
</g>
<path d="M273.5 151h10"></path>
<path d="M283.5 151h10"></path>
<g class="non-terminal">
<path d="M293.5 151h0"></path>
<path d="M364.5 151h0"></path>
<rect x="293.5" y="140" width="71" height="22"></rect>
<text x="329" y="155">0 to 9</text>
</g>
<path d="M364.5 151h10"></path>
<path d="M374.5 151h10"></path>
<g class="non-terminal">
<path d="M384.5 151h0"></path>
<path d="M455.5 151h0"></path>
<rect x="384.5" y="140" width="71" height="22"></rect>
<text x="420" y="155">0 to 9</text>
</g>
</g>
<path d="M455.5 151h20"></path>
<path d="M182.5 151a10 10 0 0 1 10 10v10a10 10 0 0 0 10 10"></path>
<g class="terminal">
<path d="M202.5 181h103.75"></path>
<path d="M351.75 181h103.75"></path>
<rect x="306.25" y="170" width="45.5" height="22" rx="10" ry="10"></rect>
<text x="329" y="185">///</text>
</g>
<path d="M455.5 181a10 10 0 0 0 10 -10v-10a10 10 0 0 1 10 -10"></path>
</g>
</g>
<path d="M512.5 151h20"></path>
</g>
<path d="M 532.5 151 h 20 m -10 -10 v 20 m 10 -20 v 20"></path>
</g>
</svg>
