<svg xmlns="http://www.w3.org/2000/svg" class="railroad-diagram" width="1205" height="92" viewBox="0 0 1205 92">
<style>
/* <![CDATA[ */
svg.railroad-diagram {
    background-color: hsl(30,20%,95%);
}
svg.railroad-diagram path {
    stroke-width: 3;
    stroke: black;
    fill: rgba(0,0,0,0);
}
svg.railroad-diagram text {
    font: bold 14px monospace;
    text-anchor: middle;
}
svg.railroad-diagram text.diagram-text {
    font-size: 12px;
}
svg.railroad-diagram text.diagram-arrow {
    font-size: 16px;
}
svg.railroad-diagram text.label {
    text-anchor: start;
}
svg.railroad-diagram text.comment {
    font: italic 12px monospace;
}
svg.railroad-diagram g.non-terminal text {
    /*font-style: italic;*/
}
svg.railroad-diagram rect {
    stroke-width: 3;
    stroke: black;
    fill: hsl(120,100%,90%);
}
svg.railroad-diagram path.diagram-text {
    stroke-width: 3;
    stroke: black;
    fill: white;
    cursor: help;
}
svg.railroad-diagram g.diagram-text:hover path.diagram-text {
    fill: #eee;
}
/* ]]> */
</style>
<g transform="translate(.5 .5)">
<g>
<path d="M20 21v20m10 -20v20m-10 -10h20"></path>
</g>
<path d="M40 31h10"></path>
<g class="terminal">
<path d="M50 31h0"></path>
<path d="M87 31h0"></path>
<rect x="50" y="20" width="37" height="22" rx="10" ry="10"></rect>
<text x="68.5" y="35">RF</text>
</g>
<path d="M87 31h10"></path>
<g>
<path d="M97 31h0"></path>
<path d="M387.5 31h0"></path>
<path d="M97 31h20"></path>
<g>
<path d="M117 31h0"></path>
<path d="M367.5 31h0"></path>
<g class="non-terminal">
<path d="M117 31h0"></path>
<path d="M171 31h0"></path>
<rect x="117" y="20" width="54" height="22"></rect>
<text x="144" y="35">0..9</text>
</g>
<path d="M171 31h10"></path>
<path d="M181 31h10"></path>
<g class="non-terminal">
<path d="M191 31h0"></path>
<path d="M245 31h0"></path>
<rect x="191" y="20" width="54" height="22"></rect>
<text x="218" y="35">0..9</text>
</g>
<path d="M245 31h10"></path>
<path d="M255 31h10"></path>
<g class="terminal">
<path d="M265 31h0"></path>
<path d="M293.5 31h0"></path>
<rect x="265" y="20" width="28.5" height="22" rx="10" ry="10"></rect>
<text x="279.25" y="35">.</text>
</g>
<path d="M293.5 31h10"></path>
<path d="M303.5 31h10"></path>
<g class="non-terminal">
<path d="M313.5 31h0"></path>
<path d="M367.5 31h0"></path>
<rect x="313.5" y="20" width="54" height="22"></rect>
<text x="340.5" y="35">0..9</text>
</g>
</g>
<path d="M367.5 31h20"></path>
<path d="M97 31a10 10 0 0 1 10 10v10a10 10 0 0 0 10 10"></path>
<g class="terminal">
<path d="M117 61h98.25"></path>
<path d="M269.25 61h98.25"></path>
<rect x="215.25" y="50" width="54" height="22" rx="10" ry="10"></rect>
<text x="242.25" y="65">//./</text>
</g>
<path d="M367.5 61a10 10 0 0 0 10 -10v-10a10 10 0 0 1 10 -10"></path>
</g>
<path d="M387.5 31h10"></path>
<g class="terminal">
<path d="M397.5 31h0"></path>
<path d="M426 31h0"></path>
<rect x="397.5" y="20" width="28.5" height="22" rx="10" ry="10"></rect>
<text x="411.75" y="35">/</text>
</g>
<path d="M426 31h10"></path>
<g>
<path d="M436 31h0"></path>
<path d="M800.5 31h0"></path>
<path d="M436 31h20"></path>
<g>
<path d="M456 31h0"></path>
<path d="M780.5 31h0"></path>
<g class="non-terminal">
<path d="M456 31h0"></path>
<path d="M510 31h0"></path>
<rect x="456" y="20" width="54" height="22"></rect>
<text x="483" y="35">0..9</text>
</g>
<path d="M510 31h10"></path>
<path d="M520 31h10"></path>
<g class="non-terminal">
<path d="M530 31h0"></path>
<path d="M584 31h0"></path>
<rect x="530" y="20" width="54" height="22"></rect>
<text x="557" y="35">0..9</text>
</g>
<path d="M584 31h10"></path>
<path d="M594 31h10"></path>
<g class="non-terminal">
<path d="M604 31h0"></path>
<path d="M658 31h0"></path>
<rect x="604" y="20" width="54" height="22"></rect>
<text x="631" y="35">0..9</text>
</g>
<path d="M658 31h10"></path>
<path d="M668 31h10"></path>
<g class="terminal">
<path d="M678 31h0"></path>
<path d="M706.5 31h0"></path>
<rect x="678" y="20" width="28.5" height="22" rx="10" ry="10"></rect>
<text x="692.25" y="35">.</text>
</g>
<path d="M706.5 31h10"></path>
<path d="M716.5 31h10"></path>
<g class="non-terminal">
<path d="M726.5 31h0"></path>
<path d="M780.5 31h0"></path>
<rect x="726.5" y="20" width="54" height="22"></rect>
<text x="753.5" y="35">0..9</text>
</g>
</g>
<path d="M780.5 31h20"></path>
<path d="M436 31a10 10 0 0 1 10 10v10a10 10 0 0 0 10 10"></path>
<g class="terminal">
<path d="M456 61h131"></path>
<path d="M649.5 61h131"></path>
<rect x="587" y="50" width="62.5" height="22" rx="10" ry="10"></rect>
<text x="618.25" y="65">///./</text>
</g>
<path d="M780.5 61a10 10 0 0 0 10 -10v-10a10 10 0 0 1 10 -10"></path>
</g>
<g>
<path d="M800.5 31h0"></path>
<path d="M1165 31h0"></path>
<path d="M800.5 31h20"></path>
<g>
<path d="M820.5 31h324.5"></path>
</g>
<path d="M1145 31h20"></path>
<path d="M800.5 31a10 10 0 0 1 10 10v0a10 10 0 0 0 10 10"></path>
<g>
<path d="M820.5 51h0"></path>
<path d="M1145 51h0"></path>
<g class="non-terminal">
<path d="M820.5 51h0"></path>
<path d="M874.5 51h0"></path>
<rect x="820.5" y="40" width="54" height="22"></rect>
<text x="847.5" y="55">0..9</text>
</g>
<path d="M874.5 51h10"></path>
<path d="M884.5 51h10"></path>
<g class="non-terminal">
<path d="M894.5 51h0"></path>
<path d="M948.5 51h0"></path>
<rect x="894.5" y="40" width="54" height="22"></rect>
<text x="921.5" y="55">0..9</text>
</g>
<path d="M948.5 51h10"></path>
<path d="M958.5 51h10"></path>
<g class="non-terminal">
<path d="M968.5 51h0"></path>
<path d="M1022.5 51h0"></path>
<rect x="968.5" y="40" width="54" height="22"></rect>
<text x="995.5" y="55">0..9</text>
</g>
<path d="M1022.5 51h10"></path>
<path d="M1032.5 51h10"></path>
<g class="terminal">
<path d="M1042.5 51h0"></path>
<path d="M1071 51h0"></path>
<rect x="1042.5" y="40" width="28.5" height="22" rx="10" ry="10"></rect>
<text x="1056.75" y="55">.</text>
</g>
<path d="M1071 51h10"></path>
<path d="M1081 51h10"></path>
<g class="non-terminal">
<path d="M1091 51h0"></path>
<path d="M1145 51h0"></path>
<rect x="1091" y="40" width="54" height="22"></rect>
<text x="1118" y="55">0..9</text>
</g>
</g>
<path d="M1145 51a10 10 0 0 0 10 -10v0a10 10 0 0 1 10 -10"></path>
</g>
<path d="M 1165 31 h 20 m -10 -10 v 20 m 10 -20 v 20"></path>
</g>
</svg>
