<svg xmlns="http://www.w3.org/2000/svg" class="railroad-diagram" width="1190.5" height="211" viewBox="0 0 1190.5 211">
<style>
/* <![CDATA[ */
svg.railroad-diagram {
    background-color: hsl(30,20%,95%);
}
svg.railroad-diagram path {
    stroke-width: 3;
    stroke: black;
    fill: rgba(0,0,0,0);
}
svg.railroad-diagram text {
    font: bold 14px monospace;
    text-anchor: middle;
}
svg.railroad-diagram text.diagram-text {
    font-size: 12px;
}
svg.railroad-diagram text.diagram-arrow {
    font-size: 16px;
}
svg.railroad-diagram text.label {
    text-anchor: start;
}
svg.railroad-diagram text.comment {
    font: italic 12px monospace;
}
svg.railroad-diagram g.non-terminal text {
    /*font-style: italic;*/
}
svg.railroad-diagram rect {
    stroke-width: 3;
    stroke: black;
    fill: hsl(120,100%,90%);
}
svg.railroad-diagram path.diagram-text {
    stroke-width: 3;
    stroke: black;
    fill: white;
    cursor: help;
}
svg.railroad-diagram g.diagram-text:hover path.diagram-text {
    fill: #eee;
}
/* ]]> */
</style>
<g transform="translate(.5 .5)">
<g>
<path d="M20 150v20m10 -20v20m-10 -10h20"></path>
</g>
<path d="M40 160h10"></path>
<g>
<path d="M50 160h0"></path>
<path d="M329 160h0"></path>
<g>
<path d="M50 160h0"></path>
<path d="M231 160h0"></path>
<path d="M50 160a10 10 0 0 0 10 -10v-19a10 10 0 0 1 10 -10"></path>
<g>
<path d="M70 121h141"></path>
</g>
<path d="M211 121a10 10 0 0 1 10 10v19a10 10 0 0 0 10 10"></path>
<path d="M50 160h20"></path>
<g>
<path d="M70 160h0"></path>
<path d="M211 160h0"></path>
<g class="terminal">
<path d="M70 160h0"></path>
<path d="M115.5 160h0"></path>
<rect x="70" y="149" width="45.5" height="22" rx="10" ry="10"></rect>
<text x="92.75" y="164">TAF</text>
</g>
<path d="M115.5 160h10"></path>
<g>
<path d="M125.5 160h0"></path>
<path d="M211 160h0"></path>
<path d="M125.5 160a10 10 0 0 0 10 -10v0a10 10 0 0 1 10 -10"></path>
<g class="terminal">
<path d="M145.5 140h0"></path>
<path d="M191 140h0"></path>
<rect x="145.5" y="129" width="45.5" height="22" rx="10" ry="10"></rect>
<text x="168.25" y="144">COR</text>
</g>
<path d="M191 140a10 10 0 0 1 10 10v0a10 10 0 0 0 10 10"></path>
<path d="M125.5 160h20"></path>
<g>
<path d="M145.5 160h45.5"></path>
</g>
<path d="M191 160h20"></path>
<path d="M125.5 160a10 10 0 0 1 10 10v0a10 10 0 0 0 10 10"></path>
<g class="terminal">
<path d="M145.5 180h0"></path>
<path d="M191 180h0"></path>
<rect x="145.5" y="169" width="45.5" height="22" rx="10" ry="10"></rect>
<text x="168.25" y="184">AMD</text>
</g>
<path d="M191 180a10 10 0 0 0 10 -10v0a10 10 0 0 1 10 -10"></path>
</g>
</g>
<path d="M211 160h20"></path>
</g>
<path d="M231 160h10"></path>
<g class="non-terminal">
<path d="M241 160h0"></path>
<path d="M329 160h0"></path>
<rect x="241" y="149" width="88" height="22"></rect>
<text x="285" y="164">Location</text>
</g>
</g>
<path d="M329 160h10"></path>
<g>
<path d="M339 160h0"></path>
<path d="M1082 160h0"></path>
<path d="M339 160a10 10 0 0 0 10 -10v-109a10 10 0 0 1 10 -10"></path>
<g class="terminal">
<path d="M359 31h328.75"></path>
<path d="M733.25 31h328.75"></path>
<rect x="687.75" y="20" width="45.5" height="22" rx="10" ry="10"></rect>
<text x="710.5" y="35">NIL</text>
</g>
<path d="M1062 31a10 10 0 0 1 10 10v109a10 10 0 0 0 10 10"></path>
<path d="M339 160h20"></path>
<g>
<path d="M359 160h0"></path>
<path d="M1062 160h0"></path>
<g class="non-terminal">
<path d="M359 160h0"></path>
<path d="M413 160h0"></path>
<rect x="359" y="149" width="54" height="22"></rect>
<text x="386" y="164">Time</text>
</g>
<path d="M413 160h10"></path>
<g>
<path d="M423 160h0"></path>
<path d="M1062 160h0"></path>
<path d="M423 160a10 10 0 0 0 10 -10v-79a10 10 0 0 1 10 -10"></path>
<g class="terminal">
<path d="M443 61h276.75"></path>
<path d="M765.25 61h276.75"></path>
<rect x="719.75" y="50" width="45.5" height="22" rx="10" ry="10"></rect>
<text x="742.5" y="65">NIL</text>
</g>
<path d="M1042 61a10 10 0 0 1 10 10v79a10 10 0 0 0 10 10"></path>
<path d="M423 160h20"></path>
<g>
<path d="M443 160h0"></path>
<path d="M1042 160h0"></path>
<g class="non-terminal">
<path d="M443 160h0"></path>
<path d="M539.5 160h0"></path>
<rect x="443" y="149" width="96.5" height="22"></rect>
<text x="491.25" y="164">Time span</text>
</g>
<path d="M539.5 160h10"></path>
<g>
<path d="M549.5 160h0"></path>
<path d="M1042 160h0"></path>
<path d="M549.5 160a10 10 0 0 0 10 -10v-19a10 10 0 0 1 10 -10"></path>
<g class="terminal">
<path d="M569.5 121h203.5"></path>
<path d="M818.5 121h203.5"></path>
<rect x="773" y="110" width="45.5" height="22" rx="10" ry="10"></rect>
<text x="795.75" y="125">CNL</text>
</g>
<path d="M1022 121a10 10 0 0 1 10 10v19a10 10 0 0 0 10 10"></path>
<path d="M549.5 160a10 10 0 0 0 10 -10v-49a10 10 0 0 1 10 -10"></path>
<g class="terminal">
<path d="M569.5 91h203.5"></path>
<path d="M818.5 91h203.5"></path>
<rect x="773" y="80" width="45.5" height="22" rx="10" ry="10"></rect>
<text x="795.75" y="95">NIL</text>
</g>
<path d="M1022 91a10 10 0 0 1 10 10v49a10 10 0 0 0 10 10"></path>
<path d="M549.5 160h20"></path>
<g>
<path d="M569.5 160h0"></path>
<path d="M1022 160h0"></path>
<g>
<path d="M569.5 160h0"></path>
<path d="M815.5 160h0"></path>
<g class="non-terminal">
<path d="M569.5 160h0"></path>
<path d="M683 160h0"></path>
<rect x="569.5" y="149" width="113.5" height="22"></rect>
<text x="626.25" y="164">Report body</text>
</g>
<path d="M683 160h10"></path>
<g>
<path d="M693 160h0"></path>
<path d="M815.5 160h0"></path>
<path d="M693 160a10 10 0 0 0 10 -10v0a10 10 0 0 1 10 -10"></path>
<g>
<path d="M713 140h82.5"></path>
</g>
<path d="M795.5 140a10 10 0 0 1 10 10v0a10 10 0 0 0 10 10"></path>
<path d="M693 160h20"></path>
<g>
<path d="M713 160h0"></path>
<path d="M795.5 160h0"></path>
<path d="M713 160h10"></path>
<g>
<path d="M723 160h0"></path>
<path d="M785.5 160h0"></path>
<g class="non-terminal">
<path d="M723 160h0"></path>
<path d="M785.5 160h0"></path>
<rect x="723" y="149" width="62.5" height="22"></rect>
<text x="754.25" y="164">Trend</text>
</g>
</g>
<path d="M785.5 160h10"></path>
<path d="M723 160a10 10 0 0 0 -10 10v0a10 10 0 0 0 10 10"></path>
<g>
<path d="M723 180h62.5"></path>
</g>
<path d="M785.5 180a10 10 0 0 0 10 -10v0a10 10 0 0 0 -10 -10"></path>
</g>
<path d="M795.5 160h20"></path>
</g>
</g>
<path d="M815.5 160h10"></path>
<g>
<path d="M825.5 160h0"></path>
<path d="M1022 160h0"></path>
<path d="M825.5 160a10 10 0 0 0 10 -10v0a10 10 0 0 1 10 -10"></path>
<g>
<path d="M845.5 140h156.5"></path>
</g>
<path d="M1002 140a10 10 0 0 1 10 10v0a10 10 0 0 0 10 10"></path>
<path d="M825.5 160h20"></path>
<g>
<path d="M845.5 160h0"></path>
<path d="M1002 160h0"></path>
<g class="terminal">
<path d="M845.5 160h0"></path>
<path d="M891 160h0"></path>
<rect x="845.5" y="149" width="45.5" height="22" rx="10" ry="10"></rect>
<text x="868.25" y="164">RMK</text>
</g>
<path d="M891 160h10"></path>
<path d="M901 160h10"></path>
<g>
<path d="M911 160h0"></path>
<path d="M1002 160h0"></path>
<path d="M911 160h10"></path>
<g class="non-terminal">
<path d="M921 160h0"></path>
<path d="M992 160h0"></path>
<rect x="921" y="149" width="71" height="22"></rect>
<text x="956.5" y="164">Remark</text>
</g>
<path d="M992 160h10"></path>
<path d="M921 160a10 10 0 0 0 -10 10v0a10 10 0 0 0 10 10"></path>
<g>
<path d="M921 180h71"></path>
</g>
<path d="M992 180a10 10 0 0 0 10 -10v0a10 10 0 0 0 -10 -10"></path>
</g>
</g>
<path d="M1002 160h20"></path>
</g>
</g>
<path d="M1022 160h20"></path>
</g>
</g>
<path d="M1042 160h20"></path>
</g>
</g>
<path d="M1062 160h20"></path>
</g>
<g>
<path d="M1082 160h0"></path>
<path d="M1150.5 160h0"></path>
<path d="M1082 160a10 10 0 0 0 10 -10v0a10 10 0 0 1 10 -10"></path>
<g>
<path d="M1102 140h28.5"></path>
</g>
<path d="M1130.5 140a10 10 0 0 1 10 10v0a10 10 0 0 0 10 10"></path>
<path d="M1082 160h20"></path>
<g class="terminal">
<path d="M1102 160h0"></path>
<path d="M1130.5 160h0"></path>
<rect x="1102" y="149" width="28.5" height="22" rx="10" ry="10"></rect>
<text x="1116.25" y="164">=</text>
</g>
<path d="M1130.5 160h20"></path>
</g>
<path d="M 1150.5 160 h 20 m -10 -10 v 20 m 10 -20 v 20"></path>
</g>
</svg>
