<svg xmlns="http://www.w3.org/2000/svg" class="railroad-diagram" width="749.5" height="112" viewBox="0 0 749.5 112">
<style>
/* <![CDATA[ */
svg.railroad-diagram {
    background-color: hsl(30,20%,95%);
}
svg.railroad-diagram path {
    stroke-width: 3;
    stroke: black;
    fill: rgba(0,0,0,0);
}
svg.railroad-diagram text {
    font: bold 14px monospace;
    text-anchor: middle;
}
svg.railroad-diagram text.diagram-text {
    font-size: 12px;
}
svg.railroad-diagram text.diagram-arrow {
    font-size: 16px;
}
svg.railroad-diagram text.label {
    text-anchor: start;
}
svg.railroad-diagram text.comment {
    font: italic 12px monospace;
}
svg.railroad-diagram g.non-terminal text {
    /*font-style: italic;*/
}
svg.railroad-diagram rect {
    stroke-width: 3;
    stroke: black;
    fill: hsl(120,100%,90%);
}
svg.railroad-diagram path.diagram-text {
    stroke-width: 3;
    stroke: black;
    fill: white;
    cursor: help;
}
svg.railroad-diagram g.diagram-text:hover path.diagram-text {
    fill: #eee;
}
/* ]]> */
</style>
<g transform="translate(.5 .5)">
<g>
<path d="M20 51v20m10 -20v20m-10 -10h20"></path>
</g>
<path d="M40 61h10"></path>
<g>
<path d="M50 61h0"></path>
<path d="M699.5 61h0"></path>
<g class="non-terminal">
<path d="M50 61h0"></path>
<path d="M104 61h0"></path>
<rect x="50" y="50" width="54" height="22"></rect>
<text x="77" y="65">Wind</text>
</g>
<path d="M104 61h10"></path>
<g>
<path d="M114 61h0"></path>
<path d="M350 61h0"></path>
<path d="M114 61a10 10 0 0 0 10 -10v-10a10 10 0 0 1 10 -10"></path>
<g class="terminal">
<path d="M134 31h66.75"></path>
<path d="M263.25 31h66.75"></path>
<rect x="200.75" y="20" width="62.5" height="22" rx="10" ry="10"></rect>
<text x="232" y="35">CAVOK</text>
</g>
<path d="M330 31a10 10 0 0 1 10 10v10a10 10 0 0 0 10 10"></path>
<path d="M114 61h20"></path>
<g>
<path d="M134 61h0"></path>
<path d="M330 61h0"></path>
<g class="non-terminal">
<path d="M134 61h0"></path>
<path d="M239 61h0"></path>
<rect x="134" y="50" width="105" height="22"></rect>
<text x="186.5" y="65">Visibility</text>
</g>
<path d="M239 61h10"></path>
<path d="M249 61h10"></path>
<g class="non-terminal">
<path d="M259 61h0"></path>
<path d="M330 61h0"></path>
<rect x="259" y="50" width="71" height="22"></rect>
<text x="294.5" y="65">Clouds</text>
</g>
</g>
<path d="M330 61h20"></path>
<path d="M114 61a10 10 0 0 1 10 10v0a10 10 0 0 0 10 10"></path>
<g>
<path d="M134 81h196"></path>
</g>
<path d="M330 81a10 10 0 0 0 10 -10v0a10 10 0 0 1 10 -10"></path>
</g>
<g>
<path d="M350 61h0"></path>
<path d="M469.5 61h0"></path>
<path d="M350 61h20"></path>
<g>
<path d="M370 61h79.5"></path>
</g>
<path d="M449.5 61h20"></path>
<path d="M350 61a10 10 0 0 1 10 10v0a10 10 0 0 0 10 10"></path>
<g class="non-terminal">
<path d="M370 81h0"></path>
<path d="M449.5 81h0"></path>
<rect x="370" y="70" width="79.5" height="22"></rect>
<text x="409.75" y="85">Weather</text>
</g>
<path d="M449.5 81a10 10 0 0 0 10 -10v0a10 10 0 0 1 10 -10"></path>
</g>
<g>
<path d="M469.5 61h0"></path>
<path d="M699.5 61h0"></path>
<path d="M469.5 61a10 10 0 0 0 10 -10v0a10 10 0 0 1 10 -10"></path>
<g>
<path d="M489.5 41h190"></path>
</g>
<path d="M679.5 41a10 10 0 0 1 10 10v0a10 10 0 0 0 10 10"></path>
<path d="M469.5 61h20"></path>
<g class="non-terminal">
<path d="M489.5 61h0"></path>
<path d="M679.5 61h0"></path>
<rect x="489.5" y="50" width="190" height="22"></rect>
<text x="584.5" y="65">Temperature forecast</text>
</g>
<path d="M679.5 61h20"></path>
</g>
</g>
<path d="M699.5 61h10"></path>
<path d="M 709.5 61 h 20 m -10 -10 v 20 m 10 -20 v 20"></path>
</g>
</svg>
