<svg xmlns="http://www.w3.org/2000/svg" class="railroad-diagram" width="764" height="442" viewBox="0 0 764 442">
<style>
/* <![CDATA[ */
svg.railroad-diagram {
    background-color: hsl(30,20%,95%);
}
svg.railroad-diagram path {
    stroke-width: 3;
    stroke: black;
    fill: rgba(0,0,0,0);
}
svg.railroad-diagram text {
    font: bold 14px monospace;
    text-anchor: middle;
}
svg.railroad-diagram text.diagram-text {
    font-size: 12px;
}
svg.railroad-diagram text.diagram-arrow {
    font-size: 16px;
}
svg.railroad-diagram text.label {
    text-anchor: start;
}
svg.railroad-diagram text.comment {
    font: italic 12px monospace;
}
svg.railroad-diagram g.non-terminal text {
    /*font-style: italic;*/
}
svg.railroad-diagram rect {
    stroke-width: 3;
    stroke: black;
    fill: hsl(120,100%,90%);
}
svg.railroad-diagram path.diagram-text {
    stroke-width: 3;
    stroke: black;
    fill: white;
    cursor: help;
}
svg.railroad-diagram g.diagram-text:hover path.diagram-text {
    fill: #eee;
}
/* ]]> */
</style>
<g transform="translate(.5 .5)">
<g>
<path d="M20 131v20m10 -20v20m-10 -10h20"></path>
</g>
<g>
<path d="M40 141h0"></path>
<path d="M724 141h0"></path>
<path d="M40 141h20"></path>
<g>
<path d="M60 141h121.25"></path>
<path d="M582.75 141h121.25"></path>
<g>
<path d="M181.25 141h0"></path>
<path d="M497.25 141h0"></path>
<path d="M181.25 141a10 10 0 0 0 10 -10v-10a10 10 0 0 1 10 -10"></path>
<g class="terminal">
<path d="M201.25 111h111"></path>
<path d="M366.25 111h111"></path>
<rect x="312.25" y="100" width="54" height="22" rx="10" ry="10"></rect>
<text x="339.25" y="115">9999</text>
</g>
<path d="M477.25 111a10 10 0 0 1 10 10v10a10 10 0 0 0 10 10"></path>
<path d="M181.25 141h20"></path>
<g>
<path d="M201.25 141h0"></path>
<path d="M477.25 141h0"></path>
<g class="non-terminal">
<path d="M201.25 141h0"></path>
<path d="M255.25 141h0"></path>
<rect x="201.25" y="130" width="54" height="22"></rect>
<text x="228.25" y="145">0..9</text>
</g>
<path d="M255.25 141h10"></path>
<path d="M265.25 141h10"></path>
<g class="non-terminal">
<path d="M275.25 141h0"></path>
<path d="M329.25 141h0"></path>
<rect x="275.25" y="130" width="54" height="22"></rect>
<text x="302.25" y="145">0..9</text>
</g>
<path d="M329.25 141h10"></path>
<path d="M339.25 141h10"></path>
<g class="non-terminal">
<path d="M349.25 141h0"></path>
<path d="M403.25 141h0"></path>
<rect x="349.25" y="130" width="54" height="22"></rect>
<text x="376.25" y="145">0..9</text>
</g>
<path d="M403.25 141h10"></path>
<path d="M413.25 141h10"></path>
<g class="non-terminal">
<path d="M423.25 141h0"></path>
<path d="M477.25 141h0"></path>
<rect x="423.25" y="130" width="54" height="22"></rect>
<text x="450.25" y="145">0..9</text>
</g>
</g>
<path d="M477.25 141h20"></path>
<path d="M181.25 141a10 10 0 0 1 10 10v10a10 10 0 0 0 10 10"></path>
<g class="terminal">
<path d="M201.25 171h111"></path>
<path d="M366.25 171h111"></path>
<rect x="312.25" y="160" width="54" height="22" rx="10" ry="10"></rect>
<text x="339.25" y="175">////</text>
</g>
<path d="M477.25 171a10 10 0 0 0 10 -10v-10a10 10 0 0 1 10 -10"></path>
</g>
<g>
<path d="M497.25 141h0"></path>
<path d="M582.75 141h0"></path>
<path d="M497.25 141a10 10 0 0 0 10 -10v0a10 10 0 0 1 10 -10"></path>
<g class="terminal">
<path d="M517.25 121h8.5"></path>
<path d="M554.25 121h8.5"></path>
<rect x="525.75" y="110" width="28.5" height="22" rx="10" ry="10"></rect>
<text x="540" y="125">E</text>
</g>
<path d="M562.75 121a10 10 0 0 1 10 10v0a10 10 0 0 0 10 10"></path>
<path d="M497.25 141a10 10 0 0 0 10 -10v-30a10 10 0 0 1 10 -10"></path>
<g class="terminal">
<path d="M517.25 91h8.5"></path>
<path d="M554.25 91h8.5"></path>
<rect x="525.75" y="80" width="28.5" height="22" rx="10" ry="10"></rect>
<text x="540" y="95">W</text>
</g>
<path d="M562.75 91a10 10 0 0 1 10 10v30a10 10 0 0 0 10 10"></path>
<path d="M497.25 141a10 10 0 0 0 10 -10v-60a10 10 0 0 1 10 -10"></path>
<g class="terminal">
<path d="M517.25 61h8.5"></path>
<path d="M554.25 61h8.5"></path>
<rect x="525.75" y="50" width="28.5" height="22" rx="10" ry="10"></rect>
<text x="540" y="65">S</text>
</g>
<path d="M562.75 61a10 10 0 0 1 10 10v60a10 10 0 0 0 10 10"></path>
<path d="M497.25 141a10 10 0 0 0 10 -10v-90a10 10 0 0 1 10 -10"></path>
<g class="terminal">
<path d="M517.25 31h8.5"></path>
<path d="M554.25 31h8.5"></path>
<rect x="525.75" y="20" width="28.5" height="22" rx="10" ry="10"></rect>
<text x="540" y="35">N</text>
</g>
<path d="M562.75 31a10 10 0 0 1 10 10v90a10 10 0 0 0 10 10"></path>
<path d="M497.25 141h20"></path>
<g>
<path d="M517.25 141h45.5"></path>
</g>
<path d="M562.75 141h20"></path>
<path d="M497.25 141a10 10 0 0 1 10 10v0a10 10 0 0 0 10 10"></path>
<g class="terminal">
<path d="M517.25 161h4.25"></path>
<path d="M558.5 161h4.25"></path>
<rect x="521.5" y="150" width="37" height="22" rx="10" ry="10"></rect>
<text x="540" y="165">NW</text>
</g>
<path d="M562.75 161a10 10 0 0 0 10 -10v0a10 10 0 0 1 10 -10"></path>
<path d="M497.25 141a10 10 0 0 1 10 10v30a10 10 0 0 0 10 10"></path>
<g class="terminal">
<path d="M517.25 191h4.25"></path>
<path d="M558.5 191h4.25"></path>
<rect x="521.5" y="180" width="37" height="22" rx="10" ry="10"></rect>
<text x="540" y="195">NE</text>
</g>
<path d="M562.75 191a10 10 0 0 0 10 -10v-30a10 10 0 0 1 10 -10"></path>
<path d="M497.25 141a10 10 0 0 1 10 10v60a10 10 0 0 0 10 10"></path>
<g class="terminal">
<path d="M517.25 221h4.25"></path>
<path d="M558.5 221h4.25"></path>
<rect x="521.5" y="210" width="37" height="22" rx="10" ry="10"></rect>
<text x="540" y="225">SW</text>
</g>
<path d="M562.75 221a10 10 0 0 0 10 -10v-60a10 10 0 0 1 10 -10"></path>
<path d="M497.25 141a10 10 0 0 1 10 10v90a10 10 0 0 0 10 10"></path>
<g class="terminal">
<path d="M517.25 251h4.25"></path>
<path d="M558.5 251h4.25"></path>
<rect x="521.5" y="240" width="37" height="22" rx="10" ry="10"></rect>
<text x="540" y="255">SE</text>
</g>
<path d="M562.75 251a10 10 0 0 0 10 -10v-90a10 10 0 0 1 10 -10"></path>
<path d="M497.25 141a10 10 0 0 1 10 10v120a10 10 0 0 0 10 10"></path>
<g class="terminal">
<path d="M517.25 281h0"></path>
<path d="M562.75 281h0"></path>
<rect x="517.25" y="270" width="45.5" height="22" rx="10" ry="10"></rect>
<text x="540" y="285">NDV</text>
</g>
<path d="M562.75 281a10 10 0 0 0 10 -10v-120a10 10 0 0 1 10 -10"></path>
</g>
</g>
<path d="M704 141h20"></path>
<path d="M40 141a10 10 0 0 1 10 10v170a10 10 0 0 0 10 10"></path>
<g>
<path d="M60 331h0"></path>
<path d="M704 331h0"></path>
<g>
<path d="M60 331h0"></path>
<path d="M657 331h0"></path>
<path d="M60 331h20"></path>
<g>
<path d="M80 331h0"></path>
<path d="M637 331h0"></path>
<g>
<path d="M80 331h0"></path>
<path d="M222.5 331h0"></path>
<path d="M80 331a10 10 0 0 0 10 -10v0a10 10 0 0 1 10 -10"></path>
<g class="terminal">
<path d="M100 311h37"></path>
<path d="M165.5 311h37"></path>
<rect x="137" y="300" width="28.5" height="22" rx="10" ry="10"></rect>
<text x="151.25" y="315">P</text>
</g>
<path d="M202.5 311a10 10 0 0 1 10 10v0a10 10 0 0 0 10 10"></path>
<path d="M80 331h20"></path>
<g>
<path d="M100 331h102.5"></path>
</g>
<path d="M202.5 331h20"></path>
<path d="M80 331a10 10 0 0 1 10 10v0a10 10 0 0 0 10 10"></path>
<g class="terminal">
<path d="M100 351h37"></path>
<path d="M165.5 351h37"></path>
<rect x="137" y="340" width="28.5" height="22" rx="10" ry="10"></rect>
<text x="151.25" y="355">M</text>
</g>
<path d="M202.5 351a10 10 0 0 0 10 -10v0a10 10 0 0 1 10 -10"></path>
<path d="M80 331a10 10 0 0 1 10 10v30a10 10 0 0 0 10 10"></path>
<g>
<path d="M100 381h0"></path>
<path d="M202.5 381h0"></path>
<g class="non-terminal">
<path d="M100 381h0"></path>
<path d="M154 381h0"></path>
<rect x="100" y="370" width="54" height="22"></rect>
<text x="127" y="385">0..9</text>
</g>
<path d="M154 381h10"></path>
<path d="M164 381h10"></path>
<g class="terminal">
<path d="M174 381h0"></path>
<path d="M202.5 381h0"></path>
<rect x="174" y="370" width="28.5" height="22" rx="10" ry="10"></rect>
<text x="188.25" y="385"> </text>
</g>
</g>
<path d="M202.5 381a10 10 0 0 0 10 -10v-30a10 10 0 0 1 10 -10"></path>
</g>
<path d="M222.5 331h10"></path>
<g>
<path d="M232.5 331h0"></path>
<path d="M637 331h0"></path>
<g>
<path d="M232.5 331h0"></path>
<path d="M479 331h0"></path>
<path d="M232.5 331h20"></path>
<g>
<path d="M252.5 331h206.5"></path>
</g>
<path d="M459 331h20"></path>
<path d="M232.5 331a10 10 0 0 1 10 10v0a10 10 0 0 0 10 10"></path>
<g>
<path d="M252.5 351h0"></path>
<path d="M459 351h0"></path>
<g>
<path d="M252.5 351h0"></path>
<path d="M346.5 351h0"></path>
<path d="M252.5 351h20"></path>
<g>
<path d="M272.5 351h54"></path>
</g>
<path d="M326.5 351h20"></path>
<path d="M252.5 351a10 10 0 0 1 10 10v0a10 10 0 0 0 10 10"></path>
<g class="non-terminal">
<path d="M272.5 371h0"></path>
<path d="M326.5 371h0"></path>
<rect x="272.5" y="360" width="54" height="22"></rect>
<text x="299.5" y="375">0..9</text>
</g>
<path d="M326.5 371a10 10 0 0 0 10 -10v0a10 10 0 0 1 10 -10"></path>
</g>
<path d="M346.5 351h10"></path>
<g class="non-terminal">
<path d="M356.5 351h0"></path>
<path d="M410.5 351h0"></path>
<rect x="356.5" y="340" width="54" height="22"></rect>
<text x="383.5" y="355">0..9</text>
</g>
<path d="M410.5 351h10"></path>
<path d="M420.5 351h10"></path>
<g class="terminal">
<path d="M430.5 351h0"></path>
<path d="M459 351h0"></path>
<rect x="430.5" y="340" width="28.5" height="22" rx="10" ry="10"></rect>
<text x="444.75" y="355">/</text>
</g>
</g>
<path d="M459 351a10 10 0 0 0 10 -10v0a10 10 0 0 1 10 -10"></path>
</g>
<g>
<path d="M479 331h0"></path>
<path d="M573 331h0"></path>
<path d="M479 331h20"></path>
<g>
<path d="M499 331h54"></path>
</g>
<path d="M553 331h20"></path>
<path d="M479 331a10 10 0 0 1 10 10v0a10 10 0 0 0 10 10"></path>
<g class="non-terminal">
<path d="M499 351h0"></path>
<path d="M553 351h0"></path>
<rect x="499" y="340" width="54" height="22"></rect>
<text x="526" y="355">0..9</text>
</g>
<path d="M553 351a10 10 0 0 0 10 -10v0a10 10 0 0 1 10 -10"></path>
</g>
<path d="M573 331h10"></path>
<g class="non-terminal">
<path d="M583 331h0"></path>
<path d="M637 331h0"></path>
<rect x="583" y="320" width="54" height="22"></rect>
<text x="610" y="335">0..9</text>
</g>
</g>
</g>
<path d="M637 331h20"></path>
<path d="M60 331a10 10 0 0 1 10 10v60a10 10 0 0 0 10 10"></path>
<g class="terminal">
<path d="M80 411h251.5"></path>
<path d="M385.5 411h251.5"></path>
<rect x="331.5" y="400" width="54" height="22" rx="10" ry="10"></rect>
<text x="358.5" y="415">////</text>
</g>
<path d="M637 411a10 10 0 0 0 10 -10v-60a10 10 0 0 1 10 -10"></path>
</g>
<path d="M657 331h10"></path>
<g class="terminal">
<path d="M667 331h0"></path>
<path d="M704 331h0"></path>
<rect x="667" y="320" width="37" height="22" rx="10" ry="10"></rect>
<text x="685.5" y="335">SM</text>
</g>
</g>
<path d="M704 331a10 10 0 0 0 10 -10v-170a10 10 0 0 1 10 -10"></path>
</g>
<path d="M 724 141 h 20 m -10 -10 v 20 m 10 -20 v 20"></path>
</g>
</svg>
