<svg xmlns="http://www.w3.org/2000/svg" class="railroad-diagram" width="351" height="700" viewBox="0 0 351 700">
<style>
/* <![CDATA[ */
svg.railroad-diagram {
    background-color: hsl(30,20%,95%);
}
svg.railroad-diagram path {
    stroke-width: 3;
    stroke: black;
    fill: rgba(0,0,0,0);
}
svg.railroad-diagram text {
    font: bold 14px monospace;
    text-anchor: middle;
}
svg.railroad-diagram text.diagram-text {
    font-size: 12px;
}
svg.railroad-diagram text.diagram-arrow {
    font-size: 16px;
}
svg.railroad-diagram text.label {
    text-anchor: start;
}
svg.railroad-diagram text.comment {
    font: italic 12px monospace;
}
svg.railroad-diagram g.non-terminal text {
    /*font-style: italic;*/
}
svg.railroad-diagram rect {
    stroke-width: 3;
    stroke: black;
    fill: hsl(120,100%,90%);
}
svg.railroad-diagram path.diagram-text {
    stroke-width: 3;
    stroke: black;
    fill: white;
    cursor: help;
}
svg.railroad-diagram g.diagram-text:hover path.diagram-text {
    fill: #eee;
}
/* ]]> */
</style>
<g transform="translate(.5 .5)">
<g>
<path d="M20 321v20m10 -20v20m-10 -10h20"></path>
</g>
<g>
<path d="M40 331h0"></path>
<path d="M117 331h0"></path>
<path d="M40 331a10 10 0 0 0 10 -10v0a10 10 0 0 1 10 -10"></path>
<g class="terminal">
<path d="M60 311h0"></path>
<path d="M97 311h0"></path>
<rect x="60" y="300" width="37" height="22" rx="10" ry="10"></rect>
<text x="78.5" y="315">VC</text>
</g>
<path d="M97 311a10 10 0 0 1 10 10v0a10 10 0 0 0 10 10"></path>
<path d="M40 331a10 10 0 0 0 10 -10v-30a10 10 0 0 1 10 -10"></path>
<g class="terminal">
<path d="M60 281h0"></path>
<path d="M97 281h0"></path>
<rect x="60" y="270" width="37" height="22" rx="10" ry="10"></rect>
<text x="78.5" y="285">RE</text>
</g>
<path d="M97 281a10 10 0 0 1 10 10v30a10 10 0 0 0 10 10"></path>
<path d="M40 331h20"></path>
<g>
<path d="M60 331h37"></path>
</g>
<path d="M97 331h20"></path>
<path d="M40 331a10 10 0 0 1 10 10v0a10 10 0 0 0 10 10"></path>
<g class="terminal">
<path d="M60 351h4.25"></path>
<path d="M92.75 351h4.25"></path>
<rect x="64.25" y="340" width="28.5" height="22" rx="10" ry="10"></rect>
<text x="78.5" y="355">+</text>
</g>
<path d="M97 351a10 10 0 0 0 10 -10v0a10 10 0 0 1 10 -10"></path>
<path d="M40 331a10 10 0 0 1 10 10v30a10 10 0 0 0 10 10"></path>
<g class="terminal">
<path d="M60 381h4.25"></path>
<path d="M92.75 381h4.25"></path>
<rect x="64.25" y="370" width="28.5" height="22" rx="10" ry="10"></rect>
<text x="78.5" y="385">-</text>
</g>
<path d="M97 381a10 10 0 0 0 10 -10v-30a10 10 0 0 1 10 -10"></path>
</g>
<g>
<path d="M117 331h0"></path>
<path d="M194 331h0"></path>
<path d="M117 331a10 10 0 0 0 10 -10v0a10 10 0 0 1 10 -10"></path>
<g class="terminal">
<path d="M137 311h0"></path>
<path d="M174 311h0"></path>
<rect x="137" y="300" width="37" height="22" rx="10" ry="10"></rect>
<text x="155.5" y="315">DR</text>
</g>
<path d="M174 311a10 10 0 0 1 10 10v0a10 10 0 0 0 10 10"></path>
<path d="M117 331a10 10 0 0 0 10 -10v-30a10 10 0 0 1 10 -10"></path>
<g class="terminal">
<path d="M137 281h0"></path>
<path d="M174 281h0"></path>
<rect x="137" y="270" width="37" height="22" rx="10" ry="10"></rect>
<text x="155.5" y="285">BC</text>
</g>
<path d="M174 281a10 10 0 0 1 10 10v30a10 10 0 0 0 10 10"></path>
<path d="M117 331a10 10 0 0 0 10 -10v-60a10 10 0 0 1 10 -10"></path>
<g class="terminal">
<path d="M137 251h0"></path>
<path d="M174 251h0"></path>
<rect x="137" y="240" width="37" height="22" rx="10" ry="10"></rect>
<text x="155.5" y="255">PR</text>
</g>
<path d="M174 251a10 10 0 0 1 10 10v60a10 10 0 0 0 10 10"></path>
<path d="M117 331a10 10 0 0 0 10 -10v-90a10 10 0 0 1 10 -10"></path>
<g class="terminal">
<path d="M137 221h0"></path>
<path d="M174 221h0"></path>
<rect x="137" y="210" width="37" height="22" rx="10" ry="10"></rect>
<text x="155.5" y="225">MI</text>
</g>
<path d="M174 221a10 10 0 0 1 10 10v90a10 10 0 0 0 10 10"></path>
<path d="M117 331h20"></path>
<g>
<path d="M137 331h37"></path>
</g>
<path d="M174 331h20"></path>
<path d="M117 331a10 10 0 0 1 10 10v0a10 10 0 0 0 10 10"></path>
<g class="terminal">
<path d="M137 351h0"></path>
<path d="M174 351h0"></path>
<rect x="137" y="340" width="37" height="22" rx="10" ry="10"></rect>
<text x="155.5" y="355">BL</text>
</g>
<path d="M174 351a10 10 0 0 0 10 -10v0a10 10 0 0 1 10 -10"></path>
<path d="M117 331a10 10 0 0 1 10 10v30a10 10 0 0 0 10 10"></path>
<g class="terminal">
<path d="M137 381h0"></path>
<path d="M174 381h0"></path>
<rect x="137" y="370" width="37" height="22" rx="10" ry="10"></rect>
<text x="155.5" y="385">SH</text>
</g>
<path d="M174 381a10 10 0 0 0 10 -10v-30a10 10 0 0 1 10 -10"></path>
<path d="M117 331a10 10 0 0 1 10 10v60a10 10 0 0 0 10 10"></path>
<g class="terminal">
<path d="M137 411h0"></path>
<path d="M174 411h0"></path>
<rect x="137" y="400" width="37" height="22" rx="10" ry="10"></rect>
<text x="155.5" y="415">TS</text>
</g>
<path d="M174 411a10 10 0 0 0 10 -10v-60a10 10 0 0 1 10 -10"></path>
<path d="M117 331a10 10 0 0 1 10 10v90a10 10 0 0 0 10 10"></path>
<g class="terminal">
<path d="M137 441h0"></path>
<path d="M174 441h0"></path>
<rect x="137" y="430" width="37" height="22" rx="10" ry="10"></rect>
<text x="155.5" y="445">FZ</text>
</g>
<path d="M174 441a10 10 0 0 0 10 -10v-90a10 10 0 0 1 10 -10"></path>
</g>
<path d="M194 331h10"></path>
<g>
<path d="M204 331h0"></path>
<path d="M301 331h0"></path>
<path d="M204 331h10"></path>
<g>
<path d="M214 331h0"></path>
<path d="M291 331h0"></path>
<path d="M214 331a10 10 0 0 0 10 -10v-10a10 10 0 0 1 10 -10"></path>
<g class="terminal">
<path d="M234 301h0"></path>
<path d="M271 301h0"></path>
<rect x="234" y="290" width="37" height="22" rx="10" ry="10"></rect>
<text x="252.5" y="305">BR</text>
</g>
<path d="M271 301a10 10 0 0 1 10 10v10a10 10 0 0 0 10 10"></path>
<path d="M214 331a10 10 0 0 0 10 -10v-40a10 10 0 0 1 10 -10"></path>
<g class="terminal">
<path d="M234 271h0"></path>
<path d="M271 271h0"></path>
<rect x="234" y="260" width="37" height="22" rx="10" ry="10"></rect>
<text x="252.5" y="275">UP</text>
</g>
<path d="M271 271a10 10 0 0 1 10 10v40a10 10 0 0 0 10 10"></path>
<path d="M214 331a10 10 0 0 0 10 -10v-70a10 10 0 0 1 10 -10"></path>
<g class="terminal">
<path d="M234 241h0"></path>
<path d="M271 241h0"></path>
<rect x="234" y="230" width="37" height="22" rx="10" ry="10"></rect>
<text x="252.5" y="245">GS</text>
</g>
<path d="M271 241a10 10 0 0 1 10 10v70a10 10 0 0 0 10 10"></path>
<path d="M214 331a10 10 0 0 0 10 -10v-100a10 10 0 0 1 10 -10"></path>
<g class="terminal">
<path d="M234 211h0"></path>
<path d="M271 211h0"></path>
<rect x="234" y="200" width="37" height="22" rx="10" ry="10"></rect>
<text x="252.5" y="215">GR</text>
</g>
<path d="M271 211a10 10 0 0 1 10 10v100a10 10 0 0 0 10 10"></path>
<path d="M214 331a10 10 0 0 0 10 -10v-130a10 10 0 0 1 10 -10"></path>
<g class="terminal">
<path d="M234 181h0"></path>
<path d="M271 181h0"></path>
<rect x="234" y="170" width="37" height="22" rx="10" ry="10"></rect>
<text x="252.5" y="185">PL</text>
</g>
<path d="M271 181a10 10 0 0 1 10 10v130a10 10 0 0 0 10 10"></path>
<path d="M214 331a10 10 0 0 0 10 -10v-160a10 10 0 0 1 10 -10"></path>
<g class="terminal">
<path d="M234 151h0"></path>
<path d="M271 151h0"></path>
<rect x="234" y="140" width="37" height="22" rx="10" ry="10"></rect>
<text x="252.5" y="155">IC</text>
</g>
<path d="M271 151a10 10 0 0 1 10 10v160a10 10 0 0 0 10 10"></path>
<path d="M214 331a10 10 0 0 0 10 -10v-190a10 10 0 0 1 10 -10"></path>
<g class="terminal">
<path d="M234 121h0"></path>
<path d="M271 121h0"></path>
<rect x="234" y="110" width="37" height="22" rx="10" ry="10"></rect>
<text x="252.5" y="125">SG</text>
</g>
<path d="M271 121a10 10 0 0 1 10 10v190a10 10 0 0 0 10 10"></path>
<path d="M214 331a10 10 0 0 0 10 -10v-220a10 10 0 0 1 10 -10"></path>
<g class="terminal">
<path d="M234 91h0"></path>
<path d="M271 91h0"></path>
<rect x="234" y="80" width="37" height="22" rx="10" ry="10"></rect>
<text x="252.5" y="95">SN</text>
</g>
<path d="M271 91a10 10 0 0 1 10 10v220a10 10 0 0 0 10 10"></path>
<path d="M214 331a10 10 0 0 0 10 -10v-250a10 10 0 0 1 10 -10"></path>
<g class="terminal">
<path d="M234 61h0"></path>
<path d="M271 61h0"></path>
<rect x="234" y="50" width="37" height="22" rx="10" ry="10"></rect>
<text x="252.5" y="65">RA</text>
</g>
<path d="M271 61a10 10 0 0 1 10 10v250a10 10 0 0 0 10 10"></path>
<path d="M214 331a10 10 0 0 0 10 -10v-280a10 10 0 0 1 10 -10"></path>
<g class="terminal">
<path d="M234 31h0"></path>
<path d="M271 31h0"></path>
<rect x="234" y="20" width="37" height="22" rx="10" ry="10"></rect>
<text x="252.5" y="35">DZ</text>
</g>
<path d="M271 31a10 10 0 0 1 10 10v280a10 10 0 0 0 10 10"></path>
<path d="M214 331h20"></path>
<g class="terminal">
<path d="M234 331h0"></path>
<path d="M271 331h0"></path>
<rect x="234" y="320" width="37" height="22" rx="10" ry="10"></rect>
<text x="252.5" y="335">FG</text>
</g>
<path d="M271 331h20"></path>
<path d="M214 331a10 10 0 0 1 10 10v10a10 10 0 0 0 10 10"></path>
<g class="terminal">
<path d="M234 361h0"></path>
<path d="M271 361h0"></path>
<rect x="234" y="350" width="37" height="22" rx="10" ry="10"></rect>
<text x="252.5" y="365">FU</text>
</g>
<path d="M271 361a10 10 0 0 0 10 -10v-10a10 10 0 0 1 10 -10"></path>
<path d="M214 331a10 10 0 0 1 10 10v40a10 10 0 0 0 10 10"></path>
<g class="terminal">
<path d="M234 391h0"></path>
<path d="M271 391h0"></path>
<rect x="234" y="380" width="37" height="22" rx="10" ry="10"></rect>
<text x="252.5" y="395">VA</text>
</g>
<path d="M271 391a10 10 0 0 0 10 -10v-40a10 10 0 0 1 10 -10"></path>
<path d="M214 331a10 10 0 0 1 10 10v70a10 10 0 0 0 10 10"></path>
<g class="terminal">
<path d="M234 421h0"></path>
<path d="M271 421h0"></path>
<rect x="234" y="410" width="37" height="22" rx="10" ry="10"></rect>
<text x="252.5" y="425">DU</text>
</g>
<path d="M271 421a10 10 0 0 0 10 -10v-70a10 10 0 0 1 10 -10"></path>
<path d="M214 331a10 10 0 0 1 10 10v100a10 10 0 0 0 10 10"></path>
<g class="terminal">
<path d="M234 451h0"></path>
<path d="M271 451h0"></path>
<rect x="234" y="440" width="37" height="22" rx="10" ry="10"></rect>
<text x="252.5" y="455">SA</text>
</g>
<path d="M271 451a10 10 0 0 0 10 -10v-100a10 10 0 0 1 10 -10"></path>
<path d="M214 331a10 10 0 0 1 10 10v130a10 10 0 0 0 10 10"></path>
<g class="terminal">
<path d="M234 481h0"></path>
<path d="M271 481h0"></path>
<rect x="234" y="470" width="37" height="22" rx="10" ry="10"></rect>
<text x="252.5" y="485">HZ</text>
</g>
<path d="M271 481a10 10 0 0 0 10 -10v-130a10 10 0 0 1 10 -10"></path>
<path d="M214 331a10 10 0 0 1 10 10v160a10 10 0 0 0 10 10"></path>
<g class="terminal">
<path d="M234 511h0"></path>
<path d="M271 511h0"></path>
<rect x="234" y="500" width="37" height="22" rx="10" ry="10"></rect>
<text x="252.5" y="515">PY</text>
</g>
<path d="M271 511a10 10 0 0 0 10 -10v-160a10 10 0 0 1 10 -10"></path>
<path d="M214 331a10 10 0 0 1 10 10v190a10 10 0 0 0 10 10"></path>
<g class="terminal">
<path d="M234 541h0"></path>
<path d="M271 541h0"></path>
<rect x="234" y="530" width="37" height="22" rx="10" ry="10"></rect>
<text x="252.5" y="545">PO</text>
</g>
<path d="M271 541a10 10 0 0 0 10 -10v-190a10 10 0 0 1 10 -10"></path>
<path d="M214 331a10 10 0 0 1 10 10v220a10 10 0 0 0 10 10"></path>
<g class="terminal">
<path d="M234 571h0"></path>
<path d="M271 571h0"></path>
<rect x="234" y="560" width="37" height="22" rx="10" ry="10"></rect>
<text x="252.5" y="575">SQ</text>
</g>
<path d="M271 571a10 10 0 0 0 10 -10v-220a10 10 0 0 1 10 -10"></path>
<path d="M214 331a10 10 0 0 1 10 10v250a10 10 0 0 0 10 10"></path>
<g class="terminal">
<path d="M234 601h0"></path>
<path d="M271 601h0"></path>
<rect x="234" y="590" width="37" height="22" rx="10" ry="10"></rect>
<text x="252.5" y="605">FC</text>
</g>
<path d="M271 601a10 10 0 0 0 10 -10v-250a10 10 0 0 1 10 -10"></path>
<path d="M214 331a10 10 0 0 1 10 10v280a10 10 0 0 0 10 10"></path>
<g class="terminal">
<path d="M234 631h0"></path>
<path d="M271 631h0"></path>
<rect x="234" y="620" width="37" height="22" rx="10" ry="10"></rect>
<text x="252.5" y="635">SS</text>
</g>
<path d="M271 631a10 10 0 0 0 10 -10v-280a10 10 0 0 1 10 -10"></path>
<path d="M214 331a10 10 0 0 1 10 10v310a10 10 0 0 0 10 10"></path>
<g class="terminal">
<path d="M234 661h0"></path>
<path d="M271 661h0"></path>
<rect x="234" y="650" width="37" height="22" rx="10" ry="10"></rect>
<text x="252.5" y="665">DS</text>
</g>
<path d="M271 661a10 10 0 0 0 10 -10v-310a10 10 0 0 1 10 -10"></path>
</g>
<path d="M291 331h10"></path>
<path d="M214 331a10 10 0 0 0 -10 10v329a10 10 0 0 0 10 10"></path>
<g>
<path d="M214 680h77"></path>
</g>
<path d="M291 680a10 10 0 0 0 10 -10v-329a10 10 0 0 0 -10 -10"></path>
</g>
<path d="M301 331h10"></path>
<path d="M 311 331 h 20 m -10 -10 v 20 m 10 -20 v 20"></path>
</g>
</svg>
