<svg xmlns="http://www.w3.org/2000/svg" class="railroad-diagram" width="517.5" height="162" viewBox="0 0 517.5 162">
<style>
/* <![CDATA[ */
svg.railroad-diagram {
    background-color: hsl(30,20%,95%);
}
svg.railroad-diagram path {
    stroke-width: 3;
    stroke: black;
    fill: rgba(0,0,0,0);
}
svg.railroad-diagram text {
    font: bold 14px monospace;
    text-anchor: middle;
}
svg.railroad-diagram text.diagram-text {
    font-size: 12px;
}
svg.railroad-diagram text.diagram-arrow {
    font-size: 16px;
}
svg.railroad-diagram text.label {
    text-anchor: start;
}
svg.railroad-diagram text.comment {
    font: italic 12px monospace;
}
svg.railroad-diagram g.non-terminal text {
    /*font-style: italic;*/
}
svg.railroad-diagram rect {
    stroke-width: 3;
    stroke: black;
    fill: hsl(120,100%,90%);
}
svg.railroad-diagram path.diagram-text {
    stroke-width: 3;
    stroke: black;
    fill: white;
    cursor: help;
}
svg.railroad-diagram g.diagram-text:hover path.diagram-text {
    fill: #eee;
}
/* ]]> */
</style>
<g transform="translate(.5 .5)">
<g>
<path d="M20 121v20m10 -20v20m-10 -10h20"></path>
</g>
<g>
<path d="M40 131h0"></path>
<path d="M477.5 131h0"></path>
<path d="M40 131a10 10 0 0 0 10 -10v-60a10 10 0 0 1 10 -10"></path>
<g>
<path d="M60 51h0"></path>
<path d="M457.5 51h0"></path>
<g class="terminal">
<path d="M60 51h0"></path>
<path d="M97 51h0"></path>
<rect x="60" y="40" width="37" height="22" rx="10" ry="10"></rect>
<text x="78.5" y="55">WS</text>
</g>
<path d="M97 51h10"></path>
<path d="M107 51h10"></path>
<g class="terminal">
<path d="M117 51h0"></path>
<path d="M145.5 51h0"></path>
<rect x="117" y="40" width="28.5" height="22" rx="10" ry="10"></rect>
<text x="131.25" y="55"> </text>
</g>
<path d="M145.5 51h10"></path>
<g>
<path d="M155.5 51h0"></path>
<path d="M241 51h0"></path>
<path d="M155.5 51h20"></path>
<g class="terminal">
<path d="M175.5 51h8.5"></path>
<path d="M212.5 51h8.5"></path>
<rect x="184" y="40" width="28.5" height="22" rx="10" ry="10"></rect>
<text x="198.25" y="55">R</text>
</g>
<path d="M221 51h20"></path>
<path d="M155.5 51a10 10 0 0 1 10 10v10a10 10 0 0 0 10 10"></path>
<g class="terminal">
<path d="M175.5 81h0"></path>
<path d="M221 81h0"></path>
<rect x="175.5" y="70" width="45.5" height="22" rx="10" ry="10"></rect>
<text x="198.25" y="85">RWY</text>
</g>
<path d="M221 81a10 10 0 0 0 10 -10v-10a10 10 0 0 1 10 -10"></path>
</g>
<path d="M241 51h10"></path>
<g class="non-terminal">
<path d="M251 51h0"></path>
<path d="M305 51h0"></path>
<rect x="251" y="40" width="54" height="22"></rect>
<text x="278" y="55">0..9</text>
</g>
<path d="M305 51h10"></path>
<path d="M315 51h10"></path>
<g class="non-terminal">
<path d="M325 51h0"></path>
<path d="M379 51h0"></path>
<rect x="325" y="40" width="54" height="22"></rect>
<text x="352" y="55">0..9</text>
</g>
<path d="M379 51h10"></path>
<g>
<path d="M389 51h0"></path>
<path d="M457.5 51h0"></path>
<path d="M389 51a10 10 0 0 0 10 -10v0a10 10 0 0 1 10 -10"></path>
<g class="terminal">
<path d="M409 31h0"></path>
<path d="M437.5 31h0"></path>
<rect x="409" y="20" width="28.5" height="22" rx="10" ry="10"></rect>
<text x="423.25" y="35">R</text>
</g>
<path d="M437.5 31a10 10 0 0 1 10 10v0a10 10 0 0 0 10 10"></path>
<path d="M389 51h20"></path>
<g>
<path d="M409 51h28.5"></path>
</g>
<path d="M437.5 51h20"></path>
<path d="M389 51a10 10 0 0 1 10 10v0a10 10 0 0 0 10 10"></path>
<g class="terminal">
<path d="M409 71h0"></path>
<path d="M437.5 71h0"></path>
<rect x="409" y="60" width="28.5" height="22" rx="10" ry="10"></rect>
<text x="423.25" y="75">L</text>
</g>
<path d="M437.5 71a10 10 0 0 0 10 -10v0a10 10 0 0 1 10 -10"></path>
<path d="M389 51a10 10 0 0 1 10 10v30a10 10 0 0 0 10 10"></path>
<g class="terminal">
<path d="M409 101h0"></path>
<path d="M437.5 101h0"></path>
<rect x="409" y="90" width="28.5" height="22" rx="10" ry="10"></rect>
<text x="423.25" y="105">C</text>
</g>
<path d="M437.5 101a10 10 0 0 0 10 -10v-30a10 10 0 0 1 10 -10"></path>
</g>
</g>
<path d="M457.5 51a10 10 0 0 1 10 10v60a10 10 0 0 0 10 10"></path>
<path d="M40 131h20"></path>
<g>
<path d="M60 131h66.25"></path>
<path d="M391.25 131h66.25"></path>
<g class="terminal">
<path d="M126.25 131h0"></path>
<path d="M163.25 131h0"></path>
<rect x="126.25" y="120" width="37" height="22" rx="10" ry="10"></rect>
<text x="144.75" y="135">WS</text>
</g>
<path d="M163.25 131h10"></path>
<path d="M173.25 131h10"></path>
<g class="terminal">
<path d="M183.25 131h0"></path>
<path d="M211.75 131h0"></path>
<rect x="183.25" y="120" width="28.5" height="22" rx="10" ry="10"></rect>
<text x="197.5" y="135"> </text>
</g>
<path d="M211.75 131h10"></path>
<path d="M221.75 131h10"></path>
<g class="terminal">
<path d="M231.75 131h0"></path>
<path d="M277.25 131h0"></path>
<rect x="231.75" y="120" width="45.5" height="22" rx="10" ry="10"></rect>
<text x="254.5" y="135">ALL</text>
</g>
<path d="M277.25 131h10"></path>
<path d="M287.25 131h10"></path>
<g class="terminal">
<path d="M297.25 131h0"></path>
<path d="M325.75 131h0"></path>
<rect x="297.25" y="120" width="28.5" height="22" rx="10" ry="10"></rect>
<text x="311.5" y="135"> </text>
</g>
<path d="M325.75 131h10"></path>
<path d="M335.75 131h10"></path>
<g class="terminal">
<path d="M345.75 131h0"></path>
<path d="M391.25 131h0"></path>
<rect x="345.75" y="120" width="45.5" height="22" rx="10" ry="10"></rect>
<text x="368.5" y="135">RWY</text>
</g>
</g>
<path d="M457.5 131h20"></path>
</g>
<path d="M 477.5 131 h 20 m -10 -10 v 20 m 10 -20 v 20"></path>
</g>
</svg>